<?xml version="1.0" encoding="utf-8" standalone="no"?>
<!DOCTYPE svg PUBLIC "-//W3C//DTD SVG 1.1//EN"
  "http://www.w3.org/Graphics/SVG/1.1/DTD/svg11.dtd">
<svg xmlns:xlink="http://www.w3.org/1999/xlink" width="834.03pt" height="360pt" viewBox="0 0 834.03 360" xmlns="http://www.w3.org/2000/svg" version="1.1">
 <metadata>
  <rdf:RDF xmlns:dc="http://purl.org/dc/elements/1.1/" xmlns:cc="http://creativecommons.org/ns#" xmlns:rdf="http://www.w3.org/1999/02/22-rdf-syntax-ns#">
   <cc:Work>
    <dc:type rdf:resource="http://purl.org/dc/dcmitype/StillImage"/>
    <dc:date>2023-11-19T18:00:26.631023</dc:date>
    <dc:format>image/svg+xml</dc:format>
    <dc:creator>
     <cc:Agent>
      <dc:title>Matplotlib v3.8.0, https://matplotlib.org/</dc:title>
     </cc:Agent>
    </dc:creator>
   </cc:Work>
  </rdf:RDF>
 </metadata>
 <defs>
  <style type="text/css">*{stroke-linejoin: round; stroke-linecap: butt}</style>
 </defs>
 <g id="figure_1">
  <g id="patch_1">
   <path d="M 0 360 
L 834.03 360 
L 834.03 0 
L 0 0 
z
" style="fill: #ffffff"/>
  </g>
  <g id="axes_1">
   <g id="patch_2">
    <path d="M 44.331011 318.04 
L 370.883734 318.04 
L 370.883734 24.72 
L 44.331011 24.72 
z
" style="fill: #ffffff"/>
   </g>
   <g id="patch_3">
    <path d="M 49.773557 318.04 
L 71.543738 318.04 
L 71.543738 77.098571 
L 49.773557 77.098571 
z
" clip-path="url(#pf19c47597a)" style="fill: #3274a1"/>
   </g>
   <g id="patch_4">
    <path d="M 104.19901 318.04 
L 125.969192 318.04 
L 125.969192 77.098571 
L 104.19901 77.098571 
z
" clip-path="url(#pf19c47597a)" style="fill: #3274a1"/>
   </g>
   <g id="patch_5">
    <path d="M 158.624464 318.04 
L 180.394646 318.04 
L 180.394646 77.098571 
L 158.624464 77.098571 
z
" clip-path="url(#pf19c47597a)" style="fill: #3274a1"/>
   </g>
   <g id="patch_6">
    <path d="M 213.049918 318.04 
L 234.8201 318.04 
L 234.8201 77.098571 
L 213.049918 77.098571 
z
" clip-path="url(#pf19c47597a)" style="fill: #3274a1"/>
   </g>
   <g id="patch_7">
    <path d="M 267.475372 318.04 
L 289.245554 318.04 
L 289.245554 77.098571 
L 267.475372 77.098571 
z
" clip-path="url(#pf19c47597a)" style="fill: #3274a1"/>
   </g>
   <g id="patch_8">
    <path d="M 321.900826 318.04 
L 343.671007 318.04 
L 343.671007 66.622857 
L 321.900826 66.622857 
z
" clip-path="url(#pf19c47597a)" style="fill: #3274a1"/>
   </g>
   <g id="patch_9">
    <path d="M 71.543738 318.04 
L 93.31392 318.04 
L 93.31392 87.574286 
L 71.543738 87.574286 
z
" clip-path="url(#pf19c47597a)" style="fill: #e1812c"/>
   </g>
   <g id="patch_10">
    <path d="M 125.969192 318.04 
L 147.739374 318.04 
L 147.739374 98.05 
L 125.969192 98.05 
z
" clip-path="url(#pf19c47597a)" style="fill: #e1812c"/>
   </g>
   <g id="patch_11">
    <path d="M 180.394646 318.04 
L 202.164827 318.04 
L 202.164827 87.574286 
L 180.394646 87.574286 
z
" clip-path="url(#pf19c47597a)" style="fill: #e1812c"/>
   </g>
   <g id="patch_12">
    <path d="M 234.8201 318.04 
L 256.590281 318.04 
L 256.590281 98.05 
L 234.8201 98.05 
z
" clip-path="url(#pf19c47597a)" style="fill: #e1812c"/>
   </g>
   <g id="patch_13">
    <path d="M 289.245554 318.04 
L 311.015735 318.04 
L 311.015735 87.574286 
L 289.245554 87.574286 
z
" clip-path="url(#pf19c47597a)" style="fill: #e1812c"/>
   </g>
   <g id="patch_14">
    <path d="M 343.671007 318.04 
L 365.441189 318.04 
L 365.441189 87.574286 
L 343.671007 87.574286 
z
" clip-path="url(#pf19c47597a)" style="fill: #e1812c"/>
   </g>
   <g id="matplotlib.axis_1">
    <g id="xtick_1">
     <g id="line2d_1">
      <defs>
       <path id="mf8551be6ed" d="M 0 0 
L 0 3.5 
" style="stroke: #000000; stroke-width: 0.8"/>
      </defs>
      <g>
       <use xlink:href="#mf8551be6ed" x="71.543738" y="318.04" style="stroke: #000000; stroke-width: 0.8"/>
      </g>
     </g>
     <g id="text_1">
      <!-- Q1 -->
      <g transform="translate(64.426551 332.638438) scale(0.1 -0.1)">
       <defs>
        <path id="DejaVuSans-51" d="M 2522 4238 
Q 1834 4238 1429 3725 
Q 1025 3213 1025 2328 
Q 1025 1447 1429 934 
Q 1834 422 2522 422 
Q 3209 422 3611 934 
Q 4013 1447 4013 2328 
Q 4013 3213 3611 3725 
Q 3209 4238 2522 4238 
z
M 3406 84 
L 4238 -825 
L 3475 -825 
L 2784 -78 
Q 2681 -84 2626 -87 
Q 2572 -91 2522 -91 
Q 1538 -91 948 567 
Q 359 1225 359 2328 
Q 359 3434 948 4092 
Q 1538 4750 2522 4750 
Q 3503 4750 4090 4092 
Q 4678 3434 4678 2328 
Q 4678 1516 4351 937 
Q 4025 359 3406 84 
z
" transform="scale(0.015625)"/>
        <path id="DejaVuSans-31" d="M 794 531 
L 1825 531 
L 1825 4091 
L 703 3866 
L 703 4441 
L 1819 4666 
L 2450 4666 
L 2450 531 
L 3481 531 
L 3481 0 
L 794 0 
L 794 531 
z
" transform="scale(0.015625)"/>
       </defs>
       <use xlink:href="#DejaVuSans-51"/>
       <use xlink:href="#DejaVuSans-31" x="78.710938"/>
      </g>
     </g>
    </g>
    <g id="xtick_2">
     <g id="line2d_2">
      <g>
       <use xlink:href="#mf8551be6ed" x="125.969192" y="318.04" style="stroke: #000000; stroke-width: 0.8"/>
      </g>
     </g>
     <g id="text_2">
      <!-- Q2 -->
      <g transform="translate(118.852005 332.638438) scale(0.1 -0.1)">
       <defs>
        <path id="DejaVuSans-32" d="M 1228 531 
L 3431 531 
L 3431 0 
L 469 0 
L 469 531 
Q 828 903 1448 1529 
Q 2069 2156 2228 2338 
Q 2531 2678 2651 2914 
Q 2772 3150 2772 3378 
Q 2772 3750 2511 3984 
Q 2250 4219 1831 4219 
Q 1534 4219 1204 4116 
Q 875 4013 500 3803 
L 500 4441 
Q 881 4594 1212 4672 
Q 1544 4750 1819 4750 
Q 2544 4750 2975 4387 
Q 3406 4025 3406 3419 
Q 3406 3131 3298 2873 
Q 3191 2616 2906 2266 
Q 2828 2175 2409 1742 
Q 1991 1309 1228 531 
z
" transform="scale(0.015625)"/>
       </defs>
       <use xlink:href="#DejaVuSans-51"/>
       <use xlink:href="#DejaVuSans-32" x="78.710938"/>
      </g>
     </g>
    </g>
    <g id="xtick_3">
     <g id="line2d_3">
      <g>
       <use xlink:href="#mf8551be6ed" x="180.394646" y="318.04" style="stroke: #000000; stroke-width: 0.8"/>
      </g>
     </g>
     <g id="text_3">
      <!-- Q3 -->
      <g transform="translate(173.277458 332.638438) scale(0.1 -0.1)">
       <defs>
        <path id="DejaVuSans-33" d="M 2597 2516 
Q 3050 2419 3304 2112 
Q 3559 1806 3559 1356 
Q 3559 666 3084 287 
Q 2609 -91 1734 -91 
Q 1441 -91 1130 -33 
Q 819 25 488 141 
L 488 750 
Q 750 597 1062 519 
Q 1375 441 1716 441 
Q 2309 441 2620 675 
Q 2931 909 2931 1356 
Q 2931 1769 2642 2001 
Q 2353 2234 1838 2234 
L 1294 2234 
L 1294 2753 
L 1863 2753 
Q 2328 2753 2575 2939 
Q 2822 3125 2822 3475 
Q 2822 3834 2567 4026 
Q 2313 4219 1838 4219 
Q 1578 4219 1281 4162 
Q 984 4106 628 3988 
L 628 4550 
Q 988 4650 1302 4700 
Q 1616 4750 1894 4750 
Q 2613 4750 3031 4423 
Q 3450 4097 3450 3541 
Q 3450 3153 3228 2886 
Q 3006 2619 2597 2516 
z
" transform="scale(0.015625)"/>
       </defs>
       <use xlink:href="#DejaVuSans-51"/>
       <use xlink:href="#DejaVuSans-33" x="78.710938"/>
      </g>
     </g>
    </g>
    <g id="xtick_4">
     <g id="line2d_4">
      <g>
       <use xlink:href="#mf8551be6ed" x="234.8201" y="318.04" style="stroke: #000000; stroke-width: 0.8"/>
      </g>
     </g>
     <g id="text_4">
      <!-- Q4 -->
      <g transform="translate(227.702912 332.638438) scale(0.1 -0.1)">
       <defs>
        <path id="DejaVuSans-34" d="M 2419 4116 
L 825 1625 
L 2419 1625 
L 2419 4116 
z
M 2253 4666 
L 3047 4666 
L 3047 1625 
L 3713 1625 
L 3713 1100 
L 3047 1100 
L 3047 0 
L 2419 0 
L 2419 1100 
L 313 1100 
L 313 1709 
L 2253 4666 
z
" transform="scale(0.015625)"/>
       </defs>
       <use xlink:href="#DejaVuSans-51"/>
       <use xlink:href="#DejaVuSans-34" x="78.710938"/>
      </g>
     </g>
    </g>
    <g id="xtick_5">
     <g id="line2d_5">
      <g>
       <use xlink:href="#mf8551be6ed" x="289.245554" y="318.04" style="stroke: #000000; stroke-width: 0.8"/>
      </g>
     </g>
     <g id="text_5">
      <!-- Q5 -->
      <g transform="translate(282.128366 332.638438) scale(0.1 -0.1)">
       <defs>
        <path id="DejaVuSans-35" d="M 691 4666 
L 3169 4666 
L 3169 4134 
L 1269 4134 
L 1269 2991 
Q 1406 3038 1543 3061 
Q 1681 3084 1819 3084 
Q 2600 3084 3056 2656 
Q 3513 2228 3513 1497 
Q 3513 744 3044 326 
Q 2575 -91 1722 -91 
Q 1428 -91 1123 -41 
Q 819 9 494 109 
L 494 744 
Q 775 591 1075 516 
Q 1375 441 1709 441 
Q 2250 441 2565 725 
Q 2881 1009 2881 1497 
Q 2881 1984 2565 2268 
Q 2250 2553 1709 2553 
Q 1456 2553 1204 2497 
Q 953 2441 691 2322 
L 691 4666 
z
" transform="scale(0.015625)"/>
       </defs>
       <use xlink:href="#DejaVuSans-51"/>
       <use xlink:href="#DejaVuSans-35" x="78.710938"/>
      </g>
     </g>
    </g>
    <g id="xtick_6">
     <g id="line2d_6">
      <g>
       <use xlink:href="#mf8551be6ed" x="343.671007" y="318.04" style="stroke: #000000; stroke-width: 0.8"/>
      </g>
     </g>
     <g id="text_6">
      <!-- Q6 -->
      <g transform="translate(336.55382 332.638438) scale(0.1 -0.1)">
       <defs>
        <path id="DejaVuSans-36" d="M 2113 2584 
Q 1688 2584 1439 2293 
Q 1191 2003 1191 1497 
Q 1191 994 1439 701 
Q 1688 409 2113 409 
Q 2538 409 2786 701 
Q 3034 994 3034 1497 
Q 3034 2003 2786 2293 
Q 2538 2584 2113 2584 
z
M 3366 4563 
L 3366 3988 
Q 3128 4100 2886 4159 
Q 2644 4219 2406 4219 
Q 1781 4219 1451 3797 
Q 1122 3375 1075 2522 
Q 1259 2794 1537 2939 
Q 1816 3084 2150 3084 
Q 2853 3084 3261 2657 
Q 3669 2231 3669 1497 
Q 3669 778 3244 343 
Q 2819 -91 2113 -91 
Q 1303 -91 875 529 
Q 447 1150 447 2328 
Q 447 3434 972 4092 
Q 1497 4750 2381 4750 
Q 2619 4750 2861 4703 
Q 3103 4656 3366 4563 
z
" transform="scale(0.015625)"/>
       </defs>
       <use xlink:href="#DejaVuSans-51"/>
       <use xlink:href="#DejaVuSans-36" x="78.710938"/>
      </g>
     </g>
    </g>
    <g id="text_7">
     <!-- Questão -->
     <g transform="translate(186.737842 346.316563) scale(0.1 -0.1)">
      <defs>
       <path id="DejaVuSans-75" d="M 544 1381 
L 544 3500 
L 1119 3500 
L 1119 1403 
Q 1119 906 1312 657 
Q 1506 409 1894 409 
Q 2359 409 2629 706 
Q 2900 1003 2900 1516 
L 2900 3500 
L 3475 3500 
L 3475 0 
L 2900 0 
L 2900 538 
Q 2691 219 2414 64 
Q 2138 -91 1772 -91 
Q 1169 -91 856 284 
Q 544 659 544 1381 
z
M 1991 3584 
L 1991 3584 
z
" transform="scale(0.015625)"/>
       <path id="DejaVuSans-65" d="M 3597 1894 
L 3597 1613 
L 953 1613 
Q 991 1019 1311 708 
Q 1631 397 2203 397 
Q 2534 397 2845 478 
Q 3156 559 3463 722 
L 3463 178 
Q 3153 47 2828 -22 
Q 2503 -91 2169 -91 
Q 1331 -91 842 396 
Q 353 884 353 1716 
Q 353 2575 817 3079 
Q 1281 3584 2069 3584 
Q 2775 3584 3186 3129 
Q 3597 2675 3597 1894 
z
M 3022 2063 
Q 3016 2534 2758 2815 
Q 2500 3097 2075 3097 
Q 1594 3097 1305 2825 
Q 1016 2553 972 2059 
L 3022 2063 
z
" transform="scale(0.015625)"/>
       <path id="DejaVuSans-73" d="M 2834 3397 
L 2834 2853 
Q 2591 2978 2328 3040 
Q 2066 3103 1784 3103 
Q 1356 3103 1142 2972 
Q 928 2841 928 2578 
Q 928 2378 1081 2264 
Q 1234 2150 1697 2047 
L 1894 2003 
Q 2506 1872 2764 1633 
Q 3022 1394 3022 966 
Q 3022 478 2636 193 
Q 2250 -91 1575 -91 
Q 1294 -91 989 -36 
Q 684 19 347 128 
L 347 722 
Q 666 556 975 473 
Q 1284 391 1588 391 
Q 1994 391 2212 530 
Q 2431 669 2431 922 
Q 2431 1156 2273 1281 
Q 2116 1406 1581 1522 
L 1381 1569 
Q 847 1681 609 1914 
Q 372 2147 372 2553 
Q 372 3047 722 3315 
Q 1072 3584 1716 3584 
Q 2034 3584 2315 3537 
Q 2597 3491 2834 3397 
z
" transform="scale(0.015625)"/>
       <path id="DejaVuSans-74" d="M 1172 4494 
L 1172 3500 
L 2356 3500 
L 2356 3053 
L 1172 3053 
L 1172 1153 
Q 1172 725 1289 603 
Q 1406 481 1766 481 
L 2356 481 
L 2356 0 
L 1766 0 
Q 1100 0 847 248 
Q 594 497 594 1153 
L 594 3053 
L 172 3053 
L 172 3500 
L 594 3500 
L 594 4494 
L 1172 4494 
z
" transform="scale(0.015625)"/>
       <path id="DejaVuSans-e3" d="M 2194 1759 
Q 1497 1759 1228 1600 
Q 959 1441 959 1056 
Q 959 750 1161 570 
Q 1363 391 1709 391 
Q 2188 391 2477 730 
Q 2766 1069 2766 1631 
L 2766 1759 
L 2194 1759 
z
M 3341 1997 
L 3341 0 
L 2766 0 
L 2766 531 
Q 2569 213 2275 61 
Q 1981 -91 1556 -91 
Q 1019 -91 701 211 
Q 384 513 384 1019 
Q 384 1609 779 1909 
Q 1175 2209 1959 2209 
L 2766 2209 
L 2766 2266 
Q 2766 2663 2505 2880 
Q 2244 3097 1772 3097 
Q 1472 3097 1187 3025 
Q 903 2953 641 2809 
L 641 3341 
Q 956 3463 1253 3523 
Q 1550 3584 1831 3584 
Q 2591 3584 2966 3190 
Q 3341 2797 3341 1997 
z
M 1844 4281 
L 1665 4453 
Q 1597 4516 1545 4545 
Q 1494 4575 1453 4575 
Q 1334 4575 1278 4461 
Q 1222 4347 1215 4091 
L 825 4091 
Q 831 4513 990 4742 
Q 1150 4972 1434 4972 
Q 1553 4972 1653 4928 
Q 1753 4884 1869 4781 
L 2047 4609 
Q 2115 4547 2167 4517 
Q 2219 4488 2259 4488 
Q 2378 4488 2434 4602 
Q 2490 4716 2497 4972 
L 2887 4972 
Q 2881 4550 2721 4320 
Q 2562 4091 2278 4091 
Q 2159 4091 2059 4134 
Q 1959 4178 1844 4281 
z
" transform="scale(0.015625)"/>
       <path id="DejaVuSans-6f" d="M 1959 3097 
Q 1497 3097 1228 2736 
Q 959 2375 959 1747 
Q 959 1119 1226 758 
Q 1494 397 1959 397 
Q 2419 397 2687 759 
Q 2956 1122 2956 1747 
Q 2956 2369 2687 2733 
Q 2419 3097 1959 3097 
z
M 1959 3584 
Q 2709 3584 3137 3096 
Q 3566 2609 3566 1747 
Q 3566 888 3137 398 
Q 2709 -91 1959 -91 
Q 1206 -91 779 398 
Q 353 888 353 1747 
Q 353 2609 779 3096 
Q 1206 3584 1959 3584 
z
" transform="scale(0.015625)"/>
      </defs>
      <use xlink:href="#DejaVuSans-51"/>
      <use xlink:href="#DejaVuSans-75" x="78.710938"/>
      <use xlink:href="#DejaVuSans-65" x="142.089844"/>
      <use xlink:href="#DejaVuSans-73" x="203.613281"/>
      <use xlink:href="#DejaVuSans-74" x="255.712891"/>
      <use xlink:href="#DejaVuSans-e3" x="294.921875"/>
      <use xlink:href="#DejaVuSans-6f" x="356.201172"/>
     </g>
    </g>
   </g>
   <g id="matplotlib.axis_2">
    <g id="ytick_1">
     <g id="line2d_7">
      <defs>
       <path id="m596b0c594c" d="M 0 0 
L -3.5 0 
" style="stroke: #000000; stroke-width: 0.8"/>
      </defs>
      <g>
       <use xlink:href="#m596b0c594c" x="44.331011" y="318.04" style="stroke: #000000; stroke-width: 0.8"/>
      </g>
     </g>
     <g id="text_8">
      <!-- 0 -->
      <g transform="translate(30.968511 321.839219) scale(0.1 -0.1)">
       <defs>
        <path id="DejaVuSans-30" d="M 2034 4250 
Q 1547 4250 1301 3770 
Q 1056 3291 1056 2328 
Q 1056 1369 1301 889 
Q 1547 409 2034 409 
Q 2525 409 2770 889 
Q 3016 1369 3016 2328 
Q 3016 3291 2770 3770 
Q 2525 4250 2034 4250 
z
M 2034 4750 
Q 2819 4750 3233 4129 
Q 3647 3509 3647 2328 
Q 3647 1150 3233 529 
Q 2819 -91 2034 -91 
Q 1250 -91 836 529 
Q 422 1150 422 2328 
Q 422 3509 836 4129 
Q 1250 4750 2034 4750 
z
" transform="scale(0.015625)"/>
       </defs>
       <use xlink:href="#DejaVuSans-30"/>
      </g>
     </g>
    </g>
    <g id="ytick_2">
     <g id="line2d_8">
      <g>
       <use xlink:href="#m596b0c594c" x="44.331011" y="276.137143" style="stroke: #000000; stroke-width: 0.8"/>
      </g>
     </g>
     <g id="text_9">
      <!-- 1 -->
      <g transform="translate(30.968511 279.936362) scale(0.1 -0.1)">
       <use xlink:href="#DejaVuSans-31"/>
      </g>
     </g>
    </g>
    <g id="ytick_3">
     <g id="line2d_9">
      <g>
       <use xlink:href="#m596b0c594c" x="44.331011" y="234.234286" style="stroke: #000000; stroke-width: 0.8"/>
      </g>
     </g>
     <g id="text_10">
      <!-- 2 -->
      <g transform="translate(30.968511 238.033504) scale(0.1 -0.1)">
       <use xlink:href="#DejaVuSans-32"/>
      </g>
     </g>
    </g>
    <g id="ytick_4">
     <g id="line2d_10">
      <g>
       <use xlink:href="#m596b0c594c" x="44.331011" y="192.331429" style="stroke: #000000; stroke-width: 0.8"/>
      </g>
     </g>
     <g id="text_11">
      <!-- 3 -->
      <g transform="translate(30.968511 196.130647) scale(0.1 -0.1)">
       <use xlink:href="#DejaVuSans-33"/>
      </g>
     </g>
    </g>
    <g id="ytick_5">
     <g id="line2d_11">
      <g>
       <use xlink:href="#m596b0c594c" x="44.331011" y="150.428571" style="stroke: #000000; stroke-width: 0.8"/>
      </g>
     </g>
     <g id="text_12">
      <!-- 4 -->
      <g transform="translate(30.968511 154.22779) scale(0.1 -0.1)">
       <use xlink:href="#DejaVuSans-34"/>
      </g>
     </g>
    </g>
    <g id="ytick_6">
     <g id="line2d_12">
      <g>
       <use xlink:href="#m596b0c594c" x="44.331011" y="108.525714" style="stroke: #000000; stroke-width: 0.8"/>
      </g>
     </g>
     <g id="text_13">
      <!-- 5 -->
      <g transform="translate(30.968511 112.324933) scale(0.1 -0.1)">
       <use xlink:href="#DejaVuSans-35"/>
      </g>
     </g>
    </g>
    <g id="ytick_7">
     <g id="line2d_13">
      <g>
       <use xlink:href="#m596b0c594c" x="44.331011" y="66.622857" style="stroke: #000000; stroke-width: 0.8"/>
      </g>
     </g>
     <g id="text_14">
      <!-- 6 -->
      <g transform="translate(30.968511 70.422076) scale(0.1 -0.1)">
       <use xlink:href="#DejaVuSans-36"/>
      </g>
     </g>
    </g>
    <g id="ytick_8">
     <g id="line2d_14">
      <g>
       <use xlink:href="#m596b0c594c" x="44.331011" y="24.72" style="stroke: #000000; stroke-width: 0.8"/>
      </g>
     </g>
     <g id="text_15">
      <!-- 7 -->
      <g transform="translate(30.968511 28.519219) scale(0.1 -0.1)">
       <defs>
        <path id="DejaVuSans-37" d="M 525 4666 
L 3525 4666 
L 3525 4397 
L 1831 0 
L 1172 0 
L 2766 4134 
L 525 4134 
L 525 4666 
z
" transform="scale(0.015625)"/>
       </defs>
       <use xlink:href="#DejaVuSans-37"/>
      </g>
     </g>
    </g>
    <g id="text_16">
     <!-- Quantidade de respostas -->
     <g transform="translate(24.888824 234.076094) rotate(-90) scale(0.1 -0.1)">
      <defs>
       <path id="DejaVuSans-61" d="M 2194 1759 
Q 1497 1759 1228 1600 
Q 959 1441 959 1056 
Q 959 750 1161 570 
Q 1363 391 1709 391 
Q 2188 391 2477 730 
Q 2766 1069 2766 1631 
L 2766 1759 
L 2194 1759 
z
M 3341 1997 
L 3341 0 
L 2766 0 
L 2766 531 
Q 2569 213 2275 61 
Q 1981 -91 1556 -91 
Q 1019 -91 701 211 
Q 384 513 384 1019 
Q 384 1609 779 1909 
Q 1175 2209 1959 2209 
L 2766 2209 
L 2766 2266 
Q 2766 2663 2505 2880 
Q 2244 3097 1772 3097 
Q 1472 3097 1187 3025 
Q 903 2953 641 2809 
L 641 3341 
Q 956 3463 1253 3523 
Q 1550 3584 1831 3584 
Q 2591 3584 2966 3190 
Q 3341 2797 3341 1997 
z
" transform="scale(0.015625)"/>
       <path id="DejaVuSans-6e" d="M 3513 2113 
L 3513 0 
L 2938 0 
L 2938 2094 
Q 2938 2591 2744 2837 
Q 2550 3084 2163 3084 
Q 1697 3084 1428 2787 
Q 1159 2491 1159 1978 
L 1159 0 
L 581 0 
L 581 3500 
L 1159 3500 
L 1159 2956 
Q 1366 3272 1645 3428 
Q 1925 3584 2291 3584 
Q 2894 3584 3203 3211 
Q 3513 2838 3513 2113 
z
" transform="scale(0.015625)"/>
       <path id="DejaVuSans-69" d="M 603 3500 
L 1178 3500 
L 1178 0 
L 603 0 
L 603 3500 
z
M 603 4863 
L 1178 4863 
L 1178 4134 
L 603 4134 
L 603 4863 
z
" transform="scale(0.015625)"/>
       <path id="DejaVuSans-64" d="M 2906 2969 
L 2906 4863 
L 3481 4863 
L 3481 0 
L 2906 0 
L 2906 525 
Q 2725 213 2448 61 
Q 2172 -91 1784 -91 
Q 1150 -91 751 415 
Q 353 922 353 1747 
Q 353 2572 751 3078 
Q 1150 3584 1784 3584 
Q 2172 3584 2448 3432 
Q 2725 3281 2906 2969 
z
M 947 1747 
Q 947 1113 1208 752 
Q 1469 391 1925 391 
Q 2381 391 2643 752 
Q 2906 1113 2906 1747 
Q 2906 2381 2643 2742 
Q 2381 3103 1925 3103 
Q 1469 3103 1208 2742 
Q 947 2381 947 1747 
z
" transform="scale(0.015625)"/>
       <path id="DejaVuSans-20" transform="scale(0.015625)"/>
       <path id="DejaVuSans-72" d="M 2631 2963 
Q 2534 3019 2420 3045 
Q 2306 3072 2169 3072 
Q 1681 3072 1420 2755 
Q 1159 2438 1159 1844 
L 1159 0 
L 581 0 
L 581 3500 
L 1159 3500 
L 1159 2956 
Q 1341 3275 1631 3429 
Q 1922 3584 2338 3584 
Q 2397 3584 2469 3576 
Q 2541 3569 2628 3553 
L 2631 2963 
z
" transform="scale(0.015625)"/>
       <path id="DejaVuSans-70" d="M 1159 525 
L 1159 -1331 
L 581 -1331 
L 581 3500 
L 1159 3500 
L 1159 2969 
Q 1341 3281 1617 3432 
Q 1894 3584 2278 3584 
Q 2916 3584 3314 3078 
Q 3713 2572 3713 1747 
Q 3713 922 3314 415 
Q 2916 -91 2278 -91 
Q 1894 -91 1617 61 
Q 1341 213 1159 525 
z
M 3116 1747 
Q 3116 2381 2855 2742 
Q 2594 3103 2138 3103 
Q 1681 3103 1420 2742 
Q 1159 2381 1159 1747 
Q 1159 1113 1420 752 
Q 1681 391 2138 391 
Q 2594 391 2855 752 
Q 3116 1113 3116 1747 
z
" transform="scale(0.015625)"/>
      </defs>
      <use xlink:href="#DejaVuSans-51"/>
      <use xlink:href="#DejaVuSans-75" x="78.710938"/>
      <use xlink:href="#DejaVuSans-61" x="142.089844"/>
      <use xlink:href="#DejaVuSans-6e" x="203.369141"/>
      <use xlink:href="#DejaVuSans-74" x="266.748047"/>
      <use xlink:href="#DejaVuSans-69" x="305.957031"/>
      <use xlink:href="#DejaVuSans-64" x="333.740234"/>
      <use xlink:href="#DejaVuSans-61" x="397.216797"/>
      <use xlink:href="#DejaVuSans-64" x="458.496094"/>
      <use xlink:href="#DejaVuSans-65" x="521.972656"/>
      <use xlink:href="#DejaVuSans-20" x="583.496094"/>
      <use xlink:href="#DejaVuSans-64" x="615.283203"/>
      <use xlink:href="#DejaVuSans-65" x="678.759766"/>
      <use xlink:href="#DejaVuSans-20" x="740.283203"/>
      <use xlink:href="#DejaVuSans-72" x="772.070312"/>
      <use xlink:href="#DejaVuSans-65" x="810.933594"/>
      <use xlink:href="#DejaVuSans-73" x="872.457031"/>
      <use xlink:href="#DejaVuSans-70" x="924.556641"/>
      <use xlink:href="#DejaVuSans-6f" x="988.033203"/>
      <use xlink:href="#DejaVuSans-73" x="1049.214844"/>
      <use xlink:href="#DejaVuSans-74" x="1101.314453"/>
      <use xlink:href="#DejaVuSans-61" x="1140.523438"/>
      <use xlink:href="#DejaVuSans-73" x="1201.802734"/>
     </g>
    </g>
   </g>
   <g id="line2d_15">
    <path d="M 60.658647 129.477143 
L 60.658647 35.195714 
" clip-path="url(#pf19c47597a)" style="fill: none; stroke: #424242; stroke-width: 2.25; stroke-linecap: square"/>
   </g>
   <g id="line2d_16">
    <path d="M 115.084101 129.477143 
L 115.084101 45.671429 
" clip-path="url(#pf19c47597a)" style="fill: none; stroke: #424242; stroke-width: 2.25; stroke-linecap: square"/>
   </g>
   <g id="line2d_17">
    <path d="M 169.509555 129.477143 
L 169.509555 35.195714 
" clip-path="url(#pf19c47597a)" style="fill: none; stroke: #424242; stroke-width: 2.25; stroke-linecap: square"/>
   </g>
   <g id="line2d_18">
    <path d="M 223.935009 129.477143 
L 223.935009 35.195714 
" clip-path="url(#pf19c47597a)" style="fill: none; stroke: #424242; stroke-width: 2.25; stroke-linecap: square"/>
   </g>
   <g id="line2d_19">
    <path d="M 278.360463 129.477143 
L 278.360463 35.195714 
" clip-path="url(#pf19c47597a)" style="fill: none; stroke: #424242; stroke-width: 2.25; stroke-linecap: square"/>
   </g>
   <g id="line2d_20">
    <path d="M 332.785917 119.001429 
L 332.785917 24.72 
" clip-path="url(#pf19c47597a)" style="fill: none; stroke: #424242; stroke-width: 2.25; stroke-linecap: square"/>
   </g>
   <g id="line2d_21">
    <path d="M 82.428829 150.428571 
L 82.428829 24.72 
" clip-path="url(#pf19c47597a)" style="fill: none; stroke: #424242; stroke-width: 2.25; stroke-linecap: square"/>
   </g>
   <g id="line2d_22">
    <path d="M 136.854283 150.428571 
L 136.854283 45.671429 
" clip-path="url(#pf19c47597a)" style="fill: none; stroke: #424242; stroke-width: 2.25; stroke-linecap: square"/>
   </g>
   <g id="line2d_23">
    <path d="M 191.279737 150.428571 
L 191.279737 24.72 
" clip-path="url(#pf19c47597a)" style="fill: none; stroke: #424242; stroke-width: 2.25; stroke-linecap: square"/>
   </g>
   <g id="line2d_24">
    <path d="M 245.70519 150.428571 
L 245.70519 45.671429 
" clip-path="url(#pf19c47597a)" style="fill: none; stroke: #424242; stroke-width: 2.25; stroke-linecap: square"/>
   </g>
   <g id="line2d_25">
    <path d="M 300.130644 150.428571 
L 300.130644 24.72 
" clip-path="url(#pf19c47597a)" style="fill: none; stroke: #424242; stroke-width: 2.25; stroke-linecap: square"/>
   </g>
   <g id="line2d_26">
    <path d="M 354.556098 150.428571 
L 354.556098 24.72 
" clip-path="url(#pf19c47597a)" style="fill: none; stroke: #424242; stroke-width: 2.25; stroke-linecap: square"/>
   </g>
   <g id="patch_15">
    <path d="M 44.331011 318.04 
L 44.331011 24.72 
" style="fill: none; stroke: #000000; stroke-width: 0.8; stroke-linejoin: miter; stroke-linecap: square"/>
   </g>
   <g id="patch_16">
    <path d="M 44.331011 318.04 
L 370.883734 318.04 
" style="fill: none; stroke: #000000; stroke-width: 0.8; stroke-linejoin: miter; stroke-linecap: square"/>
   </g>
   <g id="text_17">
    <!-- teste = Utilidade percebida -->
    <g transform="translate(138.875342 18.72) scale(0.1 -0.1)">
     <defs>
      <path id="DejaVuSans-3d" d="M 678 2906 
L 4684 2906 
L 4684 2381 
L 678 2381 
L 678 2906 
z
M 678 1631 
L 4684 1631 
L 4684 1100 
L 678 1100 
L 678 1631 
z
" transform="scale(0.015625)"/>
      <path id="DejaVuSans-55" d="M 556 4666 
L 1191 4666 
L 1191 1831 
Q 1191 1081 1462 751 
Q 1734 422 2344 422 
Q 2950 422 3222 751 
Q 3494 1081 3494 1831 
L 3494 4666 
L 4128 4666 
L 4128 1753 
Q 4128 841 3676 375 
Q 3225 -91 2344 -91 
Q 1459 -91 1007 375 
Q 556 841 556 1753 
L 556 4666 
z
" transform="scale(0.015625)"/>
      <path id="DejaVuSans-6c" d="M 603 4863 
L 1178 4863 
L 1178 0 
L 603 0 
L 603 4863 
z
" transform="scale(0.015625)"/>
      <path id="DejaVuSans-63" d="M 3122 3366 
L 3122 2828 
Q 2878 2963 2633 3030 
Q 2388 3097 2138 3097 
Q 1578 3097 1268 2742 
Q 959 2388 959 1747 
Q 959 1106 1268 751 
Q 1578 397 2138 397 
Q 2388 397 2633 464 
Q 2878 531 3122 666 
L 3122 134 
Q 2881 22 2623 -34 
Q 2366 -91 2075 -91 
Q 1284 -91 818 406 
Q 353 903 353 1747 
Q 353 2603 823 3093 
Q 1294 3584 2113 3584 
Q 2378 3584 2631 3529 
Q 2884 3475 3122 3366 
z
" transform="scale(0.015625)"/>
      <path id="DejaVuSans-62" d="M 3116 1747 
Q 3116 2381 2855 2742 
Q 2594 3103 2138 3103 
Q 1681 3103 1420 2742 
Q 1159 2381 1159 1747 
Q 1159 1113 1420 752 
Q 1681 391 2138 391 
Q 2594 391 2855 752 
Q 3116 1113 3116 1747 
z
M 1159 2969 
Q 1341 3281 1617 3432 
Q 1894 3584 2278 3584 
Q 2916 3584 3314 3078 
Q 3713 2572 3713 1747 
Q 3713 922 3314 415 
Q 2916 -91 2278 -91 
Q 1894 -91 1617 61 
Q 1341 213 1159 525 
L 1159 0 
L 581 0 
L 581 4863 
L 1159 4863 
L 1159 2969 
z
" transform="scale(0.015625)"/>
     </defs>
     <use xlink:href="#DejaVuSans-74"/>
     <use xlink:href="#DejaVuSans-65" x="39.208984"/>
     <use xlink:href="#DejaVuSans-73" x="100.732422"/>
     <use xlink:href="#DejaVuSans-74" x="152.832031"/>
     <use xlink:href="#DejaVuSans-65" x="192.041016"/>
     <use xlink:href="#DejaVuSans-20" x="253.564453"/>
     <use xlink:href="#DejaVuSans-3d" x="285.351562"/>
     <use xlink:href="#DejaVuSans-20" x="369.140625"/>
     <use xlink:href="#DejaVuSans-55" x="400.927734"/>
     <use xlink:href="#DejaVuSans-74" x="474.121094"/>
     <use xlink:href="#DejaVuSans-69" x="513.330078"/>
     <use xlink:href="#DejaVuSans-6c" x="541.113281"/>
     <use xlink:href="#DejaVuSans-69" x="568.896484"/>
     <use xlink:href="#DejaVuSans-64" x="596.679688"/>
     <use xlink:href="#DejaVuSans-61" x="660.15625"/>
     <use xlink:href="#DejaVuSans-64" x="721.435547"/>
     <use xlink:href="#DejaVuSans-65" x="784.912109"/>
     <use xlink:href="#DejaVuSans-20" x="846.435547"/>
     <use xlink:href="#DejaVuSans-70" x="878.222656"/>
     <use xlink:href="#DejaVuSans-65" x="941.699219"/>
     <use xlink:href="#DejaVuSans-72" x="1003.222656"/>
     <use xlink:href="#DejaVuSans-63" x="1042.085938"/>
     <use xlink:href="#DejaVuSans-65" x="1097.066406"/>
     <use xlink:href="#DejaVuSans-62" x="1158.589844"/>
     <use xlink:href="#DejaVuSans-69" x="1222.066406"/>
     <use xlink:href="#DejaVuSans-64" x="1249.849609"/>
     <use xlink:href="#DejaVuSans-61" x="1313.326172"/>
    </g>
   </g>
  </g>
  <g id="axes_2">
   <g id="patch_17">
    <path d="M 385.106977 318.04 
L 711.6597 318.04 
L 711.6597 24.72 
L 385.106977 24.72 
z
" style="fill: #ffffff"/>
   </g>
   <g id="patch_18">
    <path d="M 390.549522 318.04 
L 412.319704 318.04 
L 412.319704 56.147143 
L 390.549522 56.147143 
z
" clip-path="url(#p798ba97fcc)" style="fill: #3274a1"/>
   </g>
   <g id="patch_19">
    <path d="M 444.974976 318.04 
L 466.745158 318.04 
L 466.745158 77.098571 
L 444.974976 77.098571 
z
" clip-path="url(#p798ba97fcc)" style="fill: #3274a1"/>
   </g>
   <g id="patch_20">
    <path d="M 499.40043 318.04 
L 521.170612 318.04 
L 521.170612 77.098571 
L 499.40043 77.098571 
z
" clip-path="url(#p798ba97fcc)" style="fill: #3274a1"/>
   </g>
   <g id="patch_21">
    <path d="M 553.825884 318.04 
L 575.596065 318.04 
L 575.596065 66.622857 
L 553.825884 66.622857 
z
" clip-path="url(#p798ba97fcc)" style="fill: #3274a1"/>
   </g>
   <g id="patch_22">
    <path d="M 608.251338 318.04 
L 630.021519 318.04 
L 630.021519 56.147143 
L 608.251338 56.147143 
z
" clip-path="url(#p798ba97fcc)" style="fill: #3274a1"/>
   </g>
   <g id="patch_23">
    <path d="M 662.676792 318.04 
L 684.446973 318.04 
L 684.446973 77.098571 
L 662.676792 77.098571 
z
" clip-path="url(#p798ba97fcc)" style="fill: #3274a1"/>
   </g>
   <g id="patch_24">
    <path d="M 412.319704 318.04 
L 434.089885 318.04 
L 434.089885 87.574286 
L 412.319704 87.574286 
z
" clip-path="url(#p798ba97fcc)" style="fill: #e1812c"/>
   </g>
   <g id="patch_25">
    <path d="M 466.745158 318.04 
L 488.515339 318.04 
L 488.515339 119.001429 
L 466.745158 119.001429 
z
" clip-path="url(#p798ba97fcc)" style="fill: #e1812c"/>
   </g>
   <g id="patch_26">
    <path d="M 521.170612 318.04 
L 542.940793 318.04 
L 542.940793 87.574286 
L 521.170612 87.574286 
z
" clip-path="url(#p798ba97fcc)" style="fill: #e1812c"/>
   </g>
   <g id="patch_27">
    <path d="M 575.596065 318.04 
L 597.366247 318.04 
L 597.366247 108.525714 
L 575.596065 108.525714 
z
" clip-path="url(#p798ba97fcc)" style="fill: #e1812c"/>
   </g>
   <g id="patch_28">
    <path d="M 630.021519 318.04 
L 651.791701 318.04 
L 651.791701 87.574286 
L 630.021519 87.574286 
z
" clip-path="url(#p798ba97fcc)" style="fill: #e1812c"/>
   </g>
   <g id="patch_29">
    <path d="M 684.446973 318.04 
L 706.217155 318.04 
L 706.217155 87.574286 
L 684.446973 87.574286 
z
" clip-path="url(#p798ba97fcc)" style="fill: #e1812c"/>
   </g>
   <g id="patch_30">
    <path d="M 412.319704 318.04 
L 412.319704 318.04 
L 412.319704 318.04 
L 412.319704 318.04 
z
" clip-path="url(#p798ba97fcc)" style="fill: #3274a1"/>
   </g>
   <g id="patch_31">
    <path d="M 412.319704 318.04 
L 412.319704 318.04 
L 412.319704 318.04 
L 412.319704 318.04 
z
" clip-path="url(#p798ba97fcc)" style="fill: #e1812c"/>
   </g>
   <g id="matplotlib.axis_3">
    <g id="xtick_7">
     <g id="line2d_27">
      <g>
       <use xlink:href="#mf8551be6ed" x="412.319704" y="318.04" style="stroke: #000000; stroke-width: 0.8"/>
      </g>
     </g>
     <g id="text_18">
      <!-- Q1 -->
      <g transform="translate(405.202516 332.638438) scale(0.1 -0.1)">
       <use xlink:href="#DejaVuSans-51"/>
       <use xlink:href="#DejaVuSans-31" x="78.710938"/>
      </g>
     </g>
    </g>
    <g id="xtick_8">
     <g id="line2d_28">
      <g>
       <use xlink:href="#mf8551be6ed" x="466.745158" y="318.04" style="stroke: #000000; stroke-width: 0.8"/>
      </g>
     </g>
     <g id="text_19">
      <!-- Q2 -->
      <g transform="translate(459.62797 332.638438) scale(0.1 -0.1)">
       <use xlink:href="#DejaVuSans-51"/>
       <use xlink:href="#DejaVuSans-32" x="78.710938"/>
      </g>
     </g>
    </g>
    <g id="xtick_9">
     <g id="line2d_29">
      <g>
       <use xlink:href="#mf8551be6ed" x="521.170612" y="318.04" style="stroke: #000000; stroke-width: 0.8"/>
      </g>
     </g>
     <g id="text_20">
      <!-- Q3 -->
      <g transform="translate(514.053424 332.638438) scale(0.1 -0.1)">
       <use xlink:href="#DejaVuSans-51"/>
       <use xlink:href="#DejaVuSans-33" x="78.710938"/>
      </g>
     </g>
    </g>
    <g id="xtick_10">
     <g id="line2d_30">
      <g>
       <use xlink:href="#mf8551be6ed" x="575.596065" y="318.04" style="stroke: #000000; stroke-width: 0.8"/>
      </g>
     </g>
     <g id="text_21">
      <!-- Q4 -->
      <g transform="translate(568.478878 332.638438) scale(0.1 -0.1)">
       <use xlink:href="#DejaVuSans-51"/>
       <use xlink:href="#DejaVuSans-34" x="78.710938"/>
      </g>
     </g>
    </g>
    <g id="xtick_11">
     <g id="line2d_31">
      <g>
       <use xlink:href="#mf8551be6ed" x="630.021519" y="318.04" style="stroke: #000000; stroke-width: 0.8"/>
      </g>
     </g>
     <g id="text_22">
      <!-- Q5 -->
      <g transform="translate(622.904332 332.638438) scale(0.1 -0.1)">
       <use xlink:href="#DejaVuSans-51"/>
       <use xlink:href="#DejaVuSans-35" x="78.710938"/>
      </g>
     </g>
    </g>
    <g id="xtick_12">
     <g id="line2d_32">
      <g>
       <use xlink:href="#mf8551be6ed" x="684.446973" y="318.04" style="stroke: #000000; stroke-width: 0.8"/>
      </g>
     </g>
     <g id="text_23">
      <!-- Q6 -->
      <g transform="translate(677.329786 332.638438) scale(0.1 -0.1)">
       <use xlink:href="#DejaVuSans-51"/>
       <use xlink:href="#DejaVuSans-36" x="78.710938"/>
      </g>
     </g>
    </g>
    <g id="text_24">
     <!-- Questão -->
     <g transform="translate(527.513807 346.316563) scale(0.1 -0.1)">
      <use xlink:href="#DejaVuSans-51"/>
      <use xlink:href="#DejaVuSans-75" x="78.710938"/>
      <use xlink:href="#DejaVuSans-65" x="142.089844"/>
      <use xlink:href="#DejaVuSans-73" x="203.613281"/>
      <use xlink:href="#DejaVuSans-74" x="255.712891"/>
      <use xlink:href="#DejaVuSans-e3" x="294.921875"/>
      <use xlink:href="#DejaVuSans-6f" x="356.201172"/>
     </g>
    </g>
   </g>
   <g id="matplotlib.axis_4">
    <g id="ytick_9">
     <g id="line2d_33">
      <g>
       <use xlink:href="#m596b0c594c" x="385.106977" y="318.04" style="stroke: #000000; stroke-width: 0.8"/>
      </g>
     </g>
    </g>
    <g id="ytick_10">
     <g id="line2d_34">
      <g>
       <use xlink:href="#m596b0c594c" x="385.106977" y="276.137143" style="stroke: #000000; stroke-width: 0.8"/>
      </g>
     </g>
    </g>
    <g id="ytick_11">
     <g id="line2d_35">
      <g>
       <use xlink:href="#m596b0c594c" x="385.106977" y="234.234286" style="stroke: #000000; stroke-width: 0.8"/>
      </g>
     </g>
    </g>
    <g id="ytick_12">
     <g id="line2d_36">
      <g>
       <use xlink:href="#m596b0c594c" x="385.106977" y="192.331429" style="stroke: #000000; stroke-width: 0.8"/>
      </g>
     </g>
    </g>
    <g id="ytick_13">
     <g id="line2d_37">
      <g>
       <use xlink:href="#m596b0c594c" x="385.106977" y="150.428571" style="stroke: #000000; stroke-width: 0.8"/>
      </g>
     </g>
    </g>
    <g id="ytick_14">
     <g id="line2d_38">
      <g>
       <use xlink:href="#m596b0c594c" x="385.106977" y="108.525714" style="stroke: #000000; stroke-width: 0.8"/>
      </g>
     </g>
    </g>
    <g id="ytick_15">
     <g id="line2d_39">
      <g>
       <use xlink:href="#m596b0c594c" x="385.106977" y="66.622857" style="stroke: #000000; stroke-width: 0.8"/>
      </g>
     </g>
    </g>
    <g id="ytick_16">
     <g id="line2d_40">
      <g>
       <use xlink:href="#m596b0c594c" x="385.106977" y="24.72" style="stroke: #000000; stroke-width: 0.8"/>
      </g>
     </g>
    </g>
   </g>
   <g id="line2d_41">
    <path d="M 401.434613 119.001429 
L 401.434613 24.72 
" clip-path="url(#p798ba97fcc)" style="fill: none; stroke: #424242; stroke-width: 2.25; stroke-linecap: square"/>
   </g>
   <g id="line2d_42">
    <path d="M 455.860067 129.477143 
L 455.860067 35.195714 
" clip-path="url(#p798ba97fcc)" style="fill: none; stroke: #424242; stroke-width: 2.25; stroke-linecap: square"/>
   </g>
   <g id="line2d_43">
    <path d="M 510.285521 119.001429 
L 510.285521 35.195714 
" clip-path="url(#p798ba97fcc)" style="fill: none; stroke: #424242; stroke-width: 2.25; stroke-linecap: square"/>
   </g>
   <g id="line2d_44">
    <path d="M 564.710975 119.001429 
L 564.710975 24.72 
" clip-path="url(#p798ba97fcc)" style="fill: none; stroke: #424242; stroke-width: 2.25; stroke-linecap: square"/>
   </g>
   <g id="line2d_45">
    <path d="M 619.136428 119.001429 
L 619.136428 24.72 
" clip-path="url(#p798ba97fcc)" style="fill: none; stroke: #424242; stroke-width: 2.25; stroke-linecap: square"/>
   </g>
   <g id="line2d_46">
    <path d="M 673.561882 129.477143 
L 673.561882 35.195714 
" clip-path="url(#p798ba97fcc)" style="fill: none; stroke: #424242; stroke-width: 2.25; stroke-linecap: square"/>
   </g>
   <g id="line2d_47">
    <path d="M 423.204795 150.428571 
L 423.204795 24.72 
" clip-path="url(#p798ba97fcc)" style="fill: none; stroke: #424242; stroke-width: 2.25; stroke-linecap: square"/>
   </g>
   <g id="line2d_48">
    <path d="M 477.630249 150.428571 
L 477.630249 77.098571 
" clip-path="url(#p798ba97fcc)" style="fill: none; stroke: #424242; stroke-width: 2.25; stroke-linecap: square"/>
   </g>
   <g id="line2d_49">
    <path d="M 532.055702 150.428571 
L 532.055702 24.72 
" clip-path="url(#p798ba97fcc)" style="fill: none; stroke: #424242; stroke-width: 2.25; stroke-linecap: square"/>
   </g>
   <g id="line2d_50">
    <path d="M 586.481156 150.428571 
L 586.481156 56.147143 
" clip-path="url(#p798ba97fcc)" style="fill: none; stroke: #424242; stroke-width: 2.25; stroke-linecap: square"/>
   </g>
   <g id="line2d_51">
    <path d="M 640.90661 150.428571 
L 640.90661 24.72 
" clip-path="url(#p798ba97fcc)" style="fill: none; stroke: #424242; stroke-width: 2.25; stroke-linecap: square"/>
   </g>
   <g id="line2d_52">
    <path d="M 695.332064 150.428571 
L 695.332064 24.72 
" clip-path="url(#p798ba97fcc)" style="fill: none; stroke: #424242; stroke-width: 2.25; stroke-linecap: square"/>
   </g>
   <g id="patch_32">
    <path d="M 385.106977 318.04 
L 385.106977 24.72 
" style="fill: none; stroke: #000000; stroke-width: 0.8; stroke-linejoin: miter; stroke-linecap: square"/>
   </g>
   <g id="patch_33">
    <path d="M 385.106977 318.04 
L 711.6597 318.04 
" style="fill: none; stroke: #000000; stroke-width: 0.8; stroke-linejoin: miter; stroke-linecap: square"/>
   </g>
   <g id="text_25">
    <!-- teste = Facilidade percebida -->
    <g transform="translate(477.038026 18.72) scale(0.1 -0.1)">
     <defs>
      <path id="DejaVuSans-46" d="M 628 4666 
L 3309 4666 
L 3309 4134 
L 1259 4134 
L 1259 2759 
L 3109 2759 
L 3109 2228 
L 1259 2228 
L 1259 0 
L 628 0 
L 628 4666 
z
" transform="scale(0.015625)"/>
     </defs>
     <use xlink:href="#DejaVuSans-74"/>
     <use xlink:href="#DejaVuSans-65" x="39.208984"/>
     <use xlink:href="#DejaVuSans-73" x="100.732422"/>
     <use xlink:href="#DejaVuSans-74" x="152.832031"/>
     <use xlink:href="#DejaVuSans-65" x="192.041016"/>
     <use xlink:href="#DejaVuSans-20" x="253.564453"/>
     <use xlink:href="#DejaVuSans-3d" x="285.351562"/>
     <use xlink:href="#DejaVuSans-20" x="369.140625"/>
     <use xlink:href="#DejaVuSans-46" x="400.927734"/>
     <use xlink:href="#DejaVuSans-61" x="449.322266"/>
     <use xlink:href="#DejaVuSans-63" x="510.601562"/>
     <use xlink:href="#DejaVuSans-69" x="565.582031"/>
     <use xlink:href="#DejaVuSans-6c" x="593.365234"/>
     <use xlink:href="#DejaVuSans-69" x="621.148438"/>
     <use xlink:href="#DejaVuSans-64" x="648.931641"/>
     <use xlink:href="#DejaVuSans-61" x="712.408203"/>
     <use xlink:href="#DejaVuSans-64" x="773.6875"/>
     <use xlink:href="#DejaVuSans-65" x="837.164062"/>
     <use xlink:href="#DejaVuSans-20" x="898.6875"/>
     <use xlink:href="#DejaVuSans-70" x="930.474609"/>
     <use xlink:href="#DejaVuSans-65" x="993.951172"/>
     <use xlink:href="#DejaVuSans-72" x="1055.474609"/>
     <use xlink:href="#DejaVuSans-63" x="1094.337891"/>
     <use xlink:href="#DejaVuSans-65" x="1149.318359"/>
     <use xlink:href="#DejaVuSans-62" x="1210.841797"/>
     <use xlink:href="#DejaVuSans-69" x="1274.318359"/>
     <use xlink:href="#DejaVuSans-64" x="1302.101562"/>
     <use xlink:href="#DejaVuSans-61" x="1365.578125"/>
    </g>
   </g>
  </g>
  <g id="legend_1">
   <g id="text_26">
    <!-- framework -->
    <g transform="translate(745.210469 168.08125) scale(0.1 -0.1)">
     <defs>
      <path id="DejaVuSans-66" d="M 2375 4863 
L 2375 4384 
L 1825 4384 
Q 1516 4384 1395 4259 
Q 1275 4134 1275 3809 
L 1275 3500 
L 2222 3500 
L 2222 3053 
L 1275 3053 
L 1275 0 
L 697 0 
L 697 3053 
L 147 3053 
L 147 3500 
L 697 3500 
L 697 3744 
Q 697 4328 969 4595 
Q 1241 4863 1831 4863 
L 2375 4863 
z
" transform="scale(0.015625)"/>
      <path id="DejaVuSans-6d" d="M 3328 2828 
Q 3544 3216 3844 3400 
Q 4144 3584 4550 3584 
Q 5097 3584 5394 3201 
Q 5691 2819 5691 2113 
L 5691 0 
L 5113 0 
L 5113 2094 
Q 5113 2597 4934 2840 
Q 4756 3084 4391 3084 
Q 3944 3084 3684 2787 
Q 3425 2491 3425 1978 
L 3425 0 
L 2847 0 
L 2847 2094 
Q 2847 2600 2669 2842 
Q 2491 3084 2119 3084 
Q 1678 3084 1418 2786 
Q 1159 2488 1159 1978 
L 1159 0 
L 581 0 
L 581 3500 
L 1159 3500 
L 1159 2956 
Q 1356 3278 1631 3431 
Q 1906 3584 2284 3584 
Q 2666 3584 2933 3390 
Q 3200 3197 3328 2828 
z
" transform="scale(0.015625)"/>
      <path id="DejaVuSans-77" d="M 269 3500 
L 844 3500 
L 1563 769 
L 2278 3500 
L 2956 3500 
L 3675 769 
L 4391 3500 
L 4966 3500 
L 4050 0 
L 3372 0 
L 2619 2869 
L 1863 0 
L 1184 0 
L 269 3500 
z
" transform="scale(0.015625)"/>
      <path id="DejaVuSans-6b" d="M 581 4863 
L 1159 4863 
L 1159 1991 
L 2875 3500 
L 3609 3500 
L 1753 1863 
L 3688 0 
L 2938 0 
L 1159 1709 
L 1159 0 
L 581 0 
L 581 4863 
z
" transform="scale(0.015625)"/>
     </defs>
     <use xlink:href="#DejaVuSans-66"/>
     <use xlink:href="#DejaVuSans-72" x="35.205078"/>
     <use xlink:href="#DejaVuSans-61" x="76.318359"/>
     <use xlink:href="#DejaVuSans-6d" x="137.597656"/>
     <use xlink:href="#DejaVuSans-65" x="235.009766"/>
     <use xlink:href="#DejaVuSans-77" x="296.533203"/>
     <use xlink:href="#DejaVuSans-6f" x="378.320312"/>
     <use xlink:href="#DejaVuSans-72" x="439.501953"/>
     <use xlink:href="#DejaVuSans-6b" x="480.615234"/>
    </g>
   </g>
   <g id="patch_34">
    <path d="M 719.2425 182.759375 
L 739.2425 182.759375 
L 739.2425 175.759375 
L 719.2425 175.759375 
z
" style="fill: #3274a1"/>
   </g>
   <g id="text_27">
    <!-- Airflow + Spark -->
    <g transform="translate(747.2425 182.759375) scale(0.1 -0.1)">
     <defs>
      <path id="DejaVuSans-41" d="M 2188 4044 
L 1331 1722 
L 3047 1722 
L 2188 4044 
z
M 1831 4666 
L 2547 4666 
L 4325 0 
L 3669 0 
L 3244 1197 
L 1141 1197 
L 716 0 
L 50 0 
L 1831 4666 
z
" transform="scale(0.015625)"/>
      <path id="DejaVuSans-2b" d="M 2944 4013 
L 2944 2272 
L 4684 2272 
L 4684 1741 
L 2944 1741 
L 2944 0 
L 2419 0 
L 2419 1741 
L 678 1741 
L 678 2272 
L 2419 2272 
L 2419 4013 
L 2944 4013 
z
" transform="scale(0.015625)"/>
      <path id="DejaVuSans-53" d="M 3425 4513 
L 3425 3897 
Q 3066 4069 2747 4153 
Q 2428 4238 2131 4238 
Q 1616 4238 1336 4038 
Q 1056 3838 1056 3469 
Q 1056 3159 1242 3001 
Q 1428 2844 1947 2747 
L 2328 2669 
Q 3034 2534 3370 2195 
Q 3706 1856 3706 1288 
Q 3706 609 3251 259 
Q 2797 -91 1919 -91 
Q 1588 -91 1214 -16 
Q 841 59 441 206 
L 441 856 
Q 825 641 1194 531 
Q 1563 422 1919 422 
Q 2459 422 2753 634 
Q 3047 847 3047 1241 
Q 3047 1584 2836 1778 
Q 2625 1972 2144 2069 
L 1759 2144 
Q 1053 2284 737 2584 
Q 422 2884 422 3419 
Q 422 4038 858 4394 
Q 1294 4750 2059 4750 
Q 2388 4750 2728 4690 
Q 3069 4631 3425 4513 
z
" transform="scale(0.015625)"/>
     </defs>
     <use xlink:href="#DejaVuSans-41"/>
     <use xlink:href="#DejaVuSans-69" x="68.408203"/>
     <use xlink:href="#DejaVuSans-72" x="96.191406"/>
     <use xlink:href="#DejaVuSans-66" x="137.304688"/>
     <use xlink:href="#DejaVuSans-6c" x="172.509766"/>
     <use xlink:href="#DejaVuSans-6f" x="200.292969"/>
     <use xlink:href="#DejaVuSans-77" x="261.474609"/>
     <use xlink:href="#DejaVuSans-20" x="343.261719"/>
     <use xlink:href="#DejaVuSans-2b" x="375.048828"/>
     <use xlink:href="#DejaVuSans-20" x="458.837891"/>
     <use xlink:href="#DejaVuSans-53" x="490.625"/>
     <use xlink:href="#DejaVuSans-70" x="554.101562"/>
     <use xlink:href="#DejaVuSans-61" x="617.578125"/>
     <use xlink:href="#DejaVuSans-72" x="678.857422"/>
     <use xlink:href="#DejaVuSans-6b" x="719.970703"/>
    </g>
   </g>
   <g id="patch_35">
    <path d="M 719.2425 197.4375 
L 739.2425 197.4375 
L 739.2425 190.4375 
L 719.2425 190.4375 
z
" style="fill: #e1812c"/>
   </g>
   <g id="text_28">
    <!-- Airbyte -->
    <g transform="translate(747.2425 197.4375) scale(0.1 -0.1)">
     <defs>
      <path id="DejaVuSans-79" d="M 2059 -325 
Q 1816 -950 1584 -1140 
Q 1353 -1331 966 -1331 
L 506 -1331 
L 506 -850 
L 844 -850 
Q 1081 -850 1212 -737 
Q 1344 -625 1503 -206 
L 1606 56 
L 191 3500 
L 800 3500 
L 1894 763 
L 2988 3500 
L 3597 3500 
L 2059 -325 
z
" transform="scale(0.015625)"/>
     </defs>
     <use xlink:href="#DejaVuSans-41"/>
     <use xlink:href="#DejaVuSans-69" x="68.408203"/>
     <use xlink:href="#DejaVuSans-72" x="96.191406"/>
     <use xlink:href="#DejaVuSans-62" x="137.304688"/>
     <use xlink:href="#DejaVuSans-79" x="200.78125"/>
     <use xlink:href="#DejaVuSans-74" x="259.960938"/>
     <use xlink:href="#DejaVuSans-65" x="299.169922"/>
    </g>
   </g>
  </g>
 </g>
 <defs>
  <clipPath id="pf19c47597a">
   <rect x="44.331011" y="24.72" width="326.552723" height="293.32"/>
  </clipPath>
  <clipPath id="p798ba97fcc">
   <rect x="385.106977" y="24.72" width="326.552723" height="293.32"/>
  </clipPath>
 </defs>
</svg>
