<?xml version="1.0" encoding="utf-8"?>
<!-- Generator: Adobe Illustrator 26.5.0, SVG Export Plug-In . SVG Version: 6.00 Build 0)  -->
<svg version="1.1" id="Layer_1" xmlns="http://www.w3.org/2000/svg" xmlns:xlink="http://www.w3.org/1999/xlink" x="0px" y="0px"
	 viewBox="0 0 2016 135" style="enable-background:new 0 0 2016 135;" xml:space="preserve">
<style type="text/css">
	.st0{fill:#40466E;stroke:#FFFFFF;}
	.st1{fill:#FFFFFF;}
	.st2{fill:#FFFFFF;stroke:#FFFFFF;}
	.st3{fill:#F1F1F2;stroke:#FFFFFF;}
</style>
<g id="axes_1">
	<g id="table_1">
		<g id="patch_2">
			<path class="st0" d="M252,50.8h223.2V16.2H252V50.8z"/>
		</g>
		<g id="text_1">
			<g transform="translate(316.208906 37.388125) scale(0.14 -0.14)">
				<g>
					<path id="DejaVuSans-Bold-44" class="st1" d="M28,58.7V14.2h6.7c7.7,0,13.5,1.9,17.6,5.7c4.1,3.8,6.1,9.3,6.1,16.6
						c0,7.2-2,12.7-6.1,16.5c-4,3.8-9.9,5.7-17.6,5.7H28z M9.2,72.9H29c11.1,0,19.3-0.8,24.7-2.4c5.4-1.6,10.1-4.2,13.9-8
						c3.4-3.3,6-7.1,7.6-11.4c1.7-4.3,2.5-9.2,2.5-14.6c0-5.5-0.8-10.4-2.5-14.7c-1.7-4.3-4.2-8.1-7.6-11.4c-3.9-3.8-8.6-6.5-14.1-8
						C48.1,0.8,39.9,0,29,0H9.2V72.9z"/>
				</g>
				<g>
					<path id="DejaVuSans-Bold-45" class="st1" d="M92.2,72.9h50.7V58.7H111V45.1h30V30.9h-30V14.2h33V0H92.2V72.9z"/>
				</g>
				<g>
					<path id="DejaVuSans-Bold-53" class="st1" d="M211.2,70.6V55.2c-4,1.8-7.9,3.1-11.7,4c-3.8,0.9-7.4,1.4-10.8,1.4
						c-4.5,0-7.8-0.6-10-1.9c-2.1-1.2-3.2-3.1-3.2-5.8c0-2,0.7-3.5,2.2-4.6c1.4-1.1,4.1-2,7.9-2.8l8-1.6c8.1-1.6,13.9-4.1,17.3-7.4
						c3.4-3.3,5.1-8,5.1-14.2c0-8-2.4-14-7.2-17.9S196.8-1.4,187-1.4c-4.6,0-9.2,0.4-13.9,1.3c-4.7,0.9-9.3,2.2-14,3.9v15.9
						c4.7-2.5,9.2-4.3,13.5-5.6c4.3-1.2,8.5-1.9,12.6-1.9c4.1,0,7.2,0.7,9.4,2c2.2,1.4,3.3,3.3,3.3,5.9c0,2.3-0.7,4-2.2,5.3
						s-4.4,2.3-8.9,3.3l-7.3,1.6c-7.3,1.6-12.6,4.1-16,7.5c-3.4,3.4-5,8-5,13.8c0,7.3,2.3,12.8,7,16.8s11.4,5.9,20.2,5.9
						c4,0,8.1-0.3,12.4-0.9S206.7,71.8,211.2,70.6z"/>
				</g>
				<g>
					<path id="DejaVuSans-Bold-43" class="st1" d="M290.3,4c-3.5-1.8-7.1-3.1-10.8-4c-3.7-0.9-7.6-1.4-11.7-1.4
						C255.7-1.4,246.1,2,239,8.8s-10.6,16-10.6,27.6c0,11.7,3.5,20.9,10.6,27.7c7.1,6.8,16.7,10.2,28.9,10.2c4.1,0,8-0.5,11.7-1.4
						c3.7-0.9,7.3-2.3,10.8-4V53.7c-3.5,2.4-6.9,4.1-10.3,5.2s-6.9,1.7-10.7,1.7c-6.7,0-12-2.2-15.8-6.5c-3.8-4.3-5.8-10.2-5.8-17.8
						c0-7.5,1.9-13.4,5.8-17.7c3.8-4.3,9.1-6.4,15.8-6.4c3.7,0,7.3,0.6,10.7,1.7c3.4,1.1,6.8,2.9,10.3,5.2V4z"/>
				</g>
				<g>
					<path id="DejaVuSans-Bold-52" class="st1" d="M332.6,40.6c3.9,0,6.8,0.7,8.5,2.2c1.7,1.5,2.6,3.9,2.6,7.2
						c0,3.3-0.9,5.7-2.6,7.1c-1.7,1.4-4.5,2.2-8.5,2.2h-7.9V40.6H332.6z M324.7,27.6V0h-18.8v72.9h28.7c9.6,0,16.6-1.6,21.1-4.8
						c4.5-3.2,6.7-8.3,6.7-15.3c0-4.8-1.2-8.8-3.5-11.9c-2.3-3.1-5.8-5.4-10.5-6.8c2.6-0.6,4.9-1.9,6.9-4c2-2.1,4.1-5.2,6.2-9.4
						L371.7,0h-20l-8.9,18.1c-1.8,3.6-3.6,6.1-5.5,7.5c-1.8,1.3-4.3,2-7.3,2H324.7z"/>
				</g>
				<g>
					<path id="DejaVuSans-Bold-49" class="st1" d="M382.9,72.9h18.8V0h-18.8V72.9z"/>
				</g>
				<g>
					<path id="DejaVuSans-Bold-54" class="st1" d="M411.4,72.9h67.2V58.7h-24.2V0h-18.8v58.7h-24.2V72.9z"/>
				</g>
				<g>
					<path id="DejaVuSans-Bold-49_00000052076037701542881040000017530013246756217767_" class="st1" d="M488.3,72.9h18.8V0h-18.8
						V72.9z"/>
				</g>
				<g>
					<path id="DejaVuSans-Bold-56" class="st1" d="M516.8,72.9h18.9l19.3-53.8l19.3,53.8h18.9L566.3,0h-22.4L516.8,72.9z"/>
				</g>
				<g>
					<path id="DejaVuSans-Bold-4f" class="st1" d="M634.5,60.6c-5.7,0-10.2-2.1-13.3-6.3s-4.7-10.2-4.7-17.9
						c0-7.6,1.6-13.6,4.7-17.8c3.2-4.2,7.6-6.3,13.3-6.3c5.8,0,10.2,2.1,13.4,6.3c3.2,4.2,4.7,10.2,4.7,17.8
						c0,7.7-1.6,13.6-4.7,17.9S640.2,60.6,634.5,60.6z M634.5,74.2c11.7,0,20.9-3.4,27.5-10.1c6.6-6.7,10-16,10-27.8
						c0-11.8-3.3-21-10-27.7c-6.6-6.7-15.8-10.1-27.5-10.1c-11.7,0-20.9,3.4-27.5,10.1s-10,16-10,27.7c0,11.8,3.3,21.1,10,27.8
						C613.6,70.9,622.8,74.2,634.5,74.2z"/>
				</g>
			</g>
		</g>
		<g id="patch_3">
			<path class="st0" d="M475.2,50.8h223.2V16.2H475.2V50.8z"/>
		</g>
		<g id="text_2">
			<g transform="translate(496.312969 37.069844) scale(0.14 -0.14)">
				<g>
					<path id="DejaVuSans-Bold-45_00000117634606869065042010000004638143933659484093_" class="st1" d="M9.2,72.9h50.7V58.7H28
						V45.1h30V30.9H28V14.2h33V0H9.2V72.9z"/>
				</g>
				<g>
					<path id="DejaVuSans-Bold-54_00000089535385729970855880000010764772067155709325_" class="st1" d="M68.8,72.9H136V58.7h-24.2
						V0H93v58.7H68.8V72.9z"/>
				</g>
				<g>
					<path id="DejaVuSans-Bold-4c" class="st1" d="M145.7,72.9h18.8V14.2h33V0h-51.8V72.9z"/>
				</g>
				<g>
					<path id="DejaVuSans-Bold-5f" class="st1" d="M250.2-14.3v-9.3h-50v9.3H250.2z"/>
				</g>
				<g>
					<path id="DejaVuSans-Bold-41" class="st1" d="M303.7,13.3h-29.4L269.6,0h-18.9l27,72.9h22.4l27-72.9h-18.9L303.7,13.3z
						 M279,26.8h20l-10,29L279,26.8z"/>
				</g>
				<g>
					<path id="DejaVuSans-Bold-49_00000098210201156837677240000008292847195851555461_" class="st1" d="M336.8,72.9h18.8V0h-18.8
						V72.9z"/>
				</g>
				<g>
					<path id="DejaVuSans-Bold-52_00000112624687365676482990000009266711239666211208_" class="st1" d="M400.7,40.6
						c3.9,0,6.8,0.7,8.5,2.2c1.7,1.5,2.6,3.9,2.6,7.2c0,3.3-0.9,5.7-2.6,7.1c-1.7,1.4-4.5,2.2-8.5,2.2h-7.9V40.6H400.7z M392.8,27.6
						V0H374v72.9h28.7c9.6,0,16.6-1.6,21.1-4.8c4.5-3.2,6.7-8.3,6.7-15.3c0-4.8-1.2-8.8-3.5-11.9c-2.3-3.1-5.8-5.4-10.5-6.8
						c2.6-0.6,4.9-1.9,6.9-4c2-2.1,4.1-5.2,6.2-9.4L439.8,0h-20l-8.9,18.1c-1.8,3.6-3.6,6.1-5.5,7.5c-1.8,1.3-4.3,2-7.3,2H392.8z"/>
				</g>
				<g>
					<path id="DejaVuSans-Bold-46" class="st1" d="M451,72.9h50.7V58.7h-31.9V45.1h30V30.9h-30V0H451V72.9z"/>
				</g>
				<g>
					<path id="DejaVuSans-Bold-4c_00000133491280430364527010000013658222699570015137_" class="st1" d="M519.3,72.9h18.8V14.2h33V0
						h-51.8V72.9z"/>
				</g>
				<g>
					<path id="DejaVuSans-Bold-4f_00000119094369340752224170000004714064057295389374_" class="st1" d="M612.7,60.6
						c-5.7,0-10.2-2.1-13.3-6.3s-4.7-10.2-4.7-17.9c0-7.6,1.6-13.6,4.7-17.8c3.2-4.2,7.6-6.3,13.3-6.3c5.8,0,10.2,2.1,13.4,6.3
						c3.2,4.2,4.7,10.2,4.7,17.8c0,7.7-1.6,13.6-4.7,17.9S618.5,60.6,612.7,60.6z M612.7,74.2c11.7,0,20.9-3.4,27.5-10.1
						c6.6-6.7,10-16,10-27.8c0-11.8-3.3-21-10-27.7c-6.6-6.7-15.8-10.1-27.5-10.1c-11.7,0-20.9,3.4-27.5,10.1s-10,16-10,27.7
						c0,11.8,3.3,21.1,10,27.8C591.9,70.9,601,74.2,612.7,74.2z"/>
				</g>
				<g>
					<path id="DejaVuSans-Bold-57" class="st1" d="M658.2,72.9h18l12.6-53l12.5,53h18.1l12.5-53l12.6,53h17.9L745.2,0h-21.7
						l-13.2,55.4L697.3,0h-21.7L658.2,72.9z"/>
				</g>
				<g>
					<path id="DejaVuSans-Bold-5f_00000119093230432816233190000014664454124824417158_" class="st1" d="M815.6-14.3v-9.3h-50v9.3
						H815.6z"/>
				</g>
				<g>
					<path id="DejaVuSans-Bold-43_00000165225313840907574730000010719859073113749157_" class="st1" d="M882.6,4
						c-3.5-1.8-7.1-3.1-10.8-4C868-1,864.1-1.4,860-1.4c-12.1,0-21.8,3.4-28.9,10.2s-10.6,16-10.6,27.6c0,11.7,3.5,20.9,10.6,27.7
						c7.1,6.8,16.7,10.2,28.9,10.2c4.1,0,8-0.5,11.7-1.4c3.7-0.9,7.3-2.3,10.8-4V53.7c-3.5,2.4-6.9,4.1-10.3,5.2s-6.9,1.7-10.7,1.7
						c-6.7,0-12-2.2-15.8-6.5c-3.8-4.3-5.8-10.2-5.8-17.8c0-7.5,1.9-13.4,5.8-17.7c3.8-4.3,9.1-6.4,15.8-6.4c3.7,0,7.3,0.6,10.7,1.7
						c3.4,1.1,6.8,2.9,10.3,5.2V4z"/>
				</g>
				<g>
					<path id="DejaVuSans-Bold-50" class="st1" d="M898.1,72.9h31.2c9.3,0,16.4-2.1,21.4-6.2c5-4.1,7.5-10,7.5-17.6
						c0-7.7-2.5-13.5-7.5-17.7c-5-4.1-12.1-6.2-21.4-6.2h-12.4V0h-18.8V72.9z M916.9,59.3V38.9h10.4c3.6,0,6.5,0.9,8.5,2.7
						c2,1.8,3,4.3,3,7.5c0,3.2-1,5.8-3,7.5s-4.8,2.6-8.5,2.6H916.9z"/>
				</g>
				<g>
					<path id="DejaVuSans-Bold-55" class="st1" d="M971.4,72.9h18.8V29.2c0-6,1-10.3,3-12.9c2-2.6,5.2-3.9,9.6-3.9
						c4.5,0,7.7,1.3,9.7,3.9c2,2.6,3,6.9,3,12.9v43.7h18.8V29.2c0-10.3-2.6-18-7.8-23.1c-5.2-5-13.1-7.6-23.7-7.6
						c-10.6,0-18.5,2.5-23.6,7.6c-5.2,5.1-7.8,12.7-7.8,23.1V72.9z"/>
				</g>
				<g>
					<path id="DejaVuSans-Bold-5f_00000155125727030194762950000010402112355775602305_" class="st1" d="M1093.4-14.3v-9.3h-50v9.3
						H1093.4z"/>
				</g>
				<g>
					<path id="DejaVuSans-Bold-49_00000121978764158590554320000002816332836387690652_" class="st1" d="M1102.6,72.9h18.8V0h-18.8
						V72.9z"/>
				</g>
				<g>
					<path id="DejaVuSans-Bold-51" class="st1" d="M1175.1-1.3h-1.5c-12,0-21.4,3.3-28,10c-6.7,6.6-10,15.9-10,27.7
						c0,11.8,3.3,21.1,10,27.8c6.7,6.7,15.8,10.1,27.5,10.1c11.8,0,21-3.3,27.6-10c6.6-6.6,9.9-15.9,9.9-27.9
						c0-8.2-1.8-15.3-5.2-21.2s-8.5-10.4-15.1-13.4l14.7-16.4H1187L1175.1-1.3z M1173.1,60.6c-5.7,0-10.2-2.1-13.3-6.3
						s-4.7-10.2-4.7-17.9c0-7.8,1.5-13.8,4.6-18c3.1-4.1,7.6-6.2,13.4-6.2c5.8,0,10.2,2.1,13.4,6.3c3.2,4.2,4.7,10.2,4.7,17.8
						c0,7.7-1.6,13.6-4.7,17.9S1178.9,60.6,1173.1,60.6z"/>
				</g>
				<g>
					<path id="DejaVuSans-Bold-52_00000165225554201204768170000000041374489026323587_" class="st1" d="M1251.6,40.6
						c3.9,0,6.8,0.7,8.5,2.2c1.7,1.5,2.6,3.9,2.6,7.2c0,3.3-0.9,5.7-2.6,7.1c-1.7,1.4-4.5,2.2-8.5,2.2h-7.9V40.6H1251.6z
						 M1243.6,27.6V0h-18.8v72.9h28.7c9.6,0,16.6-1.6,21.1-4.8c4.5-3.2,6.7-8.3,6.7-15.3c0-4.8-1.2-8.8-3.5-11.9
						c-2.3-3.1-5.8-5.4-10.5-6.8c2.6-0.6,4.9-1.9,6.9-4c2-2.1,4.1-5.2,6.2-9.4L1290.7,0h-20l-8.9,18.1c-1.8,3.6-3.6,6.1-5.5,7.5
						c-1.8,1.3-4.3,2-7.3,2H1243.6z"/>
				</g>
			</g>
		</g>
		<g id="patch_4">
			<path class="st0" d="M698.4,50.8h223.2V16.2H698.4V50.8z"/>
		</g>
		<g id="text_3">
			<g transform="translate(722.597344 37.069844) scale(0.14 -0.14)">
				<g>
					<path id="DejaVuSans-Bold-45_00000180339127305724051710000005052034254596979358_" class="st1" d="M9.2,72.9h50.7V58.7H28
						V45.1h30V30.9H28V14.2h33V0H9.2V72.9z"/>
				</g>
				<g>
					<path id="DejaVuSans-Bold-54_00000070103025427338616880000014965966176137158074_" class="st1" d="M68.8,72.9H136V58.7h-24.2
						V0H93v58.7H68.8V72.9z"/>
				</g>
				<g>
					<path id="DejaVuSans-Bold-4c_00000017478412212087792910000000686616536368277142_" class="st1" d="M145.7,72.9h18.8V14.2h33V0
						h-51.8V72.9z"/>
				</g>
				<g>
					<path id="DejaVuSans-Bold-5f_00000161627423016792248180000017987350417421792677_" class="st1" d="M250.2-14.3v-9.3h-50v9.3
						H250.2z"/>
				</g>
				<g>
					<path id="DejaVuSans-Bold-41_00000070825225703456189980000013923219381024935811_" class="st1" d="M303.7,13.3h-29.4L269.6,0
						h-18.9l27,72.9h22.4l27-72.9h-18.9L303.7,13.3z M279,26.8h20l-10,29L279,26.8z"/>
				</g>
				<g>
					<path id="DejaVuSans-Bold-49_00000083069416872145970810000015229510300053422780_" class="st1" d="M336.8,72.9h18.8V0h-18.8
						V72.9z"/>
				</g>
				<g>
					<path id="DejaVuSans-Bold-52_00000144325917659818733250000009273019994690284204_" class="st1" d="M400.7,40.6
						c3.9,0,6.8,0.7,8.5,2.2c1.7,1.5,2.6,3.9,2.6,7.2c0,3.3-0.9,5.7-2.6,7.1c-1.7,1.4-4.5,2.2-8.5,2.2h-7.9V40.6H400.7z M392.8,27.6
						V0H374v72.9h28.7c9.6,0,16.6-1.6,21.1-4.8c4.5-3.2,6.7-8.3,6.7-15.3c0-4.8-1.2-8.8-3.5-11.9c-2.3-3.1-5.8-5.4-10.5-6.8
						c2.6-0.6,4.9-1.9,6.9-4c2-2.1,4.1-5.2,6.2-9.4L439.8,0h-20l-8.9,18.1c-1.8,3.6-3.6,6.1-5.5,7.5c-1.8,1.3-4.3,2-7.3,2H392.8z"/>
				</g>
				<g>
					<path id="DejaVuSans-Bold-42" class="st1" d="M480.2,44.7c3,0,5.2,0.7,6.7,2c1.5,1.3,2.3,3.2,2.3,5.8c0,2.5-0.8,4.4-2.3,5.7
						c-1.5,1.3-3.8,2-6.7,2h-10.4V44.7H480.2z M480.9,12.8c3.8,0,6.6,0.8,8.5,2.4s2.9,4,2.9,7.2c0,3.2-0.9,5.5-2.8,7.1
						c-1.9,1.6-4.7,2.4-8.5,2.4h-11V12.8H480.9z M498.3,39c4-1.2,7.2-3.3,9.4-6.5c2.2-3.2,3.3-7,3.3-11.6c0-7-2.4-12.3-7.1-15.7
						c-4.8-3.4-12-5.2-21.7-5.2H451v72.9h28.2c10.1,0,17.5-1.5,22-4.6s6.8-8,6.8-14.7c0-3.5-0.8-6.6-2.5-9
						C503.9,42.1,501.5,40.2,498.3,39z"/>
				</g>
				<g>
					<path id="DejaVuSans-Bold-59" class="st1" d="M511.6,72.9h20.6l16.6-26l16.6,26H586l-27.8-42.2V0h-18.8v30.7L511.6,72.9z"/>
				</g>
				<g>
					<path id="DejaVuSans-Bold-54_00000042699290288557340350000008181300652034145466_" class="st1" d="M585.5,72.9h67.2V58.7
						h-24.2V0h-18.8v58.7h-24.2V72.9z"/>
				</g>
				<g>
					<path id="DejaVuSans-Bold-45_00000049217018632524659810000004839594828100820636_" class="st1" d="M662.4,72.9h50.7V58.7
						h-31.9V45.1h30V30.9h-30V14.2h33V0h-51.8V72.9z"/>
				</g>
				<g>
					<path id="DejaVuSans-Bold-5f_00000042695945144501970330000000224585280532167077_" class="st1" d="M771.5-14.3v-9.3h-50v9.3
						H771.5z"/>
				</g>
				<g>
					<path id="DejaVuSans-Bold-43_00000104676455552989426890000016691163120440079504_" class="st1" d="M838.5,4
						c-3.5-1.8-7.1-3.1-10.8-4C824-1,820.1-1.4,816-1.4c-12.1,0-21.8,3.4-28.9,10.2s-10.6,16-10.6,27.6c0,11.7,3.5,20.9,10.6,27.7
						c7.1,6.8,16.7,10.2,28.9,10.2c4.1,0,8-0.5,11.7-1.4c3.7-0.9,7.3-2.3,10.8-4V53.7c-3.5,2.4-6.9,4.1-10.3,5.2s-6.9,1.7-10.7,1.7
						c-6.7,0-12-2.2-15.8-6.5c-3.8-4.3-5.8-10.2-5.8-17.8c0-7.5,1.9-13.4,5.8-17.7c3.8-4.3,9.1-6.4,15.8-6.4c3.7,0,7.3,0.6,10.7,1.7
						c3.4,1.1,6.8,2.9,10.3,5.2V4z"/>
				</g>
				<g>
					<path id="DejaVuSans-Bold-50_00000092417575975123632750000010271651519321766564_" class="st1" d="M854.1,72.9h31.2
						c9.3,0,16.4-2.1,21.4-6.2c5-4.1,7.5-10,7.5-17.6c0-7.7-2.5-13.5-7.5-17.7c-5-4.1-12.1-6.2-21.4-6.2h-12.4V0h-18.8V72.9z
						 M872.9,59.3V38.9h10.4c3.6,0,6.5,0.9,8.5,2.7c2,1.8,3,4.3,3,7.5c0,3.2-1,5.8-3,7.5s-4.8,2.6-8.5,2.6H872.9z"/>
				</g>
				<g>
					<path id="DejaVuSans-Bold-55_00000178201364005684541450000016576061519479495042_" class="st1" d="M927.4,72.9h18.8V29.2
						c0-6,1-10.3,3-12.9c2-2.6,5.2-3.9,9.6-3.9c4.5,0,7.7,1.3,9.7,3.9c2,2.6,3,6.9,3,12.9v43.7h18.8V29.2c0-10.3-2.6-18-7.8-23.1
						c-5.2-5-13.1-7.6-23.7-7.6c-10.6,0-18.5,2.5-23.6,7.6c-5.2,5.1-7.8,12.7-7.8,23.1V72.9z"/>
				</g>
				<g>
					<path id="DejaVuSans-Bold-5f_00000180325805646144986170000017288589425457111434_" class="st1" d="M1049.4-14.3v-9.3h-50v9.3
						H1049.4z"/>
				</g>
				<g>
					<path id="DejaVuSans-Bold-49_00000081621898634717837380000007393977283773996196_" class="st1" d="M1058.6,72.9h18.8V0h-18.8
						V72.9z"/>
				</g>
				<g>
					<path id="DejaVuSans-Bold-51_00000168805288537808019630000008677075261745746320_" class="st1" d="M1131.1-1.3h-1.5
						c-12,0-21.4,3.3-28,10c-6.7,6.6-10,15.9-10,27.7c0,11.8,3.3,21.1,10,27.8c6.7,6.7,15.8,10.1,27.5,10.1c11.8,0,21-3.3,27.6-10
						c6.6-6.6,9.9-15.9,9.9-27.9c0-8.2-1.8-15.3-5.2-21.2s-8.5-10.4-15.1-13.4l14.7-16.4H1143L1131.1-1.3z M1129.1,60.6
						c-5.7,0-10.2-2.1-13.3-6.3s-4.7-10.2-4.7-17.9c0-7.8,1.5-13.8,4.6-18c3.1-4.1,7.6-6.2,13.4-6.2c5.8,0,10.2,2.1,13.4,6.3
						c3.2,4.2,4.7,10.2,4.7,17.8c0,7.7-1.6,13.6-4.7,17.9S1134.8,60.6,1129.1,60.6z"/>
				</g>
				<g>
					<path id="DejaVuSans-Bold-52_00000032619178785883434400000012161569322268762037_" class="st1" d="M1207.5,40.6
						c3.9,0,6.8,0.7,8.5,2.2c1.7,1.5,2.6,3.9,2.6,7.2c0,3.3-0.9,5.7-2.6,7.1c-1.7,1.4-4.5,2.2-8.5,2.2h-7.9V40.6H1207.5z
						 M1199.6,27.6V0h-18.8v72.9h28.7c9.6,0,16.6-1.6,21.1-4.8c4.5-3.2,6.7-8.3,6.7-15.3c0-4.8-1.2-8.8-3.5-11.9
						c-2.3-3.1-5.8-5.4-10.5-6.8c2.6-0.6,4.9-1.9,6.9-4c2-2.1,4.1-5.2,6.2-9.4L1246.6,0h-20l-8.9,18.1c-1.8,3.6-3.6,6.1-5.5,7.5
						c-1.8,1.3-4.3,2-7.3,2H1199.6z"/>
				</g>
			</g>
		</g>
		<g id="patch_5">
			<path class="st0" d="M921.6,50.8h223.2V16.2H921.6V50.8z"/>
		</g>
		<g id="text_4">
			<g transform="translate(930.582188 37.069844) scale(0.14 -0.14)">
				<g>
					<path id="DejaVuSans-Bold-46_00000004504818945033374580000016569551547318386061_" class="st1" d="M9.2,72.9h50.7V58.7H28
						V45.1h30V30.9H28V0H9.2V72.9z"/>
				</g>
				<g>
					<path id="DejaVuSans-Bold-4f_00000087390683943176382250000002659209269198813104_" class="st1" d="M110.8,60.6
						c-5.7,0-10.2-2.1-13.3-6.3s-4.7-10.2-4.7-17.9c0-7.6,1.6-13.6,4.7-17.8c3.2-4.2,7.6-6.3,13.3-6.3c5.8,0,10.2,2.1,13.4,6.3
						c3.2,4.2,4.7,10.2,4.7,17.8c0,7.7-1.6,13.6-4.7,17.9S116.6,60.6,110.8,60.6z M110.8,74.2c11.7,0,20.9-3.4,27.5-10.1
						c6.6-6.7,10-16,10-27.8c0-11.8-3.3-21-10-27.7c-6.6-6.7-15.8-10.1-27.5-10.1c-11.7,0-20.9,3.4-27.5,10.1s-10,16-10,27.7
						c0,11.8,3.3,21.1,10,27.8C89.9,70.9,99.1,74.2,110.8,74.2z"/>
				</g>
				<g>
					<path id="DejaVuSans-Bold-4e" class="st1" d="M162.5,72.9h21l26.5-50v50h17.8V0h-21l-26.5,50V0h-17.8V72.9z"/>
				</g>
				<g>
					<path id="DejaVuSans-Bold-54_00000131355533047726415750000017337192735384578946_" class="st1" d="M237.5,72.9h67.2V58.7
						h-24.2V0h-18.8v58.7h-24.2V72.9z"/>
				</g>
				<g>
					<path id="DejaVuSans-Bold-45_00000101824075431119650940000008099258703349548974_" class="st1" d="M314.4,72.9h50.7V58.7
						h-31.9V45.1h30V30.9h-30V14.2h33V0h-51.8V72.9z"/>
				</g>
				<g>
					<path id="DejaVuSans-Bold-5f_00000114770139250214312880000001095776842229616004_" class="st1" d="M423.5-14.3v-9.3h-50v9.3
						H423.5z"/>
				</g>
				<g>
					<path id="DejaVuSans-Bold-41_00000018206121487633940600000016821979799196172985_" class="st1" d="M477,13.3h-29.4L442.9,0
						H424l27,72.9h22.4l27-72.9h-18.9L477,13.3z M452.3,26.8h20l-10,29L452.3,26.8z"/>
				</g>
				<g>
					<path id="DejaVuSans-Bold-49_00000062900483771271790880000000335815814967562368_" class="st1" d="M510.1,72.9h18.8V0h-18.8
						V72.9z"/>
				</g>
				<g>
					<path id="DejaVuSans-Bold-52_00000032632295505361652850000005575511428355045541_" class="st1" d="M574,40.6
						c3.9,0,6.8,0.7,8.5,2.2c1.7,1.5,2.6,3.9,2.6,7.2c0,3.3-0.9,5.7-2.6,7.1c-1.7,1.4-4.5,2.2-8.5,2.2h-7.9V40.6H574z M566.1,27.6V0
						h-18.8v72.9H576c9.6,0,16.6-1.6,21.1-4.8c4.5-3.2,6.7-8.3,6.7-15.3c0-4.8-1.2-8.8-3.5-11.9c-2.3-3.1-5.8-5.4-10.5-6.8
						c2.6-0.6,4.9-1.9,6.9-4c2-2.1,4.1-5.2,6.2-9.4L613.1,0h-20l-8.9,18.1c-1.8,3.6-3.6,6.1-5.5,7.5c-1.8,1.3-4.3,2-7.3,2H566.1z"/>
				</g>
				<g>
					<path id="DejaVuSans-Bold-46_00000007394722762245297660000011009957059547859899_" class="st1" d="M624.3,72.9H675V58.7h-31.9
						V45.1h30V30.9h-30V0h-18.8V72.9z"/>
				</g>
				<g>
					<path id="DejaVuSans-Bold-4c_00000031897807050933923190000003968098709385098162_" class="st1" d="M692.6,72.9h18.8V14.2h33V0
						h-51.8V72.9z"/>
				</g>
				<g>
					<path id="DejaVuSans-Bold-4f_00000018205885992869989490000004801071897392867995_" class="st1" d="M786,60.6
						c-5.7,0-10.2-2.1-13.3-6.3S768,44.1,768,36.4c0-7.6,1.6-13.6,4.7-17.8c3.2-4.2,7.6-6.3,13.3-6.3c5.8,0,10.2,2.1,13.4,6.3
						c3.2,4.2,4.7,10.2,4.7,17.8c0,7.7-1.6,13.6-4.7,17.9S791.8,60.6,786,60.6z M786,74.2c11.7,0,20.9-3.4,27.5-10.1
						c6.6-6.7,10-16,10-27.8c0-11.8-3.3-21-10-27.7C806.9,1.9,797.7-1.4,786-1.4c-11.7,0-20.9,3.4-27.5,10.1s-10,16-10,27.7
						c0,11.8,3.3,21.1,10,27.8C765.2,70.9,774.3,74.2,786,74.2z"/>
				</g>
				<g>
					<path id="DejaVuSans-Bold-57_00000134222954780884537120000012991737102561499035_" class="st1" d="M831.5,72.9h18l12.6-53
						l12.5,53h18.1l12.5-53l12.6,53h17.9L918.5,0h-21.7l-13.2,55.4L870.6,0h-21.7L831.5,72.9z"/>
				</g>
				<g>
					<path id="DejaVuSans-Bold-5f_00000101101693352781900950000006169631473807860385_" class="st1" d="M988.9-14.3v-9.3h-50v9.3
						H988.9z"/>
				</g>
				<g>
					<path id="DejaVuSans-Bold-43_00000106124175399666514300000001239780439143558313_" class="st1" d="M1055.9,4
						c-3.5-1.8-7.1-3.1-10.8-4c-3.7-0.9-7.6-1.4-11.7-1.4c-12.1,0-21.8,3.4-28.9,10.2s-10.6,16-10.6,27.6c0,11.7,3.5,20.9,10.6,27.7
						c7.1,6.8,16.7,10.2,28.9,10.2c4.1,0,8-0.5,11.7-1.4c3.7-0.9,7.3-2.3,10.8-4V53.7c-3.5,2.4-6.9,4.1-10.3,5.2s-6.9,1.7-10.7,1.7
						c-6.7,0-12-2.2-15.8-6.5c-3.8-4.3-5.8-10.2-5.8-17.8c0-7.5,1.9-13.4,5.8-17.7c3.8-4.3,9.1-6.4,15.8-6.4c3.7,0,7.3,0.6,10.7,1.7
						c3.4,1.1,6.8,2.9,10.3,5.2V4z"/>
				</g>
				<g>
					<path id="DejaVuSans-Bold-50_00000007404595932116408980000008097770106568845189_" class="st1" d="M1071.4,72.9h31.2
						c9.3,0,16.4-2.1,21.4-6.2c5-4.1,7.5-10,7.5-17.6c0-7.7-2.5-13.5-7.5-17.7c-5-4.1-12.1-6.2-21.4-6.2h-12.4V0h-18.8V72.9z
						 M1090.2,59.3V38.9h10.4c3.6,0,6.5,0.9,8.5,2.7c2,1.8,3,4.3,3,7.5c0,3.2-1,5.8-3,7.5s-4.8,2.6-8.5,2.6H1090.2z"/>
				</g>
				<g>
					<path id="DejaVuSans-Bold-55_00000179626805773451617470000016919784527936092068_" class="st1" d="M1144.7,72.9h18.8V29.2
						c0-6,1-10.3,3-12.9c2-2.6,5.2-3.9,9.6-3.9c4.5,0,7.7,1.3,9.7,3.9c2,2.6,3,6.9,3,12.9v43.7h18.8V29.2c0-10.3-2.6-18-7.8-23.1
						c-5.2-5-13.1-7.6-23.7-7.6c-10.6,0-18.5,2.5-23.6,7.6c-5.2,5.1-7.8,12.7-7.8,23.1V72.9z"/>
				</g>
				<g>
					<path id="DejaVuSans-Bold-5f_00000052099829211088970030000010975578915915056790_" class="st1" d="M1266.7-14.3v-9.3h-50v9.3
						H1266.7z"/>
				</g>
				<g>
					<path id="DejaVuSans-Bold-49_00000087397465017070128660000006639066687933800861_" class="st1" d="M1275.9,72.9h18.8V0h-18.8
						V72.9z"/>
				</g>
				<g>
					<path id="DejaVuSans-Bold-51_00000067943981849858823520000009429540717024756873_" class="st1" d="M1348.4-1.3h-1.5
						c-12,0-21.4,3.3-28,10c-6.7,6.6-10,15.9-10,27.7c0,11.8,3.3,21.1,10,27.8c6.7,6.7,15.8,10.1,27.5,10.1c11.8,0,21-3.3,27.6-10
						c6.6-6.6,9.9-15.9,9.9-27.9c0-8.2-1.8-15.3-5.2-21.2s-8.5-10.4-15.1-13.4l14.7-16.4h-17.9L1348.4-1.3z M1346.4,60.6
						c-5.7,0-10.2-2.1-13.3-6.3s-4.7-10.2-4.7-17.9c0-7.8,1.5-13.8,4.6-18c3.1-4.1,7.6-6.2,13.4-6.2c5.8,0,10.2,2.1,13.4,6.3
						c3.2,4.2,4.7,10.2,4.7,17.8c0,7.7-1.6,13.6-4.7,17.9S1352.2,60.6,1346.4,60.6z"/>
				</g>
				<g>
					<path id="DejaVuSans-Bold-52_00000130625335798397031730000015256598142086250136_" class="st1" d="M1424.8,40.6
						c3.9,0,6.8,0.7,8.5,2.2c1.7,1.5,2.6,3.9,2.6,7.2c0,3.3-0.9,5.7-2.6,7.1c-1.7,1.4-4.5,2.2-8.5,2.2h-7.9V40.6H1424.8z
						 M1416.9,27.6V0h-18.8v72.9h28.7c9.6,0,16.6-1.6,21.1-4.8c4.5-3.2,6.7-8.3,6.7-15.3c0-4.8-1.2-8.8-3.5-11.9
						c-2.3-3.1-5.8-5.4-10.5-6.8c2.6-0.6,4.9-1.9,6.9-4c2-2.1,4.1-5.2,6.2-9.4L1464,0h-20l-8.9,18.1c-1.8,3.6-3.6,6.1-5.5,7.5
						c-1.8,1.3-4.3,2-7.3,2H1416.9z"/>
				</g>
			</g>
		</g>
		<g id="patch_6">
			<path class="st0" d="M1144.8,50.8H1368V16.2h-223.2V50.8z"/>
		</g>
		<g id="text_5">
			<g transform="translate(1156.866563 37.069844) scale(0.14 -0.14)">
				<g>
					<path id="DejaVuSans-Bold-46_00000124147041162079208590000006416585214632387476_" class="st1" d="M9.2,72.9h50.7V58.7H28
						V45.1h30V30.9H28V0H9.2V72.9z"/>
				</g>
				<g>
					<path id="DejaVuSans-Bold-4f_00000130639154792464304360000009839477445810229381_" class="st1" d="M110.8,60.6
						c-5.7,0-10.2-2.1-13.3-6.3s-4.7-10.2-4.7-17.9c0-7.6,1.6-13.6,4.7-17.8c3.2-4.2,7.6-6.3,13.3-6.3c5.8,0,10.2,2.1,13.4,6.3
						c3.2,4.2,4.7,10.2,4.7,17.8c0,7.7-1.6,13.6-4.7,17.9S116.6,60.6,110.8,60.6z M110.8,74.2c11.7,0,20.9-3.4,27.5-10.1
						c6.6-6.7,10-16,10-27.8c0-11.8-3.3-21-10-27.7c-6.6-6.7-15.8-10.1-27.5-10.1c-11.7,0-20.9,3.4-27.5,10.1s-10,16-10,27.7
						c0,11.8,3.3,21.1,10,27.8C89.9,70.9,99.1,74.2,110.8,74.2z"/>
				</g>
				<g>
					<path id="DejaVuSans-Bold-4e_00000014630192584744959850000013362883506116877707_" class="st1" d="M162.5,72.9h21l26.5-50v50
						h17.8V0h-21l-26.5,50V0h-17.8V72.9z"/>
				</g>
				<g>
					<path id="DejaVuSans-Bold-54_00000007427109246315956510000006457930961908242058_" class="st1" d="M237.5,72.9h67.2V58.7
						h-24.2V0h-18.8v58.7h-24.2V72.9z"/>
				</g>
				<g>
					<path id="DejaVuSans-Bold-45_00000080898623858578688610000009262837933193962629_" class="st1" d="M314.4,72.9h50.7V58.7
						h-31.9V45.1h30V30.9h-30V14.2h33V0h-51.8V72.9z"/>
				</g>
				<g>
					<path id="DejaVuSans-Bold-5f_00000008839701921235252350000016297147011279987340_" class="st1" d="M423.5-14.3v-9.3h-50v9.3
						H423.5z"/>
				</g>
				<g>
					<path id="DejaVuSans-Bold-41_00000142862339057970734260000004439569118969616828_" class="st1" d="M477,13.3h-29.4L442.9,0
						H424l27,72.9h22.4l27-72.9h-18.9L477,13.3z M452.3,26.8h20l-10,29L452.3,26.8z"/>
				</g>
				<g>
					<path id="DejaVuSans-Bold-49_00000090978375709701496010000012928233908124230285_" class="st1" d="M510.1,72.9h18.8V0h-18.8
						V72.9z"/>
				</g>
				<g>
					<path id="DejaVuSans-Bold-52_00000072993197471311398870000004814204948472195749_" class="st1" d="M574,40.6
						c3.9,0,6.8,0.7,8.5,2.2c1.7,1.5,2.6,3.9,2.6,7.2c0,3.3-0.9,5.7-2.6,7.1c-1.7,1.4-4.5,2.2-8.5,2.2h-7.9V40.6H574z M566.1,27.6V0
						h-18.8v72.9H576c9.6,0,16.6-1.6,21.1-4.8c4.5-3.2,6.7-8.3,6.7-15.3c0-4.8-1.2-8.8-3.5-11.9c-2.3-3.1-5.8-5.4-10.5-6.8
						c2.6-0.6,4.9-1.9,6.9-4c2-2.1,4.1-5.2,6.2-9.4L613.1,0h-20l-8.9,18.1c-1.8,3.6-3.6,6.1-5.5,7.5c-1.8,1.3-4.3,2-7.3,2H566.1z"/>
				</g>
				<g>
					<path id="DejaVuSans-Bold-42_00000145057448392064290080000012840092708457115044_" class="st1" d="M653.5,44.7
						c3,0,5.2,0.7,6.7,2c1.5,1.3,2.3,3.2,2.3,5.8c0,2.5-0.8,4.4-2.3,5.7c-1.5,1.3-3.8,2-6.7,2h-10.4V44.7H653.5z M654.2,12.8
						c3.8,0,6.6,0.8,8.5,2.4s2.9,4,2.9,7.2c0,3.2-0.9,5.5-2.8,7.1c-1.9,1.6-4.7,2.4-8.5,2.4h-11V12.8H654.2z M671.6,39
						c4-1.2,7.2-3.3,9.4-6.5c2.2-3.2,3.3-7,3.3-11.6c0-7-2.4-12.3-7.1-15.7c-4.8-3.4-12-5.2-21.7-5.2h-31.2v72.9h28.2
						c10.1,0,17.5-1.5,22-4.6s6.8-8,6.8-14.7c0-3.5-0.8-6.6-2.5-9C677.2,42.1,674.8,40.2,671.6,39z"/>
				</g>
				<g>
					<path id="DejaVuSans-Bold-59_00000086659757958707714650000011428670931839834026_" class="st1" d="M684.9,72.9h20.6l16.6-26
						l16.6,26h20.6l-27.8-42.2V0h-18.8v30.7L684.9,72.9z"/>
				</g>
				<g>
					<path id="DejaVuSans-Bold-54_00000069366613481409386850000002953840181406031262_" class="st1" d="M758.8,72.9h67.2V58.7
						h-24.2V0H783v58.7h-24.2V72.9z"/>
				</g>
				<g>
					<path id="DejaVuSans-Bold-45_00000067209895525014665940000014632733147503937192_" class="st1" d="M835.7,72.9h50.7V58.7
						h-31.9V45.1h30V30.9h-30V14.2h33V0h-51.8V72.9z"/>
				</g>
				<g>
					<path id="DejaVuSans-Bold-5f_00000034069231365766057390000006569154004880582070_" class="st1" d="M944.8-14.3v-9.3h-50v9.3
						H944.8z"/>
				</g>
				<g>
					<path id="DejaVuSans-Bold-43_00000142869646393014389070000014996229399411965316_" class="st1" d="M1011.8,4
						c-3.5-1.8-7.1-3.1-10.8-4c-3.7-0.9-7.6-1.4-11.7-1.4c-12.1,0-21.8,3.4-28.9,10.2s-10.6,16-10.6,27.6c0,11.7,3.5,20.9,10.6,27.7
						c7.1,6.8,16.7,10.2,28.9,10.2c4.1,0,8-0.5,11.7-1.4c3.7-0.9,7.3-2.3,10.8-4V53.7c-3.5,2.4-6.9,4.1-10.3,5.2s-6.9,1.7-10.7,1.7
						c-6.7,0-12-2.2-15.8-6.5c-3.8-4.3-5.8-10.2-5.8-17.8c0-7.5,1.9-13.4,5.8-17.7c3.8-4.3,9.1-6.4,15.8-6.4c3.7,0,7.3,0.6,10.7,1.7
						c3.4,1.1,6.8,2.9,10.3,5.2V4z"/>
				</g>
				<g>
					<path id="DejaVuSans-Bold-50_00000127723533866243829490000012594624344096929942_" class="st1" d="M1027.4,72.9h31.2
						c9.3,0,16.4-2.1,21.4-6.2c5-4.1,7.5-10,7.5-17.6c0-7.7-2.5-13.5-7.5-17.7c-5-4.1-12.1-6.2-21.4-6.2h-12.4V0h-18.8V72.9z
						 M1046.2,59.3V38.9h10.4c3.6,0,6.5,0.9,8.5,2.7c2,1.8,3,4.3,3,7.5c0,3.2-1,5.8-3,7.5s-4.8,2.6-8.5,2.6H1046.2z"/>
				</g>
				<g>
					<path id="DejaVuSans-Bold-55_00000035490021629440814220000005499107355958626956_" class="st1" d="M1100.7,72.9h18.8V29.2
						c0-6,1-10.3,3-12.9c2-2.6,5.2-3.9,9.6-3.9c4.5,0,7.7,1.3,9.7,3.9c2,2.6,3,6.9,3,12.9v43.7h18.8V29.2c0-10.3-2.6-18-7.8-23.1
						c-5.2-5-13.1-7.6-23.7-7.6c-10.6,0-18.5,2.5-23.6,7.6c-5.2,5.1-7.8,12.7-7.8,23.1V72.9z"/>
				</g>
				<g>
					<path id="DejaVuSans-Bold-5f_00000107581526907569650550000008814919776908864137_" class="st1" d="M1222.7-14.3v-9.3h-50v9.3
						H1222.7z"/>
				</g>
				<g>
					<path id="DejaVuSans-Bold-49_00000148660868652154416590000005731421874483553165_" class="st1" d="M1231.9,72.9h18.8V0h-18.8
						V72.9z"/>
				</g>
				<g>
					<path id="DejaVuSans-Bold-51_00000026162249037024942450000014766311241644379272_" class="st1" d="M1304.4-1.3h-1.5
						c-12,0-21.4,3.3-28,10c-6.7,6.6-10,15.9-10,27.7c0,11.8,3.3,21.1,10,27.8c6.7,6.7,15.8,10.1,27.5,10.1c11.8,0,21-3.3,27.6-10
						c6.6-6.6,9.9-15.9,9.9-27.9c0-8.2-1.8-15.3-5.2-21.2s-8.5-10.4-15.1-13.4l14.7-16.4h-17.9L1304.4-1.3z M1302.4,60.6
						c-5.7,0-10.2-2.1-13.3-6.3s-4.7-10.2-4.7-17.9c0-7.8,1.5-13.8,4.6-18c3.1-4.1,7.6-6.2,13.4-6.2c5.8,0,10.2,2.1,13.4,6.3
						c3.2,4.2,4.7,10.2,4.7,17.8c0,7.7-1.6,13.6-4.7,17.9S1308.1,60.6,1302.4,60.6z"/>
				</g>
				<g>
					<path id="DejaVuSans-Bold-52_00000043441439151126938240000001277905385321213110_" class="st1" d="M1380.8,40.6
						c3.9,0,6.8,0.7,8.5,2.2c1.7,1.5,2.6,3.9,2.6,7.2c0,3.3-0.9,5.7-2.6,7.1c-1.7,1.4-4.5,2.2-8.5,2.2h-7.9V40.6H1380.8z
						 M1372.9,27.6V0h-18.8v72.9h28.7c9.6,0,16.6-1.6,21.1-4.8c4.5-3.2,6.7-8.3,6.7-15.3c0-4.8-1.2-8.8-3.5-11.9
						c-2.3-3.1-5.8-5.4-10.5-6.8c2.6-0.6,4.9-1.9,6.9-4c2-2.1,4.1-5.2,6.2-9.4L1419.9,0h-20l-8.9,18.1c-1.8,3.6-3.6,6.1-5.5,7.5
						c-1.8,1.3-4.3,2-7.3,2H1372.9z"/>
				</g>
			</g>
		</g>
		<g id="patch_7">
			<path class="st0" d="M1368,50.8h223.2V16.2H1368V50.8z"/>
		</g>
		<g id="text_6">
			<g transform="translate(1368.307656 37.069844) scale(0.14 -0.14)">
				<g>
					<path id="DejaVuSans-Bold-44_00000099646553105222500920000004166275582458237846_" class="st1" d="M28,58.7V14.2h6.7
						c7.7,0,13.5,1.9,17.6,5.7c4.1,3.8,6.1,9.3,6.1,16.6c0,7.2-2,12.7-6.1,16.5c-4,3.8-9.9,5.7-17.6,5.7H28z M9.2,72.9H29
						c11.1,0,19.3-0.8,24.7-2.4c5.4-1.6,10.1-4.2,13.9-8c3.4-3.3,6-7.1,7.6-11.4c1.7-4.3,2.5-9.2,2.5-14.6c0-5.5-0.8-10.4-2.5-14.7
						c-1.7-4.3-4.2-8.1-7.6-11.4c-3.9-3.8-8.6-6.5-14.1-8C48.1,0.8,39.9,0,29,0H9.2V72.9z"/>
				</g>
				<g>
					<path id="DejaVuSans-Bold-45_00000145745129728381397260000000668504468201490305_" class="st1" d="M92.2,72.9h50.7V58.7H111
						V45.1h30V30.9h-30V14.2h33V0H92.2V72.9z"/>
				</g>
				<g>
					<path id="DejaVuSans-Bold-53_00000154426643740134960910000004364176915194776210_" class="st1" d="M211.2,70.6V55.2
						c-4,1.8-7.9,3.1-11.7,4c-3.8,0.9-7.4,1.4-10.8,1.4c-4.5,0-7.8-0.6-10-1.9c-2.1-1.2-3.2-3.1-3.2-5.8c0-2,0.7-3.5,2.2-4.6
						c1.4-1.1,4.1-2,7.9-2.8l8-1.6c8.1-1.6,13.9-4.1,17.3-7.4c3.4-3.3,5.1-8,5.1-14.2c0-8-2.4-14-7.2-17.9S196.8-1.4,187-1.4
						c-4.6,0-9.2,0.4-13.9,1.3c-4.7,0.9-9.3,2.2-14,3.9v15.9c4.7-2.5,9.2-4.3,13.5-5.6c4.3-1.2,8.5-1.9,12.6-1.9
						c4.1,0,7.2,0.7,9.4,2c2.2,1.4,3.3,3.3,3.3,5.9c0,2.3-0.7,4-2.2,5.3s-4.4,2.3-8.9,3.3l-7.3,1.6c-7.3,1.6-12.6,4.1-16,7.5
						c-3.4,3.4-5,8-5,13.8c0,7.3,2.3,12.8,7,16.8s11.4,5.9,20.2,5.9c4,0,8.1-0.3,12.4-0.9S206.7,71.8,211.2,70.6z"/>
				</g>
				<g>
					<path id="DejaVuSans-Bold-54_00000039855458890482608490000010633543217579512230_" class="st1" d="M223.8,72.9H291V58.7h-24.2
						V0H248v58.7h-24.2V72.9z"/>
				</g>
				<g>
					<path id="DejaVuSans-Bold-49_00000014592588636497871850000000823073371511179169_" class="st1" d="M300.7,72.9h18.8V0h-18.8
						V72.9z"/>
				</g>
				<g>
					<path id="DejaVuSans-Bold-4e_00000166649189562915990210000008675809517329045943_" class="st1" d="M337.9,72.9h21l26.5-50v50
						h17.8V0h-21l-26.5,50V0h-17.8V72.9z"/>
				</g>
				<g>
					<path id="DejaVuSans-Bold-4f_00000080173129920828112170000012992812746433360276_" class="st1" d="M454.9,60.6
						c-5.7,0-10.2-2.1-13.3-6.3s-4.7-10.2-4.7-17.9c0-7.6,1.6-13.6,4.7-17.8c3.2-4.2,7.6-6.3,13.3-6.3c5.8,0,10.2,2.1,13.4,6.3
						c3.2,4.2,4.7,10.2,4.7,17.8c0,7.7-1.6,13.6-4.7,17.9S460.7,60.6,454.9,60.6z M454.9,74.2c11.7,0,20.9-3.4,27.5-10.1
						c6.6-6.7,10-16,10-27.8c0-11.8-3.3-21-10-27.7c-6.6-6.7-15.8-10.1-27.5-10.1c-11.7,0-20.9,3.4-27.5,10.1s-10,16-10,27.7
						c0,11.8,3.3,21.1,10,27.8C434.1,70.9,443.2,74.2,454.9,74.2z"/>
				</g>
				<g>
					<path id="DejaVuSans-Bold-5f_00000178167634304047697610000010144099016427104945_" class="st1" d="M547.5-14.3v-9.3h-50v9.3
						H547.5z"/>
				</g>
				<g>
					<path id="DejaVuSans-Bold-41_00000168076240101504287430000009966027711368110002_" class="st1" d="M600.9,13.3h-29.4L566.9,0
						h-18.9l27,72.9h22.4l27-72.9h-18.9L600.9,13.3z M576.2,26.8h20l-10,29L576.2,26.8z"/>
				</g>
				<g>
					<path id="DejaVuSans-Bold-49_00000005953573623408659560000015263409016823553920_" class="st1" d="M634,72.9h18.8V0H634V72.9z
						"/>
				</g>
				<g>
					<path id="DejaVuSans-Bold-52_00000078021744828069677900000004369624848749268914_" class="st1" d="M698,40.6
						c3.9,0,6.8,0.7,8.5,2.2c1.7,1.5,2.6,3.9,2.6,7.2c0,3.3-0.9,5.7-2.6,7.1c-1.7,1.4-4.5,2.2-8.5,2.2H690V40.6H698z M690,27.6V0
						h-18.8v72.9H700c9.6,0,16.6-1.6,21.1-4.8c4.5-3.2,6.7-8.3,6.7-15.3c0-4.8-1.2-8.8-3.5-11.9c-2.3-3.1-5.8-5.4-10.5-6.8
						c2.6-0.6,4.9-1.9,6.9-4c2-2.1,4.1-5.2,6.2-9.4L737.1,0h-20l-8.9,18.1c-1.8,3.6-3.6,6.1-5.5,7.5c-1.8,1.3-4.3,2-7.3,2H690z"/>
				</g>
				<g>
					<path id="DejaVuSans-Bold-46_00000000910275999137692120000005963982788670578860_" class="st1" d="M748.2,72.9H799V58.7H767
						V45.1h30V30.9h-30V0h-18.8V72.9z"/>
				</g>
				<g>
					<path id="DejaVuSans-Bold-4c_00000142175198662279728720000010068459481751368379_" class="st1" d="M816.6,72.9h18.8V14.2h33V0
						h-51.8V72.9z"/>
				</g>
				<g>
					<path id="DejaVuSans-Bold-4f_00000090294984647645077600000001058550158930911657_" class="st1" d="M910,60.6
						c-5.7,0-10.2-2.1-13.3-6.3s-4.7-10.2-4.7-17.9c0-7.6,1.6-13.6,4.7-17.8c3.2-4.2,7.6-6.3,13.3-6.3c5.8,0,10.2,2.1,13.4,6.3
						c3.2,4.2,4.7,10.2,4.7,17.8c0,7.7-1.6,13.6-4.7,17.9S915.7,60.6,910,60.6z M910,74.2c11.7,0,20.9-3.4,27.5-10.1
						c6.6-6.7,10-16,10-27.8c0-11.8-3.3-21-10-27.7C930.8,1.9,921.7-1.4,910-1.4c-11.7,0-20.9,3.4-27.5,10.1s-10,16-10,27.7
						c0,11.8,3.3,21.1,10,27.8C889.1,70.9,898.3,74.2,910,74.2z"/>
				</g>
				<g>
					<path id="DejaVuSans-Bold-57_00000081633150512255420530000003350054412047660705_" class="st1" d="M955.5,72.9h18l12.6-53
						l12.5,53h18.1l12.5-53l12.6,53h17.9L1042.5,0h-21.7l-13.2,55.4L994.5,0h-21.7L955.5,72.9z"/>
				</g>
				<g>
					<path id="DejaVuSans-Bold-5f_00000062915089027055638560000009068325742528378519_" class="st1" d="M1112.8-14.3v-9.3h-50v9.3
						H1112.8z"/>
				</g>
				<g>
					<path id="DejaVuSans-Bold-43_00000094593651261823988550000012851156456883195321_" class="st1" d="M1179.8,4
						c-3.5-1.8-7.1-3.1-10.8-4c-3.7-0.9-7.6-1.4-11.7-1.4c-12.1,0-21.8,3.4-28.9,10.2s-10.6,16-10.6,27.6c0,11.7,3.5,20.9,10.6,27.7
						c7.1,6.8,16.7,10.2,28.9,10.2c4.1,0,8-0.5,11.7-1.4c3.7-0.9,7.3-2.3,10.8-4V53.7c-3.5,2.4-6.9,4.1-10.3,5.2s-6.9,1.7-10.7,1.7
						c-6.7,0-12-2.2-15.8-6.5c-3.8-4.3-5.8-10.2-5.8-17.8c0-7.5,1.9-13.4,5.8-17.7c3.8-4.3,9.1-6.4,15.8-6.4c3.7,0,7.3,0.6,10.7,1.7
						c3.4,1.1,6.8,2.9,10.3,5.2V4z"/>
				</g>
				<g>
					<path id="DejaVuSans-Bold-50_00000026862337569536971410000007780759218730489776_" class="st1" d="M1195.4,72.9h31.2
						c9.3,0,16.4-2.1,21.4-6.2c5-4.1,7.5-10,7.5-17.6c0-7.7-2.5-13.5-7.5-17.7c-5-4.1-12.1-6.2-21.4-6.2h-12.4V0h-18.8V72.9z
						 M1214.2,59.3V38.9h10.4c3.6,0,6.5,0.9,8.5,2.7c2,1.8,3,4.3,3,7.5c0,3.2-1,5.8-3,7.5s-4.8,2.6-8.5,2.6H1214.2z"/>
				</g>
				<g>
					<path id="DejaVuSans-Bold-55_00000135667873685560728100000014879143740418380416_" class="st1" d="M1268.6,72.9h18.8V29.2
						c0-6,1-10.3,3-12.9c2-2.6,5.2-3.9,9.6-3.9c4.5,0,7.7,1.3,9.7,3.9c2,2.6,3,6.9,3,12.9v43.7h18.8V29.2c0-10.3-2.6-18-7.8-23.1
						c-5.2-5-13.1-7.6-23.7-7.6c-10.6,0-18.5,2.5-23.6,7.6c-5.2,5.1-7.8,12.7-7.8,23.1V72.9z"/>
				</g>
				<g>
					<path id="DejaVuSans-Bold-5f_00000087385917508026849750000016550451042337171647_" class="st1" d="M1390.7-14.3v-9.3h-50v9.3
						H1390.7z"/>
				</g>
				<g>
					<path id="DejaVuSans-Bold-49_00000125572135706873100160000009639284850846946457_" class="st1" d="M1399.8,72.9h18.8V0h-18.8
						V72.9z"/>
				</g>
				<g>
					<path id="DejaVuSans-Bold-51_00000070111065322047245550000016168735779023688123_" class="st1" d="M1472.4-1.3h-1.5
						c-12,0-21.4,3.3-28,10c-6.7,6.6-10,15.9-10,27.7c0,11.8,3.3,21.1,10,27.8c6.7,6.7,15.8,10.1,27.5,10.1c11.8,0,21-3.3,27.6-10
						c6.6-6.6,9.9-15.9,9.9-27.9c0-8.2-1.8-15.3-5.2-21.2s-8.5-10.4-15.1-13.4l14.7-16.4h-17.9L1472.4-1.3z M1470.4,60.6
						c-5.7,0-10.2-2.1-13.3-6.3s-4.7-10.2-4.7-17.9c0-7.8,1.5-13.8,4.6-18c3.1-4.1,7.6-6.2,13.4-6.2c5.8,0,10.2,2.1,13.4,6.3
						c3.2,4.2,4.7,10.2,4.7,17.8c0,7.7-1.6,13.6-4.7,17.9S1476.1,60.6,1470.4,60.6z"/>
				</g>
				<g>
					<path id="DejaVuSans-Bold-52_00000047778341124476638220000004888399566513167271_" class="st1" d="M1548.8,40.6
						c3.9,0,6.8,0.7,8.5,2.2c1.7,1.5,2.6,3.9,2.6,7.2c0,3.3-0.9,5.7-2.6,7.1c-1.7,1.4-4.5,2.2-8.5,2.2h-7.9V40.6H1548.8z
						 M1540.9,27.6V0h-18.8v72.9h28.7c9.6,0,16.6-1.6,21.1-4.8c4.5-3.2,6.7-8.3,6.7-15.3c0-4.8-1.2-8.8-3.5-11.9
						c-2.3-3.1-5.8-5.4-10.5-6.8c2.6-0.6,4.9-1.9,6.9-4c2-2.1,4.1-5.2,6.2-9.4L1587.9,0h-20l-8.9,18.1c-1.8,3.6-3.6,6.1-5.5,7.5
						c-1.8,1.3-4.3,2-7.3,2H1540.9z"/>
				</g>
			</g>
		</g>
		<g id="patch_8">
			<path class="st0" d="M1591.2,50.8h223.2V16.2h-223.2V50.8z"/>
		</g>
		<g id="text_7">
			<g transform="translate(1594.592031 37.069844) scale(0.14 -0.14)">
				<g>
					<path id="DejaVuSans-Bold-44_00000180365998512527450900000004217432690109437365_" class="st1" d="M28,58.7V14.2h6.7
						c7.7,0,13.5,1.9,17.6,5.7c4.1,3.8,6.1,9.3,6.1,16.6c0,7.2-2,12.7-6.1,16.5c-4,3.8-9.9,5.7-17.6,5.7H28z M9.2,72.9H29
						c11.1,0,19.3-0.8,24.7-2.4c5.4-1.6,10.1-4.2,13.9-8c3.4-3.3,6-7.1,7.6-11.4c1.7-4.3,2.5-9.2,2.5-14.6c0-5.5-0.8-10.4-2.5-14.7
						c-1.7-4.3-4.2-8.1-7.6-11.4c-3.9-3.8-8.6-6.5-14.1-8C48.1,0.8,39.9,0,29,0H9.2V72.9z"/>
				</g>
				<g>
					<path id="DejaVuSans-Bold-45_00000072238248967068852890000015626599692592572575_" class="st1" d="M92.2,72.9h50.7V58.7H111
						V45.1h30V30.9h-30V14.2h33V0H92.2V72.9z"/>
				</g>
				<g>
					<path id="DejaVuSans-Bold-53_00000183969501436056257270000015647352202690400412_" class="st1" d="M211.2,70.6V55.2
						c-4,1.8-7.9,3.1-11.7,4c-3.8,0.9-7.4,1.4-10.8,1.4c-4.5,0-7.8-0.6-10-1.9c-2.1-1.2-3.2-3.1-3.2-5.8c0-2,0.7-3.5,2.2-4.6
						c1.4-1.1,4.1-2,7.9-2.8l8-1.6c8.1-1.6,13.9-4.1,17.3-7.4c3.4-3.3,5.1-8,5.1-14.2c0-8-2.4-14-7.2-17.9S196.8-1.4,187-1.4
						c-4.6,0-9.2,0.4-13.9,1.3c-4.7,0.9-9.3,2.2-14,3.9v15.9c4.7-2.5,9.2-4.3,13.5-5.6c4.3-1.2,8.5-1.9,12.6-1.9
						c4.1,0,7.2,0.7,9.4,2c2.2,1.4,3.3,3.3,3.3,5.9c0,2.3-0.7,4-2.2,5.3s-4.4,2.3-8.9,3.3l-7.3,1.6c-7.3,1.6-12.6,4.1-16,7.5
						c-3.4,3.4-5,8-5,13.8c0,7.3,2.3,12.8,7,16.8s11.4,5.9,20.2,5.9c4,0,8.1-0.3,12.4-0.9S206.7,71.8,211.2,70.6z"/>
				</g>
				<g>
					<path id="DejaVuSans-Bold-54_00000072977491682787888330000003811134690461043637_" class="st1" d="M223.8,72.9H291V58.7h-24.2
						V0H248v58.7h-24.2V72.9z"/>
				</g>
				<g>
					<path id="DejaVuSans-Bold-49_00000075155131222924738080000004629661907506482104_" class="st1" d="M300.7,72.9h18.8V0h-18.8
						V72.9z"/>
				</g>
				<g>
					<path id="DejaVuSans-Bold-4e_00000003100155816614551320000003701744651486547346_" class="st1" d="M337.9,72.9h21l26.5-50v50
						h17.8V0h-21l-26.5,50V0h-17.8V72.9z"/>
				</g>
				<g>
					<path id="DejaVuSans-Bold-4f_00000051365588732960088450000015632224299617624510_" class="st1" d="M454.9,60.6
						c-5.7,0-10.2-2.1-13.3-6.3s-4.7-10.2-4.7-17.9c0-7.6,1.6-13.6,4.7-17.8c3.2-4.2,7.6-6.3,13.3-6.3c5.8,0,10.2,2.1,13.4,6.3
						c3.2,4.2,4.7,10.2,4.7,17.8c0,7.7-1.6,13.6-4.7,17.9S460.7,60.6,454.9,60.6z M454.9,74.2c11.7,0,20.9-3.4,27.5-10.1
						c6.6-6.7,10-16,10-27.8c0-11.8-3.3-21-10-27.7c-6.6-6.7-15.8-10.1-27.5-10.1c-11.7,0-20.9,3.4-27.5,10.1s-10,16-10,27.7
						c0,11.8,3.3,21.1,10,27.8C434.1,70.9,443.2,74.2,454.9,74.2z"/>
				</g>
				<g>
					<path id="DejaVuSans-Bold-5f_00000086657614589665265500000016536089291712787371_" class="st1" d="M547.5-14.3v-9.3h-50v9.3
						H547.5z"/>
				</g>
				<g>
					<path id="DejaVuSans-Bold-41_00000020387387128927648230000007483106382202798260_" class="st1" d="M600.9,13.3h-29.4L566.9,0
						h-18.9l27,72.9h22.4l27-72.9h-18.9L600.9,13.3z M576.2,26.8h20l-10,29L576.2,26.8z"/>
				</g>
				<g>
					<path id="DejaVuSans-Bold-49_00000093897177570798830070000014585333847029182085_" class="st1" d="M634,72.9h18.8V0H634V72.9z
						"/>
				</g>
				<g>
					<path id="DejaVuSans-Bold-52_00000060009927999293613300000001888316156770654340_" class="st1" d="M698,40.6
						c3.9,0,6.8,0.7,8.5,2.2c1.7,1.5,2.6,3.9,2.6,7.2c0,3.3-0.9,5.7-2.6,7.1c-1.7,1.4-4.5,2.2-8.5,2.2H690V40.6H698z M690,27.6V0
						h-18.8v72.9H700c9.6,0,16.6-1.6,21.1-4.8c4.5-3.2,6.7-8.3,6.7-15.3c0-4.8-1.2-8.8-3.5-11.9c-2.3-3.1-5.8-5.4-10.5-6.8
						c2.6-0.6,4.9-1.9,6.9-4c2-2.1,4.1-5.2,6.2-9.4L737.1,0h-20l-8.9,18.1c-1.8,3.6-3.6,6.1-5.5,7.5c-1.8,1.3-4.3,2-7.3,2H690z"/>
				</g>
				<g>
					<path id="DejaVuSans-Bold-42_00000025434324786496208650000009935163629887978130_" class="st1" d="M777.4,44.7
						c3,0,5.2,0.7,6.7,2c1.5,1.3,2.3,3.2,2.3,5.8c0,2.5-0.8,4.4-2.3,5.7c-1.5,1.3-3.8,2-6.7,2H767V44.7H777.4z M778.1,12.8
						c3.8,0,6.6,0.8,8.5,2.4s2.9,4,2.9,7.2c0,3.2-0.9,5.5-2.8,7.1c-1.9,1.6-4.7,2.4-8.5,2.4h-11V12.8H778.1z M795.6,39
						c4-1.2,7.2-3.3,9.4-6.5c2.2-3.2,3.3-7,3.3-11.6c0-7-2.4-12.3-7.1-15.7c-4.8-3.4-12-5.2-21.7-5.2h-31.2v72.9h28.2
						c10.1,0,17.5-1.5,22-4.6s6.8-8,6.8-14.7c0-3.5-0.8-6.6-2.5-9C801.1,42.1,798.7,40.2,795.6,39z"/>
				</g>
				<g>
					<path id="DejaVuSans-Bold-59_00000029037433879665340750000012852761406896252288_" class="st1" d="M808.8,72.9h20.6l16.6-26
						l16.6,26h20.6l-27.8-42.2V0h-18.8v30.7L808.8,72.9z"/>
				</g>
				<g>
					<path id="DejaVuSans-Bold-54_00000152229508169047546490000006676782960427644563_" class="st1" d="M882.7,72.9h67.2V58.7
						h-24.2V0h-18.8v58.7h-24.2V72.9z"/>
				</g>
				<g>
					<path id="DejaVuSans-Bold-45_00000157988918911414229430000007409661037841272225_" class="st1" d="M959.6,72.9h50.7V58.7
						h-31.9V45.1h30V30.9h-30V14.2h33V0h-51.8V72.9z"/>
				</g>
				<g>
					<path id="DejaVuSans-Bold-5f_00000067935492310714838930000008257076404455689110_" class="st1" d="M1068.7-14.3v-9.3h-50v9.3
						H1068.7z"/>
				</g>
				<g>
					<path id="DejaVuSans-Bold-43_00000062180727924839312840000001480932128103725210_" class="st1" d="M1135.7,4
						c-3.5-1.8-7.1-3.1-10.8-4c-3.7-0.9-7.6-1.4-11.7-1.4c-12.1,0-21.8,3.4-28.9,10.2s-10.6,16-10.6,27.6c0,11.7,3.5,20.9,10.6,27.7
						c7.1,6.8,16.7,10.2,28.9,10.2c4.1,0,8-0.5,11.7-1.4c3.7-0.9,7.3-2.3,10.8-4V53.7c-3.5,2.4-6.9,4.1-10.3,5.2s-6.9,1.7-10.7,1.7
						c-6.7,0-12-2.2-15.8-6.5c-3.8-4.3-5.8-10.2-5.8-17.8c0-7.5,1.9-13.4,5.8-17.7c3.8-4.3,9.1-6.4,15.8-6.4c3.7,0,7.3,0.6,10.7,1.7
						c3.4,1.1,6.8,2.9,10.3,5.2V4z"/>
				</g>
				<g>
					<path id="DejaVuSans-Bold-50_00000031893352955858412490000003789715032627522492_" class="st1" d="M1151.3,72.9h31.2
						c9.3,0,16.4-2.1,21.4-6.2c5-4.1,7.5-10,7.5-17.6c0-7.7-2.5-13.5-7.5-17.7c-5-4.1-12.1-6.2-21.4-6.2h-12.4V0h-18.8V72.9z
						 M1170.1,59.3V38.9h10.4c3.6,0,6.5,0.9,8.5,2.7c2,1.8,3,4.3,3,7.5c0,3.2-1,5.8-3,7.5s-4.8,2.6-8.5,2.6H1170.1z"/>
				</g>
				<g>
					<path id="DejaVuSans-Bold-55_00000176740704029673854340000007132732752775437214_" class="st1" d="M1224.6,72.9h18.8V29.2
						c0-6,1-10.3,3-12.9c2-2.6,5.2-3.9,9.6-3.9c4.5,0,7.7,1.3,9.7,3.9c2,2.6,3,6.9,3,12.9v43.7h18.8V29.2c0-10.3-2.6-18-7.8-23.1
						c-5.2-5-13.1-7.6-23.7-7.6c-10.6,0-18.5,2.5-23.6,7.6c-5.2,5.1-7.8,12.7-7.8,23.1V72.9z"/>
				</g>
				<g>
					<path id="DejaVuSans-Bold-5f_00000126315384510138852890000006272439746992837802_" class="st1" d="M1346.6-14.3v-9.3h-50v9.3
						H1346.6z"/>
				</g>
				<g>
					<path id="DejaVuSans-Bold-49_00000028309765882480905890000005242686317347211959_" class="st1" d="M1355.8,72.9h18.8V0h-18.8
						V72.9z"/>
				</g>
				<g>
					<path id="DejaVuSans-Bold-51_00000002379902872201978080000015227057938167166902_" class="st1" d="M1428.3-1.3h-1.5
						c-12,0-21.4,3.3-28,10c-6.7,6.6-10,15.9-10,27.7c0,11.8,3.3,21.1,10,27.8c6.7,6.7,15.8,10.1,27.5,10.1c11.8,0,21-3.3,27.6-10
						c6.6-6.6,9.9-15.9,9.9-27.9c0-8.2-1.8-15.3-5.2-21.2s-8.5-10.4-15.1-13.4l14.7-16.4h-17.9L1428.3-1.3z M1426.3,60.6
						c-5.7,0-10.2-2.1-13.3-6.3s-4.7-10.2-4.7-17.9c0-7.8,1.5-13.8,4.6-18c3.1-4.1,7.6-6.2,13.4-6.2c5.8,0,10.2,2.1,13.4,6.3
						c3.2,4.2,4.7,10.2,4.7,17.8c0,7.7-1.6,13.6-4.7,17.9S1432.1,60.6,1426.3,60.6z"/>
				</g>
				<g>
					<path id="DejaVuSans-Bold-52_00000095303027292804894560000016719344320794293927_" class="st1" d="M1504.7,40.6
						c3.9,0,6.8,0.7,8.5,2.2c1.7,1.5,2.6,3.9,2.6,7.2c0,3.3-0.9,5.7-2.6,7.1c-1.7,1.4-4.5,2.2-8.5,2.2h-7.9V40.6H1504.7z
						 M1496.8,27.6V0H1478v72.9h28.7c9.6,0,16.6-1.6,21.1-4.8c4.5-3.2,6.7-8.3,6.7-15.3c0-4.8-1.2-8.8-3.5-11.9
						c-2.3-3.1-5.8-5.4-10.5-6.8c2.6-0.6,4.9-1.9,6.9-4c2-2.1,4.1-5.2,6.2-9.4L1543.8,0h-20l-8.9,18.1c-1.8,3.6-3.6,6.1-5.5,7.5
						c-1.8,1.3-4.3,2-7.3,2H1496.8z"/>
				</g>
			</g>
		</g>
		<g id="patch_9">
			<path class="st2" d="M252,85.5h223.2V50.8H252V85.5z"/>
		</g>
		<g id="text_8">
			<g transform="translate(410.829688 72.038125) scale(0.14 -0.14)">
				<g>
					<path id="DejaVuSans-4d" d="M9.8,72.9h14.7l18.6-49.6l18.7,49.6h14.7V0h-9.6v64L48.1,14h-9.9L19.4,64V0H9.8V72.9z"/>
				</g>
				<g>
					<path id="DejaVuSans-e9" d="M142.5,29.6v-4.4h-41.3c0.4-6.2,2.3-10.9,5.6-14.1c3.3-3.2,8-4.9,13.9-4.9c3.4,0,6.8,0.4,10,1.3
						s6.5,2.1,9.7,3.8V2.8c-3.2-1.4-6.5-2.4-9.9-3.1c-3.4-0.7-6.8-1.1-10.3-1.1c-8.7,0-15.6,2.5-20.7,7.6c-5.1,5.1-7.6,12-7.6,20.6
						c0,8.9,2.4,16,7.2,21.3c4.8,5.3,11.4,7.9,19.6,7.9c7.4,0,13.2-2.4,17.5-7.1C140.3,44.2,142.5,37.7,142.5,29.6z M133.5,32.2
						c-0.1,4.9-1.4,8.8-4.1,11.8c-2.7,2.9-6.2,4.4-10.7,4.4c-5,0-9-1.4-12-4.2c-3-2.8-4.7-6.8-5.2-12L133.5,32.2z M124.8,80h9.7
						l-15.9-18.4h-7.5L124.8,80z"/>
				</g>
				<g>
					<path id="DejaVuSans-64" d="M193.2,46.4V76h9V0h-9v8.2c-1.9-3.2-4.3-5.7-7.2-7.2c-2.9-1.6-6.3-2.4-10.4-2.4
						c-6.6,0-12,2.6-16.1,7.9c-4.1,5.3-6.2,12.2-6.2,20.8s2.1,15.5,6.2,20.8c4.2,5.3,9.5,7.9,16.1,7.9c4,0,7.5-0.8,10.4-2.4
						C188.9,52.1,191.3,49.6,193.2,46.4z M162.6,27.3c0-6.6,1.4-11.8,4.1-15.5s6.5-5.6,11.2-5.6s8.5,1.9,11.2,5.6
						c2.7,3.8,4.1,8.9,4.1,15.5s-1.4,11.8-4.1,15.5c-2.7,3.8-6.5,5.6-11.2,5.6s-8.5-1.9-11.2-5.6S162.6,33.9,162.6,27.3z"/>
				</g>
				<g>
					<path id="DejaVuSans-69" d="M220.7,54.7h9V0h-9V54.7z M220.7,76h9V64.6h-9V76z"/>
				</g>
				<g>
					<path id="DejaVuSans-61" d="M273.3,27.5c-7.3,0-12.3-0.8-15.1-2.5c-2.8-1.7-4.2-4.5-4.2-8.5c0-3.2,1.1-5.7,3.2-7.6
						c2.1-1.9,5-2.8,8.6-2.8c5,0,9,1.8,12,5.3c3,3.5,4.5,8.2,4.5,14.1v2H273.3z M291.3,31.2V0h-9v8.3c-2.1-3.3-4.6-5.8-7.7-7.3
						s-6.8-2.4-11.2-2.4c-5.6,0-10,1.6-13.4,4.7c-3.3,3.1-5,7.4-5,12.6c0,6.1,2.1,10.8,6.2,13.9c4.1,3.1,10.3,4.7,18.4,4.7h12.6v0.9
						c0,4.1-1.4,7.3-4.1,9.6s-6.5,3.4-11.5,3.4c-3.1,0-6.2-0.4-9.1-1.1c-3-0.8-5.8-1.9-8.5-3.4v8.3c3.3,1.3,6.5,2.2,9.6,2.8
						c3.1,0.6,6.1,1,9,1c7.9,0,13.8-2.1,17.7-6.2C289.3,45.8,291.3,39.5,291.3,31.2z"/>
				</g>
			</g>
		</g>
		<g id="patch_10">
			<path class="st2" d="M475.2,85.5h223.2V50.8H475.2V85.5z"/>
		</g>
		<g id="text_9">
			<g transform="translate(627.093125 72.038125) scale(0.14 -0.14)">
				<g>
					<path id="DejaVuSans-31" d="M12.4,8.3h16.1v55.6L11,60.4v9l17.4,3.5h9.9V8.3h16.1V0h-42V8.3z"/>
				</g>
				<g>
					<path id="DejaVuSans-33" d="M104.2,39.3c4.7-1,8.4-3.1,11-6.3c2.7-3.2,4-7.1,4-11.8c0-7.2-2.5-12.8-7.4-16.7
						c-4.9-3.9-12-5.9-21.1-5.9c-3.1,0-6.2,0.3-9.4,0.9C78,0.1,74.7,1,71.2,2.2v9.5c2.7-1.6,5.7-2.8,9-3.6c3.3-0.8,6.7-1.2,10.2-1.2
						c6.2,0,10.9,1.2,14.1,3.7c3.2,2.4,4.9,6,4.9,10.6c0,4.3-1.5,7.7-4.5,10.1c-3,2.4-7.2,3.6-12.6,3.6h-8.5V43h8.9
						c4.8,0,8.6,1,11.1,2.9c2.6,1.9,3.9,4.7,3.9,8.4c0,3.7-1.3,6.6-4,8.6c-2.6,2-6.4,3-11.4,3c-2.7,0-5.6-0.3-8.7-0.9
						c-3.1-0.6-6.5-1.5-10.2-2.7v8.8c3.8,1,7.3,1.8,10.5,2.3c3.3,0.5,6.4,0.8,9.2,0.8c7.5,0,13.4-1.7,17.8-5.1
						c4.4-3.4,6.5-8,6.5-13.8c0-4-1.2-7.5-3.5-10.2S108.5,40.4,104.2,39.3z"/>
				</g>
				<g>
					<path id="DejaVuSans-2e" d="M137.9,12.4h10.3V0h-10.3V12.4z"/>
				</g>
				<g>
					<path id="DejaVuSans-31_00000054263357323099901430000008555464863734503061_" d="M171.4,8.3h16.1v55.6L170,60.4v9l17.4,3.5
						h9.9V8.3h16.1V0h-42V8.3z"/>
				</g>
				<g>
					<path id="DejaVuSans-34" d="M260.5,64.3l-24.9-38.9h24.9V64.3z M257.9,72.9h12.4V25.4h10.4v-8.2h-10.4V0h-9.8v17.2h-32.9v9.5
						L257.9,72.9z"/>
				</g>
				<g>
					<path id="DejaVuSans-34_00000112612271026622403760000005007962061603359141_" d="M324.1,64.3l-24.9-38.9h24.9V64.3z
						 M321.5,72.9h12.4V25.4h10.4v-8.2h-10.4V0h-9.8v17.2h-32.9v9.5L321.5,72.9z"/>
				</g>
			</g>
		</g>
		<g id="patch_11">
			<path class="st2" d="M698.4,85.5h223.2V50.8H698.4V85.5z"/>
		</g>
		<g id="text_10">
			<g transform="translate(850.293125 72.038125) scale(0.14 -0.14)">
				<g>
					<path id="DejaVuSans-31_00000098939056902105429140000002468629240832986542_" d="M12.4,8.3h16.1v55.6L11,60.4v9l17.4,3.5h9.9
						V8.3h16.1V0h-42V8.3z"/>
				</g>
				<g>
					<path id="DejaVuSans-34_00000160171781552146743070000013415399299033235102_" d="M101.4,64.3L76.5,25.4h24.9V64.3z M98.8,72.9
						h12.4V25.4h10.4v-8.2h-10.4V0h-9.8v17.2H68.5v9.5L98.8,72.9z"/>
				</g>
				<g>
					<path id="DejaVuSans-2e_00000017496422582846034760000013631446945912440453_" d="M137.9,12.4h10.3V0h-10.3V12.4z"/>
				</g>
				<g>
					<path id="DejaVuSans-36" d="M192,40.4c-4.4,0-7.9-1.5-10.5-4.5c-2.6-3-3.9-7.2-3.9-12.4c0-5.2,1.3-9.4,3.9-12.4
						c2.6-3,6.1-4.6,10.5-4.6s7.9,1.5,10.5,4.6c2.6,3.1,3.9,7.2,3.9,12.4c0,5.3-1.3,9.4-3.9,12.4C200,38.9,196.5,40.4,192,40.4z
						 M211.6,71.3v-9c-2.5,1.2-5,2.1-7.5,2.7c-2.5,0.6-5,0.9-7.5,0.9c-6.5,0-11.5-2.2-14.9-6.6c-3.4-4.4-5.4-11-5.9-19.9
						c1.9,2.8,4.3,5,7.2,6.5c2.9,1.5,6.1,2.3,9.6,2.3c7.3,0,13.1-2.2,17.4-6.7c4.2-4.4,6.4-10.5,6.4-18.1c0-7.5-2.2-13.5-6.6-18
						c-4.4-4.5-10.3-6.8-17.7-6.8c-8.4,0-14.9,3.2-19.3,9.7c-4.5,6.5-6.7,15.8-6.7,28.1c0,11.5,2.7,20.7,8.2,27.6s12.8,10.3,22,10.3
						c2.5,0,5-0.2,7.5-0.7S208.9,72.3,211.6,71.3z"/>
				</g>
				<g>
					<path id="DejaVuSans-39" d="M233.6,1.5v9c2.5-1.2,5-2.1,7.5-2.7c2.5-0.6,5-0.9,7.5-0.9c6.5,0,11.5,2.2,14.9,6.6
						c3.4,4.4,5.4,11,5.9,20c-1.9-2.8-4.3-5-7.2-6.5c-2.9-1.5-6.1-2.2-9.6-2.2c-7.3,0-13.1,2.2-17.3,6.6c-4.2,4.4-6.4,10.5-6.4,18.1
						c0,7.5,2.2,13.5,6.6,18c4.4,4.5,10.3,6.8,17.7,6.8c8.4,0,14.9-3.2,19.3-9.7c4.4-6.5,6.7-15.8,6.7-28.1
						c0-11.5-2.7-20.7-8.2-27.5c-5.4-6.9-12.8-10.3-22-10.3c-2.5,0-5,0.2-7.5,0.7C239-0.2,236.4,0.5,233.6,1.5z M253.3,32.4
						c4.4,0,7.9,1.5,10.5,4.5c2.6,3,3.9,7.2,3.9,12.5c0,5.2-1.3,9.4-3.9,12.4c-2.6,3-6.1,4.6-10.5,4.6c-4.4,0-7.9-1.5-10.5-4.6
						c-2.6-3-3.9-7.2-3.9-12.4c0-5.3,1.3-9.4,3.9-12.5C245.3,33.9,248.8,32.4,253.3,32.4z"/>
				</g>
				<g>
					<path id="DejaVuSans-34_00000044153316940617157790000001083844081328352680_" d="M324.1,64.3l-24.9-38.9h24.9V64.3z
						 M321.5,72.9h12.4V25.4h10.4v-8.2h-10.4V0h-9.8v17.2h-32.9v9.5L321.5,72.9z"/>
				</g>
			</g>
		</g>
		<g id="patch_12">
			<path class="st2" d="M921.6,85.5h223.2V50.8H921.6V85.5z"/>
		</g>
		<g id="text_11">
			<g transform="translate(1082.400625 72.038125) scale(0.14 -0.14)">
				<g>
					<path id="DejaVuSans-33_00000147184954775429671020000002712303335337962406_" d="M40.6,39.3c4.7-1,8.4-3.1,11-6.3
						c2.7-3.2,4-7.1,4-11.8c0-7.2-2.5-12.8-7.4-16.7c-4.9-3.9-12-5.9-21.1-5.9c-3.1,0-6.2,0.3-9.4,0.9S11.1,1,7.6,2.2v9.5
						c2.7-1.6,5.7-2.8,9-3.6c3.3-0.8,6.7-1.2,10.2-1.2c6.2,0,10.9,1.2,14.1,3.7s4.9,6,4.9,10.6c0,4.3-1.5,7.7-4.5,10.1
						c-3,2.4-7.2,3.6-12.6,3.6h-8.5V43h8.9c4.8,0,8.6,1,11.1,2.9s3.9,4.7,3.9,8.4c0,3.7-1.3,6.6-4,8.6c-2.6,2-6.4,3-11.4,3
						c-2.7,0-5.6-0.3-8.7-0.9c-3.1-0.6-6.5-1.5-10.2-2.7v8.8c3.8,1,7.3,1.8,10.5,2.3s6.4,0.8,9.2,0.8c7.5,0,13.4-1.7,17.8-5.1
						c4.4-3.4,6.5-8,6.5-13.8c0-4-1.2-7.5-3.5-10.2S44.8,40.4,40.6,39.3z"/>
				</g>
				<g>
					<path id="DejaVuSans-2e_00000110466471513832189370000016194074254860474507_" d="M74.3,12.4h10.3V0H74.3V12.4z"/>
				</g>
				<g>
					<path id="DejaVuSans-30" d="M127.2,66.4c-5.1,0-8.9-2.5-11.5-7.5c-2.6-5-3.8-12.5-3.8-22.5c0-10,1.3-17.5,3.8-22.5
						c2.6-5,6.4-7.5,11.5-7.5c5.1,0,8.9,2.5,11.5,7.5c2.6,5,3.8,12.5,3.8,22.5c0,10-1.3,17.5-3.8,22.5
						C136.1,63.9,132.3,66.4,127.2,66.4z M127.2,74.2c8.2,0,14.4-3.2,18.7-9.7c4.3-6.5,6.5-15.8,6.5-28.1c0-12.3-2.2-21.6-6.5-28.1
						c-4.3-6.5-10.6-9.7-18.7-9.7c-8.2,0-14.4,3.2-18.7,9.7c-4.3,6.5-6.5,15.8-6.5,28.1c0,12.3,2.2,21.7,6.5,28.1
						C112.8,71,119,74.2,127.2,74.2z"/>
				</g>
				<g>
					<path id="DejaVuSans-30_00000168100630321501940880000004181904777871052684_" d="M190.8,66.4c-5.1,0-8.9-2.5-11.5-7.5
						c-2.6-5-3.8-12.5-3.8-22.5c0-10,1.3-17.5,3.8-22.5c2.6-5,6.4-7.5,11.5-7.5c5.1,0,8.9,2.5,11.5,7.5c2.6,5,3.8,12.5,3.8,22.5
						c0,10-1.3,17.5-3.8,22.5C199.8,63.9,195.9,66.4,190.8,66.4z M190.8,74.2c8.2,0,14.4-3.2,18.7-9.7c4.3-6.5,6.5-15.8,6.5-28.1
						c0-12.3-2.2-21.6-6.5-28.1c-4.3-6.5-10.6-9.7-18.7-9.7c-8.2,0-14.4,3.2-18.7,9.7c-4.3,6.5-6.5,15.8-6.5,28.1
						c0,12.3,2.2,21.7,6.5,28.1C176.4,71,182.6,74.2,190.8,74.2z"/>
				</g>
				<g>
					<path id="DejaVuSans-37" d="M230.9,72.9h46.9v-4.2L251.3,0H241l24.9,64.6h-35V72.9z"/>
				</g>
			</g>
		</g>
		<g id="patch_13">
			<path class="st2" d="M1144.8,85.5H1368V50.8h-223.2V85.5z"/>
		</g>
		<g id="text_12">
			<g transform="translate(1296.693125 72.038125) scale(0.14 -0.14)">
				<g>
					<path id="DejaVuSans-31_00000091728615116098482350000008362128445187932802_" d="M12.4,8.3h16.1v55.6L11,60.4v9l17.4,3.5h9.9
						V8.3h16.1V0h-42V8.3z"/>
				</g>
				<g>
					<path id="DejaVuSans-31_00000085232560452270041570000000314551168507135888_" d="M76,8.3h16.1v55.6l-17.5-3.5v9L92,72.9h9.9
						V8.3H118V0H76V8.3z"/>
				</g>
				<g>
					<path id="DejaVuSans-2e_00000147904531352192053500000015652356367973659309_" d="M137.9,12.4h10.3V0h-10.3V12.4z"/>
				</g>
				<g>
					<path id="DejaVuSans-35" d="M169.8,72.9h38.7v-8.3h-29.7V46.7c1.4,0.5,2.9,0.9,4.3,1.1c1.4,0.2,2.9,0.4,4.3,0.4
						c8.1,0,14.6-2.2,19.3-6.7c4.8-4.5,7.1-10.5,7.1-18.1c0-7.8-2.4-13.9-7.3-18.3c-4.9-4.3-11.8-6.5-20.7-6.5
						c-3.1,0-6.2,0.3-9.4,0.8c-3.2,0.5-6.4,1.3-9.8,2.3v9.9c2.9-1.6,6-2.8,9.1-3.6s6.4-1.2,9.9-1.2c5.6,0,10.1,1.5,13.4,4.4
						c3.3,3,4.9,7,4.9,12.1c0,5.1-1.6,9.1-4.9,12c-3.3,3-7.7,4.5-13.4,4.5c-2.6,0-5.3-0.3-7.9-0.9c-2.6-0.6-5.3-1.5-8-2.7V72.9z"/>
				</g>
				<g>
					<path id="DejaVuSans-37_00000002376741254756032930000010127490610045271712_" d="M230.9,72.9h46.9v-4.2L251.3,0H241l24.9,64.6
						h-35V72.9z"/>
				</g>
				<g>
					<path id="DejaVuSans-39_00000135667598104939432540000002388843768082471820_" d="M297.3,1.5v9c2.5-1.2,5-2.1,7.5-2.7
						c2.5-0.6,5-0.9,7.5-0.9c6.5,0,11.5,2.2,14.9,6.6c3.4,4.4,5.4,11,5.9,20c-1.9-2.8-4.3-5-7.2-6.5c-2.9-1.5-6.1-2.2-9.6-2.2
						c-7.3,0-13.1,2.2-17.3,6.6c-4.2,4.4-6.4,10.5-6.4,18.1c0,7.5,2.2,13.5,6.6,18c4.4,4.5,10.3,6.8,17.7,6.8
						c8.4,0,14.9-3.2,19.3-9.7c4.4-6.5,6.7-15.8,6.7-28.1c0-11.5-2.7-20.7-8.2-27.5c-5.4-6.9-12.8-10.3-22-10.3
						c-2.5,0-5,0.2-7.5,0.7C302.6-0.2,300,0.5,297.3,1.5z M316.9,32.4c4.4,0,7.9,1.5,10.5,4.5c2.6,3,3.9,7.2,3.9,12.5
						c0,5.2-1.3,9.4-3.9,12.4c-2.6,3-6.1,4.6-10.5,4.6s-7.9-1.5-10.5-4.6c-2.6-3-3.9-7.2-3.9-12.4c0-5.3,1.3-9.4,3.9-12.5
						C309,33.9,312.5,32.4,316.9,32.4z"/>
				</g>
			</g>
		</g>
		<g id="patch_14">
			<path class="st2" d="M1368,85.5h223.2V50.8H1368V85.5z"/>
		</g>
		<g id="text_13">
			<g transform="translate(1528.800625 72.038125) scale(0.14 -0.14)">
				<g>
					<path id="DejaVuSans-32" d="M19.2,8.3h34.4V0H7.3v8.3c3.7,3.9,8.8,9.1,15.3,15.6c6.5,6.5,10.5,10.7,12.2,12.6
						c3.2,3.5,5.4,6.5,6.6,9c1.3,2.5,1.9,4.9,1.9,7.2c0,3.9-1.4,7-4.1,9.5c-2.7,2.4-6.3,3.7-10.6,3.7c-3.1,0-6.4-0.5-9.8-1.6
						c-3.4-1.1-7.1-2.7-11-4.9v10c4,1.6,7.7,2.8,11.1,3.6c3.5,0.8,6.6,1.2,9.5,1.2c7.6,0,13.6-1.9,18.1-5.7
						c4.5-3.8,6.7-8.8,6.7-15.1c0-3-0.6-5.8-1.7-8.5c-1.1-2.7-3.2-5.8-6.1-9.5c-0.8-0.9-3.4-3.7-7.8-8.2
						C33.3,22.7,27.1,16.4,19.2,8.3z"/>
				</g>
				<g>
					<path id="DejaVuSans-2e_00000101078069105377662740000003747312017612455818_" d="M74.3,12.4h10.3V0H74.3V12.4z"/>
				</g>
				<g>
					<path id="DejaVuSans-39_00000089553281022734170010000006035843891268498828_" d="M106.4,1.5v9c2.5-1.2,5-2.1,7.5-2.7
						c2.5-0.6,5-0.9,7.5-0.9c6.5,0,11.5,2.2,14.9,6.6c3.4,4.4,5.4,11,5.9,20c-1.9-2.8-4.3-5-7.2-6.5c-2.9-1.5-6.1-2.2-9.6-2.2
						c-7.3,0-13.1,2.2-17.3,6.6c-4.2,4.4-6.4,10.5-6.4,18.1c0,7.5,2.2,13.5,6.6,18c4.4,4.5,10.3,6.8,17.7,6.8
						c8.4,0,14.9-3.2,19.3-9.7c4.4-6.5,6.7-15.8,6.7-28.1c0-11.5-2.7-20.7-8.2-27.5C138.4,2,131-1.4,121.8-1.4c-2.5,0-5,0.2-7.5,0.7
						C111.8-0.2,109.1,0.5,106.4,1.5z M126,32.4c4.4,0,7.9,1.5,10.5,4.5c2.6,3,3.9,7.2,3.9,12.5c0,5.2-1.3,9.4-3.9,12.4
						c-2.6,3-6.1,4.6-10.5,4.6c-4.4,0-7.9-1.5-10.5-4.6c-2.6-3-3.9-7.2-3.9-12.4c0-5.3,1.3-9.4,3.9-12.5
						C118.1,33.9,121.6,32.4,126,32.4z"/>
				</g>
				<g>
					<path id="DejaVuSans-34_00000051381242059853377110000009127393852936253593_" d="M196.8,64.3l-24.9-38.9h24.9V64.3z
						 M194.2,72.9h12.4V25.4H217v-8.2h-10.4V0h-9.8v17.2h-32.9v9.5L194.2,72.9z"/>
				</g>
				<g>
					<path id="DejaVuSans-32_00000052783024241582003880000000069175143968104081_" d="M241.8,8.3h34.4V0H230v8.3
						c3.7,3.9,8.8,9.1,15.3,15.6c6.5,6.5,10.5,10.7,12.2,12.6c3.2,3.5,5.4,6.5,6.6,9c1.3,2.5,1.9,4.9,1.9,7.2c0,3.9-1.4,7-4.1,9.5
						c-2.7,2.4-6.3,3.7-10.6,3.7c-3.1,0-6.4-0.5-9.8-1.6c-3.4-1.1-7.1-2.7-11-4.9v10c4,1.6,7.7,2.8,11.1,3.6
						c3.5,0.8,6.6,1.2,9.5,1.2c7.6,0,13.6-1.9,18.1-5.7c4.5-3.8,6.7-8.8,6.7-15.1c0-3-0.6-5.8-1.7-8.5c-1.1-2.7-3.2-5.8-6.1-9.5
						c-0.8-0.9-3.4-3.7-7.8-8.2C255.9,22.7,249.8,16.4,241.8,8.3z"/>
				</g>
			</g>
		</g>
		<g id="patch_15">
			<path class="st2" d="M1591.2,85.5h223.2V50.8h-223.2V85.5z"/>
		</g>
		<g id="text_14">
			<g transform="translate(1752.000625 72.038125) scale(0.14 -0.14)">
				<g>
					<path id="DejaVuSans-34_00000055674902807050692280000004420250257137792692_" d="M37.8,64.3L12.9,25.4h24.9V64.3z M35.2,72.9
						h12.4V25.4H58v-8.2H47.6V0h-9.8v17.2H4.9v9.5L35.2,72.9z"/>
				</g>
				<g>
					<path id="DejaVuSans-2e_00000158012173837298518570000007762824397797732480_" d="M74.3,12.4h10.3V0H74.3V12.4z"/>
				</g>
				<g>
					<path id="DejaVuSans-33_00000147213833305089619470000012126699198359849118_" d="M136,39.3c4.7-1,8.4-3.1,11-6.3
						c2.7-3.2,4-7.1,4-11.8c0-7.2-2.5-12.8-7.4-16.7c-4.9-3.9-12-5.9-21.1-5.9c-3.1,0-6.2,0.3-9.4,0.9c-3.2,0.6-6.6,1.5-10,2.7v9.5
						c2.7-1.6,5.7-2.8,9-3.6c3.3-0.8,6.7-1.2,10.2-1.2c6.2,0,10.9,1.2,14.1,3.7s4.9,6,4.9,10.6c0,4.3-1.5,7.7-4.5,10.1
						c-3,2.4-7.2,3.6-12.6,3.6h-8.5V43h8.9c4.8,0,8.6,1,11.1,2.9s3.9,4.7,3.9,8.4c0,3.7-1.3,6.6-4,8.6c-2.6,2-6.4,3-11.4,3
						c-2.7,0-5.6-0.3-8.7-0.9c-3.1-0.6-6.5-1.5-10.2-2.7v8.8c3.8,1,7.3,1.8,10.5,2.3c3.3,0.5,6.4,0.8,9.2,0.8
						c7.5,0,13.4-1.7,17.8-5.1c4.4-3.4,6.5-8,6.5-13.8c0-4-1.2-7.5-3.5-10.2S140.2,40.4,136,39.3z"/>
				</g>
				<g>
					<path id="DejaVuSans-32_00000018203188227172166900000007607813677791678135_" d="M178.2,8.3h34.4V0h-46.3v8.3
						c3.7,3.9,8.8,9.1,15.3,15.6c6.5,6.5,10.5,10.7,12.2,12.6c3.2,3.5,5.4,6.5,6.6,9c1.3,2.5,1.9,4.9,1.9,7.2c0,3.9-1.4,7-4.1,9.5
						c-2.7,2.4-6.3,3.7-10.6,3.7c-3.1,0-6.4-0.5-9.8-1.6c-3.4-1.1-7.1-2.7-11-4.9v10c4,1.6,7.7,2.8,11.1,3.6
						c3.5,0.8,6.6,1.2,9.5,1.2c7.6,0,13.6-1.9,18.1-5.7c4.5-3.8,6.7-8.8,6.7-15.1c0-3-0.6-5.8-1.7-8.5c-1.1-2.7-3.2-5.8-6.1-9.5
						c-0.8-0.9-3.4-3.7-7.8-8.2C192.3,22.7,186.2,16.4,178.2,8.3z"/>
				</g>
				<g>
					<path id="DejaVuSans-39_00000143585671949622087660000004185595595584422024_" d="M233.6,1.5v9c2.5-1.2,5-2.1,7.5-2.7
						c2.5-0.6,5-0.9,7.5-0.9c6.5,0,11.5,2.2,14.9,6.6c3.4,4.4,5.4,11,5.9,20c-1.9-2.8-4.3-5-7.2-6.5c-2.9-1.5-6.1-2.2-9.6-2.2
						c-7.3,0-13.1,2.2-17.3,6.6c-4.2,4.4-6.4,10.5-6.4,18.1c0,7.5,2.2,13.5,6.6,18c4.4,4.5,10.3,6.8,17.7,6.8
						c8.4,0,14.9-3.2,19.3-9.7c4.4-6.5,6.7-15.8,6.7-28.1c0-11.5-2.7-20.7-8.2-27.5c-5.4-6.9-12.8-10.3-22-10.3
						c-2.5,0-5,0.2-7.5,0.7C239-0.2,236.4,0.5,233.6,1.5z M253.3,32.4c4.4,0,7.9,1.5,10.5,4.5c2.6,3,3.9,7.2,3.9,12.5
						c0,5.2-1.3,9.4-3.9,12.4c-2.6,3-6.1,4.6-10.5,4.6c-4.4,0-7.9-1.5-10.5-4.6c-2.6-3-3.9-7.2-3.9-12.4c0-5.3,1.3-9.4,3.9-12.5
						C245.3,33.9,248.8,32.4,253.3,32.4z"/>
				</g>
			</g>
		</g>
		<g id="patch_16">
			<path class="st3" d="M252,120.2h223.2V85.5H252V120.2z"/>
		</g>
		<g id="text_15">
			<g transform="translate(429.615938 106.688125) scale(0.14 -0.14)">
				<g>
					<path id="DejaVuSans-53" d="M53.5,70.5v-9.6c-3.7,1.8-7.3,3.1-10.6,4c-3.3,0.9-6.5,1.3-9.6,1.3c-5.4,0-9.5-1-12.4-3.1
						s-4.4-5-4.4-8.9c0-3.2,1-5.7,2.9-7.3c1.9-1.6,5.6-3,11-4l6-1.2c7.4-1.4,12.8-3.9,16.3-7.4s5.2-8.3,5.2-14.2
						c0-7.1-2.4-12.4-7.1-16.1C46.1,0.4,39.1-1.4,30-1.4c-3.4,0-7.1,0.4-11,1.2c-3.9,0.8-7.9,1.9-12.1,3.5v10.2
						c4-2.2,7.9-3.9,11.8-5.1c3.8-1.1,7.6-1.7,11.3-1.7c5.6,0,10,1.1,13,3.3c3.1,2.2,4.6,5.4,4.6,9.5c0,3.6-1.1,6.4-3.3,8.4
						s-5.8,3.5-10.8,4.5l-6,1.2c-7.4,1.5-12.7,3.8-16,6.9c-3.3,3.1-4.9,7.5-4.9,13c0,6.4,2.3,11.5,6.8,15.2s10.8,5.6,18.8,5.6
						c3.4,0,6.9-0.3,10.5-0.9C46.2,72.7,49.8,71.7,53.5,70.5z"/>
				</g>
				<g>
					<path id="DejaVuSans-74" d="M81.8,70.2V54.7h18.5v-7H81.8V18c0-4.5,0.6-7.3,1.8-8.6s3.7-1.9,7.5-1.9h9.2V0h-9.2
						c-6.9,0-11.7,1.3-14.4,3.9c-2.6,2.6-4,7.3-4,14.1v29.7h-6.6v7h6.6v15.5H81.8z"/>
				</g>
				<g>
					<path id="DejaVuSans-64_00000082332337912085782220000016986295090494769795_" d="M148.1,46.4V76h9V0h-9v8.2
						c-1.9-3.2-4.3-5.7-7.2-7.2c-2.9-1.6-6.3-2.4-10.4-2.4c-6.6,0-12,2.6-16.1,7.9c-4.1,5.3-6.2,12.2-6.2,20.8s2.1,15.5,6.2,20.8
						c4.2,5.3,9.5,7.9,16.1,7.9c4,0,7.5-0.8,10.4-2.4C143.8,52.1,146.2,49.6,148.1,46.4z M117.5,27.3c0-6.6,1.4-11.8,4.1-15.5
						s6.5-5.6,11.2-5.6s8.5,1.9,11.2,5.6c2.7,3.8,4.1,8.9,4.1,15.5s-1.4,11.8-4.1,15.5c-2.7,3.8-6.5,5.6-11.2,5.6s-8.5-1.9-11.2-5.6
						S117.5,33.9,117.5,27.3z"/>
				</g>
			</g>
		</g>
		<g id="patch_17">
			<path class="st3" d="M475.2,120.2h223.2V85.5H475.2V120.2z"/>
		</g>
		<g id="text_16">
			<g transform="translate(636.000625 106.688125) scale(0.14 -0.14)">
				<g>
					<path id="DejaVuSans-35_00000127033393546011744450000010185097341410310293_" d="M10.8,72.9h38.7v-8.3H19.8V46.7
						c1.4,0.5,2.9,0.9,4.3,1.1c1.4,0.2,2.9,0.4,4.3,0.4c8.1,0,14.6-2.2,19.3-6.7c4.8-4.5,7.1-10.5,7.1-18.1c0-7.8-2.4-13.9-7.3-18.3
						c-4.9-4.3-11.8-6.5-20.7-6.5c-3.1,0-6.2,0.3-9.4,0.8c-3.2,0.5-6.4,1.3-9.8,2.3v9.9c2.9-1.6,6-2.8,9.1-3.6s6.4-1.2,9.9-1.2
						c5.6,0,10.1,1.5,13.4,4.4c3.3,3,4.9,7,4.9,12.1c0,5.1-1.6,9.1-4.9,12c-3.3,3-7.7,4.5-13.4,4.5c-2.6,0-5.3-0.3-7.9-0.9
						c-2.6-0.6-5.3-1.5-8-2.7V72.9z"/>
				</g>
				<g>
					<path id="DejaVuSans-2e_00000082338658169560344340000003496527753345317294_" d="M74.3,12.4h10.3V0H74.3V12.4z"/>
				</g>
				<g>
					<path id="DejaVuSans-31_00000073705285544302892330000010775361053741277587_" d="M107.8,8.3h16.1v55.6l-17.5-3.5v9l17.4,3.5
						h9.9V8.3h16.1V0h-42V8.3z"/>
				</g>
				<g>
					<path id="DejaVuSans-34_00000031910206238357951330000000590814753115144091_" d="M196.8,64.3l-24.9-38.9h24.9V64.3z
						 M194.2,72.9h12.4V25.4H217v-8.2h-10.4V0h-9.8v17.2h-32.9v9.5L194.2,72.9z"/>
				</g>
				<g>
					<path id="DejaVuSans-35_00000039101631857143056670000017332121187088882616_" d="M233.5,72.9h38.7v-8.3h-29.7V46.7
						c1.4,0.5,2.9,0.9,4.3,1.1c1.4,0.2,2.9,0.4,4.3,0.4c8.1,0,14.6-2.2,19.3-6.7c4.8-4.5,7.1-10.5,7.1-18.1c0-7.8-2.4-13.9-7.3-18.3
						c-4.9-4.3-11.8-6.5-20.7-6.5c-3.1,0-6.2,0.3-9.4,0.8c-3.2,0.5-6.4,1.3-9.8,2.3v9.9c2.9-1.6,6-2.8,9.1-3.6s6.4-1.2,9.9-1.2
						c5.6,0,10.1,1.5,13.4,4.4c3.3,3,4.9,7,4.9,12.1c0,5.1-1.6,9.1-4.9,12c-3.3,3-7.7,4.5-13.4,4.5c-2.6,0-5.3-0.3-7.9-0.9
						c-2.6-0.6-5.3-1.5-8-2.7V72.9z"/>
				</g>
			</g>
		</g>
		<g id="patch_18">
			<path class="st3" d="M698.4,120.2h223.2V85.5H698.4V120.2z"/>
		</g>
		<g id="text_17">
			<g transform="translate(859.200625 106.688125) scale(0.14 -0.14)">
				<g>
					<path id="DejaVuSans-36_00000125578564957526477060000018262535143184557965_" d="M33,40.4c-4.4,0-7.9-1.5-10.5-4.5
						c-2.6-3-3.9-7.2-3.9-12.4c0-5.2,1.3-9.4,3.9-12.4c2.6-3,6.1-4.6,10.5-4.6s7.9,1.5,10.5,4.6c2.6,3.1,3.9,7.2,3.9,12.4
						c0,5.3-1.3,9.4-3.9,12.4C40.9,38.9,37.4,40.4,33,40.4z M52.6,71.3v-9c-2.5,1.2-5,2.1-7.5,2.7c-2.5,0.6-5,0.9-7.5,0.9
						c-6.5,0-11.5-2.2-14.9-6.6c-3.4-4.4-5.4-11-5.9-19.9c1.9,2.8,4.3,5,7.2,6.5c2.9,1.5,6.1,2.3,9.6,2.3c7.3,0,13.1-2.2,17.4-6.7
						c4.2-4.4,6.4-10.5,6.4-18.1c0-7.5-2.2-13.5-6.6-18C46.3,0.8,40.4-1.4,33-1.4c-8.4,0-14.9,3.2-19.3,9.7C9.2,14.7,7,24.1,7,36.4
						c0,11.5,2.7,20.7,8.2,27.6c5.5,6.9,12.8,10.3,22,10.3c2.5,0,5-0.2,7.5-0.7S49.9,72.3,52.6,71.3z"/>
				</g>
				<g>
					<path id="DejaVuSans-2e_00000025421101888627284240000012158863648178234783_" d="M74.3,12.4h10.3V0H74.3V12.4z"/>
				</g>
				<g>
					<path id="DejaVuSans-35_00000047018629724046705130000006705663509325366413_" d="M106.2,72.9h38.7v-8.3h-29.7V46.7
						c1.4,0.5,2.9,0.9,4.3,1.1c1.4,0.2,2.9,0.4,4.3,0.4c8.1,0,14.6-2.2,19.3-6.7c4.8-4.5,7.1-10.5,7.1-18.1c0-7.8-2.4-13.9-7.3-18.3
						c-4.9-4.3-11.8-6.5-20.7-6.5c-3.1,0-6.2,0.3-9.4,0.8c-3.2,0.5-6.4,1.3-9.8,2.3v9.9c2.9-1.6,6-2.8,9.1-3.6s6.4-1.2,9.9-1.2
						c5.6,0,10.1,1.5,13.4,4.4c3.3,3,4.9,7,4.9,12.1c0,5.1-1.6,9.1-4.9,12c-3.3,3-7.7,4.5-13.4,4.5c-2.6,0-5.3-0.3-7.9-0.9
						c-2.6-0.6-5.3-1.5-8-2.7V72.9z"/>
				</g>
				<g>
					<path id="DejaVuSans-34_00000138546381883536179930000018371296850193395898_" d="M196.8,64.3l-24.9-38.9h24.9V64.3z
						 M194.2,72.9h12.4V25.4H217v-8.2h-10.4V0h-9.8v17.2h-32.9v9.5L194.2,72.9z"/>
				</g>
				<g>
					<path id="DejaVuSans-32_00000060714955857538204740000010617535958695041976_" d="M241.8,8.3h34.4V0H230v8.3
						c3.7,3.9,8.8,9.1,15.3,15.6c6.5,6.5,10.5,10.7,12.2,12.6c3.2,3.5,5.4,6.5,6.6,9c1.3,2.5,1.9,4.9,1.9,7.2c0,3.9-1.4,7-4.1,9.5
						c-2.7,2.4-6.3,3.7-10.6,3.7c-3.1,0-6.4-0.5-9.8-1.6c-3.4-1.1-7.1-2.7-11-4.9v10c4,1.6,7.7,2.8,11.1,3.6
						c3.5,0.8,6.6,1.2,9.5,1.2c7.6,0,13.6-1.9,18.1-5.7c4.5-3.8,6.7-8.8,6.7-15.1c0-3-0.6-5.8-1.7-8.5c-1.1-2.7-3.2-5.8-6.1-9.5
						c-0.8-0.9-3.4-3.7-7.8-8.2C255.9,22.7,249.8,16.4,241.8,8.3z"/>
				</g>
			</g>
		</g>
		<g id="patch_19">
			<path class="st3" d="M921.6,120.2h223.2V85.5H921.6V120.2z"/>
		</g>
		<g id="text_18">
			<g transform="translate(1082.400625 106.688125) scale(0.14 -0.14)">
				<g>
					<path id="DejaVuSans-31_00000153701164395622016430000007320390378005093250_" d="M12.4,8.3h16.1v55.6L11,60.4v9l17.4,3.5h9.9
						V8.3h16.1V0h-42V8.3z"/>
				</g>
				<g>
					<path id="DejaVuSans-2e_00000109741021410273472800000011600214587360797854_" d="M74.3,12.4h10.3V0H74.3V12.4z"/>
				</g>
				<g>
					<path id="DejaVuSans-31_00000172434194880928010890000006441845439506843031_" d="M107.8,8.3h16.1v55.6l-17.5-3.5v9l17.4,3.5
						h9.9V8.3h16.1V0h-42V8.3z"/>
				</g>
				<g>
					<path id="DejaVuSans-31_00000137815638524719846210000011693021496727361666_" d="M171.4,8.3h16.1v55.6L170,60.4v9l17.4,3.5
						h9.9V8.3h16.1V0h-42V8.3z"/>
				</g>
				<g>
					<path id="DejaVuSans-36_00000000181882852660969910000012120585895141896607_" d="M255.7,40.4c-4.4,0-7.9-1.5-10.5-4.5
						c-2.6-3-3.9-7.2-3.9-12.4c0-5.2,1.3-9.4,3.9-12.4c2.6-3,6.1-4.6,10.5-4.6c4.4,0,7.9,1.5,10.5,4.6c2.6,3.1,3.9,7.2,3.9,12.4
						c0,5.3-1.3,9.4-3.9,12.4C263.6,38.9,260.1,40.4,255.7,40.4z M275.2,71.3v-9c-2.5,1.2-5,2.1-7.5,2.7c-2.5,0.6-5,0.9-7.5,0.9
						c-6.5,0-11.5-2.2-14.9-6.6c-3.4-4.4-5.4-11-5.9-19.9c1.9,2.8,4.3,5,7.2,6.5c2.9,1.5,6.1,2.3,9.6,2.3c7.3,0,13.1-2.2,17.4-6.7
						c4.2-4.4,6.4-10.5,6.4-18.1c0-7.5-2.2-13.5-6.6-18c-4.4-4.5-10.3-6.8-17.7-6.8c-8.4,0-14.9,3.2-19.3,9.7
						c-4.5,6.5-6.7,15.8-6.7,28.1c0,11.5,2.7,20.7,8.2,27.6c5.5,6.9,12.8,10.3,22,10.3c2.5,0,5-0.2,7.5-0.7S272.5,72.3,275.2,71.3z"
						/>
				</g>
			</g>
		</g>
		<g id="patch_20">
			<path class="st3" d="M1144.8,120.2H1368V85.5h-223.2V120.2z"/>
		</g>
		<g id="text_19">
			<g transform="translate(1305.600625 106.688125) scale(0.14 -0.14)">
				<g>
					<path id="DejaVuSans-34_00000029751187168717652470000016248409575799370382_" d="M37.8,64.3L12.9,25.4h24.9V64.3z M35.2,72.9
						h12.4V25.4H58v-8.2H47.6V0h-9.8v17.2H4.9v9.5L35.2,72.9z"/>
				</g>
				<g>
					<path id="DejaVuSans-2e_00000017481664290929766240000009078447585497366175_" d="M74.3,12.4h10.3V0H74.3V12.4z"/>
				</g>
				<g>
					<path id="DejaVuSans-38" d="M127.2,34.6c-4.7,0-8.4-1.3-11.1-3.8c-2.7-2.5-4-6-4-10.3c0-4.4,1.3-7.8,4-10.4
						c2.7-2.5,6.4-3.8,11.1-3.8s8.4,1.3,11.1,3.8c2.7,2.5,4.1,6,4.1,10.3c0,4.4-1.3,7.8-4,10.3C135.6,33.4,131.9,34.6,127.2,34.6z
						 M117.3,38.8c-4.2,1-7.5,3-9.9,5.9c-2.4,2.9-3.5,6.4-3.5,10.6c0,5.8,2.1,10.4,6.2,13.8c4.2,3.4,9.8,5.1,17.1,5.1
						c7.3,0,13-1.7,17.1-5.1s6.2-8,6.2-13.8c0-4.2-1.2-7.7-3.5-10.6c-2.4-2.9-5.6-4.9-9.8-5.9c4.8-1.1,8.4-3.3,11.1-6.5
						c2.7-3.2,4-7.2,4-11.8c0-7.1-2.2-12.5-6.5-16.3c-4.3-3.8-10.5-5.7-18.5-5.7c-8,0-14.2,1.9-18.5,5.7c-4.3,3.8-6.5,9.2-6.5,16.3
						c0,4.6,1.3,8.6,4,11.8C108.9,35.5,112.6,37.7,117.3,38.8z M113.7,54.4c0-3.8,1.2-6.7,3.5-8.8c2.4-2.1,5.7-3.2,9.9-3.2
						c4.2,0,7.6,1.1,9.9,3.2c2.4,2.1,3.6,5.1,3.6,8.8c0,3.8-1.2,6.7-3.6,8.8c-2.4,2.1-5.7,3.2-9.9,3.2c-4.3,0-7.6-1.1-9.9-3.2
						C114.9,61.1,113.7,58.2,113.7,54.4z"/>
				</g>
				<g>
					<path id="DejaVuSans-30_00000150790694334266826430000017376827706208486274_" d="M190.8,66.4c-5.1,0-8.9-2.5-11.5-7.5
						c-2.6-5-3.8-12.5-3.8-22.5c0-10,1.3-17.5,3.8-22.5c2.6-5,6.4-7.5,11.5-7.5c5.1,0,8.9,2.5,11.5,7.5c2.6,5,3.8,12.5,3.8,22.5
						c0,10-1.3,17.5-3.8,22.5C199.8,63.9,195.9,66.4,190.8,66.4z M190.8,74.2c8.2,0,14.4-3.2,18.7-9.7c4.3-6.5,6.5-15.8,6.5-28.1
						c0-12.3-2.2-21.6-6.5-28.1c-4.3-6.5-10.6-9.7-18.7-9.7c-8.2,0-14.4,3.2-18.7,9.7c-4.3,6.5-6.5,15.8-6.5,28.1
						c0,12.3,2.2,21.7,6.5,28.1C176.4,71,182.6,74.2,190.8,74.2z"/>
				</g>
				<g>
					<path id="DejaVuSans-31_00000143607189804962170140000014997925830424403134_" d="M235.1,8.3h16.1v55.6l-17.5-3.5v9l17.4,3.5
						h9.9V8.3H277V0h-42V8.3z"/>
				</g>
			</g>
		</g>
		<g id="patch_21">
			<path class="st3" d="M1368,120.2h223.2V85.5H1368V120.2z"/>
		</g>
		<g id="text_20">
			<g transform="translate(1528.800625 106.688125) scale(0.14 -0.14)">
				<g>
					<path id="DejaVuSans-31_00000119119765937610213220000003062595874424086448_" d="M12.4,8.3h16.1v55.6L11,60.4v9l17.4,3.5h9.9
						V8.3h16.1V0h-42V8.3z"/>
				</g>
				<g>
					<path id="DejaVuSans-2e_00000039108025629099000490000007023252513213893001_" d="M74.3,12.4h10.3V0H74.3V12.4z"/>
				</g>
				<g>
					<path id="DejaVuSans-32_00000002358848299512277590000012183810116785963965_" d="M114.6,8.3H149V0h-46.3v8.3
						c3.7,3.9,8.8,9.1,15.3,15.6c6.5,6.5,10.5,10.7,12.2,12.6c3.2,3.5,5.4,6.5,6.6,9c1.3,2.5,1.9,4.9,1.9,7.2c0,3.9-1.4,7-4.1,9.5
						c-2.7,2.4-6.3,3.7-10.6,3.7c-3.1,0-6.4-0.5-9.8-1.6c-3.4-1.1-7.1-2.7-11-4.9v10c4,1.6,7.7,2.8,11.1,3.6
						c3.5,0.8,6.6,1.2,9.5,1.2c7.6,0,13.6-1.9,18.1-5.7c4.5-3.8,6.7-8.8,6.7-15.1c0-3-0.6-5.8-1.7-8.5c-1.1-2.7-3.2-5.8-6.1-9.5
						c-0.8-0.9-3.4-3.7-7.8-8.2C128.7,22.7,122.5,16.4,114.6,8.3z"/>
				</g>
				<g>
					<path id="DejaVuSans-32_00000101105713435244086910000009463212459480997263_" d="M178.2,8.3h34.4V0h-46.3v8.3
						c3.7,3.9,8.8,9.1,15.3,15.6c6.5,6.5,10.5,10.7,12.2,12.6c3.2,3.5,5.4,6.5,6.6,9c1.3,2.5,1.9,4.9,1.9,7.2c0,3.9-1.4,7-4.1,9.5
						c-2.7,2.4-6.3,3.7-10.6,3.7c-3.1,0-6.4-0.5-9.8-1.6c-3.4-1.1-7.1-2.7-11-4.9v10c4,1.6,7.7,2.8,11.1,3.6
						c3.5,0.8,6.6,1.2,9.5,1.2c7.6,0,13.6-1.9,18.1-5.7c4.5-3.8,6.7-8.8,6.7-15.1c0-3-0.6-5.8-1.7-8.5c-1.1-2.7-3.2-5.8-6.1-9.5
						c-0.8-0.9-3.4-3.7-7.8-8.2C192.3,22.7,186.2,16.4,178.2,8.3z"/>
				</g>
				<g>
					<path id="DejaVuSans-38_00000007390128024797427820000014532141213361593480_" d="M254.4,34.6c-4.7,0-8.4-1.3-11.1-3.8
						c-2.7-2.5-4-6-4-10.3c0-4.4,1.3-7.8,4-10.4c2.7-2.5,6.4-3.8,11.1-3.8s8.4,1.3,11.1,3.8c2.7,2.5,4.1,6,4.1,10.3
						c0,4.4-1.3,7.8-4,10.3C262.9,33.4,259.2,34.6,254.4,34.6z M244.6,38.8c-4.2,1-7.5,3-9.9,5.9c-2.4,2.9-3.5,6.4-3.5,10.6
						c0,5.8,2.1,10.4,6.2,13.8c4.2,3.4,9.8,5.1,17.1,5.1c7.3,0,13-1.7,17.1-5.1s6.2-8,6.2-13.8c0-4.2-1.2-7.7-3.5-10.6
						c-2.4-2.9-5.6-4.9-9.8-5.9c4.8-1.1,8.4-3.3,11.1-6.5c2.7-3.2,4-7.2,4-11.8c0-7.1-2.2-12.5-6.5-16.3c-4.3-3.8-10.5-5.7-18.5-5.7
						c-8,0-14.2,1.9-18.5,5.7c-4.3,3.8-6.5,9.2-6.5,16.3c0,4.6,1.3,8.6,4,11.8C236.1,35.5,239.8,37.7,244.6,38.8z M241,54.4
						c0-3.8,1.2-6.7,3.5-8.8c2.4-2.1,5.7-3.2,9.9-3.2c4.2,0,7.6,1.1,9.9,3.2c2.4,2.1,3.6,5.1,3.6,8.8c0,3.8-1.2,6.7-3.6,8.8
						c-2.4,2.1-5.7,3.2-9.9,3.2c-4.3,0-7.6-1.1-9.9-3.2C242.1,61.1,241,58.2,241,54.4z"/>
				</g>
			</g>
		</g>
		<g id="patch_22">
			<path class="st3" d="M1591.2,120.2h223.2V85.5h-223.2V120.2z"/>
		</g>
		<g id="text_21">
			<g transform="translate(1752.000625 106.688125) scale(0.14 -0.14)">
				<g>
					<path id="DejaVuSans-31_00000029019668985082585040000004922850827369270668_" d="M12.4,8.3h16.1v55.6L11,60.4v9l17.4,3.5h9.9
						V8.3h16.1V0h-42V8.3z"/>
				</g>
				<g>
					<path id="DejaVuSans-2e_00000040552979559366563290000002813790357400948129_" d="M74.3,12.4h10.3V0H74.3V12.4z"/>
				</g>
				<g>
					<path id="DejaVuSans-36_00000096029738938275534840000000846698333462363299_" d="M128.4,40.4c-4.4,0-7.9-1.5-10.5-4.5
						c-2.6-3-3.9-7.2-3.9-12.4c0-5.2,1.3-9.4,3.9-12.4c2.6-3,6.1-4.6,10.5-4.6s7.9,1.5,10.5,4.6c2.6,3.1,3.9,7.2,3.9,12.4
						c0,5.3-1.3,9.4-3.9,12.4C136.4,38.9,132.9,40.4,128.4,40.4z M148,71.3v-9c-2.5,1.2-5,2.1-7.5,2.7c-2.5,0.6-5,0.9-7.5,0.9
						c-6.5,0-11.5-2.2-14.9-6.6c-3.4-4.4-5.4-11-5.9-19.9c1.9,2.8,4.3,5,7.2,6.5c2.9,1.5,6.1,2.3,9.6,2.3c7.3,0,13.1-2.2,17.4-6.7
						c4.2-4.4,6.4-10.5,6.4-18.1c0-7.5-2.2-13.5-6.6-18c-4.4-4.5-10.3-6.8-17.7-6.8c-8.4,0-14.9,3.2-19.3,9.7
						c-4.5,6.5-6.7,15.8-6.7,28.1c0,11.5,2.7,20.7,8.2,27.6c5.5,6.9,12.8,10.3,22,10.3c2.5,0,5-0.2,7.5-0.7S145.3,72.3,148,71.3z"/>
				</g>
				<g>
					<path id="DejaVuSans-36_00000067939078541327750600000017468552788262316688_" d="M192,40.4c-4.4,0-7.9-1.5-10.5-4.5
						c-2.6-3-3.9-7.2-3.9-12.4c0-5.2,1.3-9.4,3.9-12.4c2.6-3,6.1-4.6,10.5-4.6s7.9,1.5,10.5,4.6c2.6,3.1,3.9,7.2,3.9,12.4
						c0,5.3-1.3,9.4-3.9,12.4C200,38.9,196.5,40.4,192,40.4z M211.6,71.3v-9c-2.5,1.2-5,2.1-7.5,2.7c-2.5,0.6-5,0.9-7.5,0.9
						c-6.5,0-11.5-2.2-14.9-6.6c-3.4-4.4-5.4-11-5.9-19.9c1.9,2.8,4.3,5,7.2,6.5c2.9,1.5,6.1,2.3,9.6,2.3c7.3,0,13.1-2.2,17.4-6.7
						c4.2-4.4,6.4-10.5,6.4-18.1c0-7.5-2.2-13.5-6.6-18c-4.4-4.5-10.3-6.8-17.7-6.8c-8.4,0-14.9,3.2-19.3,9.7
						c-4.5,6.5-6.7,15.8-6.7,28.1c0,11.5,2.7,20.7,8.2,27.6c5.5,6.9,12.8,10.3,22,10.3c2.5,0,5-0.2,7.5-0.7S208.9,72.3,211.6,71.3z"
						/>
				</g>
				<g>
					<path id="DejaVuSans-33_00000123419623155709562020000000303889115543691405_" d="M263.2,39.3c4.7-1,8.4-3.1,11-6.3
						c2.7-3.2,4-7.1,4-11.8c0-7.2-2.5-12.8-7.4-16.7c-4.9-3.9-12-5.9-21.1-5.9c-3.1,0-6.2,0.3-9.4,0.9c-3.2,0.6-6.6,1.5-10,2.7v9.5
						c2.7-1.6,5.7-2.8,9-3.6c3.3-0.8,6.7-1.2,10.2-1.2c6.2,0,10.9,1.2,14.1,3.7s4.9,6,4.9,10.6c0,4.3-1.5,7.7-4.5,10.1
						c-3,2.4-7.2,3.6-12.6,3.6h-8.5V43h8.9c4.8,0,8.6,1,11.1,2.9s3.9,4.7,3.9,8.4c0,3.7-1.3,6.6-4,8.6c-2.6,2-6.4,3-11.4,3
						c-2.7,0-5.6-0.3-8.7-0.9c-3.1-0.6-6.5-1.5-10.2-2.7v8.8c3.8,1,7.3,1.8,10.5,2.3c3.3,0.5,6.4,0.8,9.2,0.8
						c7.5,0,13.4-1.7,17.8-5.1c4.4-3.4,6.5-8,6.5-13.8c0-4-1.2-7.5-3.5-10.2S267.5,40.4,263.2,39.3z"/>
				</g>
			</g>
		</g>
	</g>
</g>
</svg>
