<?xml version="1.0" encoding="utf-8" standalone="no"?>
<!DOCTYPE svg PUBLIC "-//W3C//DTD SVG 1.1//EN"
  "http://www.w3.org/Graphics/SVG/1.1/DTD/svg11.dtd">
<svg xmlns:xlink="http://www.w3.org/1999/xlink" width="2116.8pt" height="135pt" viewBox="0 0 2116.8 135" xmlns="http://www.w3.org/2000/svg" version="1.1">
 <metadata>
  <rdf:RDF xmlns:dc="http://purl.org/dc/elements/1.1/" xmlns:cc="http://creativecommons.org/ns#" xmlns:rdf="http://www.w3.org/1999/02/22-rdf-syntax-ns#">
   <cc:Work>
    <dc:type rdf:resource="http://purl.org/dc/dcmitype/StillImage"/>
    <dc:date>2023-11-21T00:17:05.511067</dc:date>
    <dc:format>image/svg+xml</dc:format>
    <dc:creator>
     <cc:Agent>
      <dc:title>Matplotlib v3.8.0, https://matplotlib.org/</dc:title>
     </cc:Agent>
    </dc:creator>
   </cc:Work>
  </rdf:RDF>
 </metadata>
 <defs>
  <style type="text/css">*{stroke-linejoin: round; stroke-linecap: butt}</style>
 </defs>
 <g id="figure_1">
  <g id="patch_1">
   <path d="M 0 135 
L 2116.8 135 
L 2116.8 0 
L 0 0 
z
" style="fill: #ffffff"/>
  </g>
  <g id="axes_1">
   <g id="table_1">
    <g id="patch_2">
     <path d="M 264.6 50.85 
L 498.96 50.85 
L 498.96 16.2 
L 264.6 16.2 
z
" style="fill: #40466e; stroke: #ffffff; stroke-linejoin: miter"/>
    </g>
    <g id="text_1">
     <!-- DESCRITIVO -->
     <g style="fill: #ffffff" transform="translate(334.388906 37.388125) scale(0.14 -0.14)">
      <defs>
       <path id="DejaVuSans-Bold-44" d="M 1791 3756 
L 1791 909 
L 2222 909 
Q 2959 909 3348 1275 
Q 3738 1641 3738 2338 
Q 3738 3031 3350 3393 
Q 2963 3756 2222 3756 
L 1791 3756 
z
M 588 4666 
L 1856 4666 
Q 2919 4666 3439 4514 
Q 3959 4363 4331 4000 
Q 4659 3684 4818 3271 
Q 4978 2859 4978 2338 
Q 4978 1809 4818 1395 
Q 4659 981 4331 666 
Q 3956 303 3431 151 
Q 2906 0 1856 0 
L 588 0 
L 588 4666 
z
" transform="scale(0.015625)"/>
       <path id="DejaVuSans-Bold-45" d="M 588 4666 
L 3834 4666 
L 3834 3756 
L 1791 3756 
L 1791 2888 
L 3713 2888 
L 3713 1978 
L 1791 1978 
L 1791 909 
L 3903 909 
L 3903 0 
L 588 0 
L 588 4666 
z
" transform="scale(0.015625)"/>
       <path id="DejaVuSans-Bold-53" d="M 3834 4519 
L 3834 3531 
Q 3450 3703 3084 3790 
Q 2719 3878 2394 3878 
Q 1963 3878 1756 3759 
Q 1550 3641 1550 3391 
Q 1550 3203 1689 3098 
Q 1828 2994 2194 2919 
L 2706 2816 
Q 3484 2659 3812 2340 
Q 4141 2022 4141 1434 
Q 4141 663 3683 286 
Q 3225 -91 2284 -91 
Q 1841 -91 1394 -6 
Q 947 78 500 244 
L 500 1259 
Q 947 1022 1364 901 
Q 1781 781 2169 781 
Q 2563 781 2772 912 
Q 2981 1044 2981 1288 
Q 2981 1506 2839 1625 
Q 2697 1744 2272 1838 
L 1806 1941 
Q 1106 2091 782 2419 
Q 459 2747 459 3303 
Q 459 4000 909 4375 
Q 1359 4750 2203 4750 
Q 2588 4750 2994 4692 
Q 3400 4634 3834 4519 
z
" transform="scale(0.015625)"/>
       <path id="DejaVuSans-Bold-43" d="M 4288 256 
Q 3956 84 3597 -3 
Q 3238 -91 2847 -91 
Q 1681 -91 1000 561 
Q 319 1213 319 2328 
Q 319 3447 1000 4098 
Q 1681 4750 2847 4750 
Q 3238 4750 3597 4662 
Q 3956 4575 4288 4403 
L 4288 3438 
Q 3953 3666 3628 3772 
Q 3303 3878 2944 3878 
Q 2300 3878 1931 3465 
Q 1563 3053 1563 2328 
Q 1563 1606 1931 1193 
Q 2300 781 2944 781 
Q 3303 781 3628 887 
Q 3953 994 4288 1222 
L 4288 256 
z
" transform="scale(0.015625)"/>
       <path id="DejaVuSans-Bold-52" d="M 2297 2597 
Q 2675 2597 2839 2737 
Q 3003 2878 3003 3200 
Q 3003 3519 2839 3656 
Q 2675 3794 2297 3794 
L 1791 3794 
L 1791 2597 
L 2297 2597 
z
M 1791 1766 
L 1791 0 
L 588 0 
L 588 4666 
L 2425 4666 
Q 3347 4666 3776 4356 
Q 4206 4047 4206 3378 
Q 4206 2916 3982 2619 
Q 3759 2322 3309 2181 
Q 3556 2125 3751 1926 
Q 3947 1728 4147 1325 
L 4800 0 
L 3519 0 
L 2950 1159 
Q 2778 1509 2601 1637 
Q 2425 1766 2131 1766 
L 1791 1766 
z
" transform="scale(0.015625)"/>
       <path id="DejaVuSans-Bold-49" d="M 588 4666 
L 1791 4666 
L 1791 0 
L 588 0 
L 588 4666 
z
" transform="scale(0.015625)"/>
       <path id="DejaVuSans-Bold-54" d="M 31 4666 
L 4331 4666 
L 4331 3756 
L 2784 3756 
L 2784 0 
L 1581 0 
L 1581 3756 
L 31 3756 
L 31 4666 
z
" transform="scale(0.015625)"/>
       <path id="DejaVuSans-Bold-56" d="M 31 4666 
L 1241 4666 
L 2478 1222 
L 3713 4666 
L 4922 4666 
L 3194 0 
L 1759 0 
L 31 4666 
z
" transform="scale(0.015625)"/>
       <path id="DejaVuSans-Bold-4f" d="M 2719 3878 
Q 2169 3878 1866 3472 
Q 1563 3066 1563 2328 
Q 1563 1594 1866 1187 
Q 2169 781 2719 781 
Q 3272 781 3575 1187 
Q 3878 1594 3878 2328 
Q 3878 3066 3575 3472 
Q 3272 3878 2719 3878 
z
M 2719 4750 
Q 3844 4750 4481 4106 
Q 5119 3463 5119 2328 
Q 5119 1197 4481 553 
Q 3844 -91 2719 -91 
Q 1597 -91 958 553 
Q 319 1197 319 2328 
Q 319 3463 958 4106 
Q 1597 4750 2719 4750 
z
" transform="scale(0.015625)"/>
      </defs>
      <use xlink:href="#DejaVuSans-Bold-44"/>
      <use xlink:href="#DejaVuSans-Bold-45" x="83.007812"/>
      <use xlink:href="#DejaVuSans-Bold-53" x="151.318359"/>
      <use xlink:href="#DejaVuSans-Bold-43" x="223.339844"/>
      <use xlink:href="#DejaVuSans-Bold-52" x="296.728516"/>
      <use xlink:href="#DejaVuSans-Bold-49" x="373.730469"/>
      <use xlink:href="#DejaVuSans-Bold-54" x="410.9375"/>
      <use xlink:href="#DejaVuSans-Bold-49" x="479.150391"/>
      <use xlink:href="#DejaVuSans-Bold-56" x="516.357422"/>
      <use xlink:href="#DejaVuSans-Bold-4f" x="592"/>
     </g>
    </g>
    <g id="patch_3">
     <path d="M 498.96 50.85 
L 733.32 50.85 
L 733.32 16.2 
L 498.96 16.2 
z
" style="fill: #40466e; stroke: #ffffff; stroke-linejoin: miter"/>
    </g>
    <g id="text_2">
     <!-- ETL_AIRFLOW_RAM_IQR -->
     <g style="fill: #ffffff" transform="translate(523.831875 37.069844) scale(0.14 -0.14)">
      <defs>
       <path id="DejaVuSans-Bold-4c" d="M 588 4666 
L 1791 4666 
L 1791 909 
L 3903 909 
L 3903 0 
L 588 0 
L 588 4666 
z
" transform="scale(0.015625)"/>
       <path id="DejaVuSans-Bold-5f" d="M 3200 -916 
L 3200 -1509 
L 0 -1509 
L 0 -916 
L 3200 -916 
z
" transform="scale(0.015625)"/>
       <path id="DejaVuSans-Bold-41" d="M 3419 850 
L 1538 850 
L 1241 0 
L 31 0 
L 1759 4666 
L 3194 4666 
L 4922 0 
L 3713 0 
L 3419 850 
z
M 1838 1716 
L 3116 1716 
L 2478 3572 
L 1838 1716 
z
" transform="scale(0.015625)"/>
       <path id="DejaVuSans-Bold-46" d="M 588 4666 
L 3834 4666 
L 3834 3756 
L 1791 3756 
L 1791 2888 
L 3713 2888 
L 3713 1978 
L 1791 1978 
L 1791 0 
L 588 0 
L 588 4666 
z
" transform="scale(0.015625)"/>
       <path id="DejaVuSans-Bold-57" d="M 191 4666 
L 1344 4666 
L 2150 1275 
L 2950 4666 
L 4109 4666 
L 4909 1275 
L 5716 4666 
L 6859 4666 
L 5759 0 
L 4372 0 
L 3525 3547 
L 2688 0 
L 1300 0 
L 191 4666 
z
" transform="scale(0.015625)"/>
       <path id="DejaVuSans-Bold-4d" d="M 588 4666 
L 2119 4666 
L 3181 2169 
L 4250 4666 
L 5778 4666 
L 5778 0 
L 4641 0 
L 4641 3413 
L 3566 897 
L 2803 897 
L 1728 3413 
L 1728 0 
L 588 0 
L 588 4666 
z
" transform="scale(0.015625)"/>
       <path id="DejaVuSans-Bold-51" d="M 2847 -84 
L 2753 -84 
Q 1600 -84 959 553 
Q 319 1191 319 2328 
Q 319 3463 958 4106 
Q 1597 4750 2719 4750 
Q 3853 4750 4486 4112 
Q 5119 3475 5119 2328 
Q 5119 1541 4783 972 
Q 4447 403 3816 116 
L 4756 -934 
L 3609 -934 
L 2847 -84 
z
M 2719 3878 
Q 2169 3878 1866 3472 
Q 1563 3066 1563 2328 
Q 1563 1578 1859 1179 
Q 2156 781 2719 781 
Q 3272 781 3575 1187 
Q 3878 1594 3878 2328 
Q 3878 3066 3575 3472 
Q 3272 3878 2719 3878 
z
" transform="scale(0.015625)"/>
      </defs>
      <use xlink:href="#DejaVuSans-Bold-45"/>
      <use xlink:href="#DejaVuSans-Bold-54" x="68.310547"/>
      <use xlink:href="#DejaVuSans-Bold-4c" x="136.523438"/>
      <use xlink:href="#DejaVuSans-Bold-5f" x="200.244141"/>
      <use xlink:href="#DejaVuSans-Bold-41" x="250.244141"/>
      <use xlink:href="#DejaVuSans-Bold-49" x="327.636719"/>
      <use xlink:href="#DejaVuSans-Bold-52" x="364.84375"/>
      <use xlink:href="#DejaVuSans-Bold-46" x="441.845703"/>
      <use xlink:href="#DejaVuSans-Bold-4c" x="510.15625"/>
      <use xlink:href="#DejaVuSans-Bold-4f" x="570.251953"/>
      <use xlink:href="#DejaVuSans-Bold-57" x="655.261719"/>
      <use xlink:href="#DejaVuSans-Bold-5f" x="765.564453"/>
      <use xlink:href="#DejaVuSans-Bold-52" x="815.564453"/>
      <use xlink:href="#DejaVuSans-Bold-41" x="892.566406"/>
      <use xlink:href="#DejaVuSans-Bold-4d" x="969.958984"/>
      <use xlink:href="#DejaVuSans-Bold-5f" x="1069.470703"/>
      <use xlink:href="#DejaVuSans-Bold-49" x="1119.470703"/>
      <use xlink:href="#DejaVuSans-Bold-51" x="1156.677734"/>
      <use xlink:href="#DejaVuSans-Bold-52" x="1241.6875"/>
     </g>
    </g>
    <g id="patch_4">
     <path d="M 733.32 50.85 
L 967.68 50.85 
L 967.68 16.2 
L 733.32 16.2 
z
" style="fill: #40466e; stroke: #ffffff; stroke-linejoin: miter"/>
    </g>
    <g id="text_3">
     <!-- ETL_AIRBYTE_RAM_IQR -->
     <g style="fill: #ffffff" transform="translate(761.27625 37.069844) scale(0.14 -0.14)">
      <defs>
       <path id="DejaVuSans-Bold-42" d="M 2456 2859 
Q 2741 2859 2887 2984 
Q 3034 3109 3034 3353 
Q 3034 3594 2887 3720 
Q 2741 3847 2456 3847 
L 1791 3847 
L 1791 2859 
L 2456 2859 
z
M 2497 819 
Q 2859 819 3042 972 
Q 3225 1125 3225 1434 
Q 3225 1738 3044 1889 
Q 2863 2041 2497 2041 
L 1791 2041 
L 1791 819 
L 2497 819 
z
M 3616 2497 
Q 4003 2384 4215 2081 
Q 4428 1778 4428 1338 
Q 4428 663 3972 331 
Q 3516 0 2584 0 
L 588 0 
L 588 4666 
L 2394 4666 
Q 3366 4666 3802 4372 
Q 4238 4078 4238 3431 
Q 4238 3091 4078 2852 
Q 3919 2613 3616 2497 
z
" transform="scale(0.015625)"/>
       <path id="DejaVuSans-Bold-59" d="M -63 4666 
L 1253 4666 
L 2316 3003 
L 3378 4666 
L 4697 4666 
L 2919 1966 
L 2919 0 
L 1716 0 
L 1716 1966 
L -63 4666 
z
" transform="scale(0.015625)"/>
      </defs>
      <use xlink:href="#DejaVuSans-Bold-45"/>
      <use xlink:href="#DejaVuSans-Bold-54" x="68.310547"/>
      <use xlink:href="#DejaVuSans-Bold-4c" x="136.523438"/>
      <use xlink:href="#DejaVuSans-Bold-5f" x="200.244141"/>
      <use xlink:href="#DejaVuSans-Bold-41" x="250.244141"/>
      <use xlink:href="#DejaVuSans-Bold-49" x="327.636719"/>
      <use xlink:href="#DejaVuSans-Bold-52" x="364.84375"/>
      <use xlink:href="#DejaVuSans-Bold-42" x="441.845703"/>
      <use xlink:href="#DejaVuSans-Bold-59" x="512.566406"/>
      <use xlink:href="#DejaVuSans-Bold-54" x="584.978516"/>
      <use xlink:href="#DejaVuSans-Bold-45" x="653.191406"/>
      <use xlink:href="#DejaVuSans-Bold-5f" x="721.501953"/>
      <use xlink:href="#DejaVuSans-Bold-52" x="771.501953"/>
      <use xlink:href="#DejaVuSans-Bold-41" x="848.503906"/>
      <use xlink:href="#DejaVuSans-Bold-4d" x="925.896484"/>
      <use xlink:href="#DejaVuSans-Bold-5f" x="1025.408203"/>
      <use xlink:href="#DejaVuSans-Bold-49" x="1075.408203"/>
      <use xlink:href="#DejaVuSans-Bold-51" x="1112.615234"/>
      <use xlink:href="#DejaVuSans-Bold-52" x="1197.625"/>
     </g>
    </g>
    <g id="patch_5">
     <path d="M 967.68 50.85 
L 1202.04 50.85 
L 1202.04 16.2 
L 967.68 16.2 
z
" style="fill: #40466e; stroke: #ffffff; stroke-linejoin: miter"/>
    </g>
    <g id="text_4">
     <!-- FONTE_AIRFLOW_RAM_IQR -->
     <g style="fill: #ffffff" transform="translate(980.421094 37.069844) scale(0.14 -0.14)">
      <defs>
       <path id="DejaVuSans-Bold-4e" d="M 588 4666 
L 1931 4666 
L 3628 1466 
L 3628 4666 
L 4769 4666 
L 4769 0 
L 3425 0 
L 1728 3200 
L 1728 0 
L 588 0 
L 588 4666 
z
" transform="scale(0.015625)"/>
      </defs>
      <use xlink:href="#DejaVuSans-Bold-46"/>
      <use xlink:href="#DejaVuSans-Bold-4f" x="68.310547"/>
      <use xlink:href="#DejaVuSans-Bold-4e" x="153.320312"/>
      <use xlink:href="#DejaVuSans-Bold-54" x="237.011719"/>
      <use xlink:href="#DejaVuSans-Bold-45" x="305.224609"/>
      <use xlink:href="#DejaVuSans-Bold-5f" x="373.535156"/>
      <use xlink:href="#DejaVuSans-Bold-41" x="423.535156"/>
      <use xlink:href="#DejaVuSans-Bold-49" x="500.927734"/>
      <use xlink:href="#DejaVuSans-Bold-52" x="538.134766"/>
      <use xlink:href="#DejaVuSans-Bold-46" x="615.136719"/>
      <use xlink:href="#DejaVuSans-Bold-4c" x="683.447266"/>
      <use xlink:href="#DejaVuSans-Bold-4f" x="743.542969"/>
      <use xlink:href="#DejaVuSans-Bold-57" x="828.552734"/>
      <use xlink:href="#DejaVuSans-Bold-5f" x="938.855469"/>
      <use xlink:href="#DejaVuSans-Bold-52" x="988.855469"/>
      <use xlink:href="#DejaVuSans-Bold-41" x="1065.857422"/>
      <use xlink:href="#DejaVuSans-Bold-4d" x="1143.25"/>
      <use xlink:href="#DejaVuSans-Bold-5f" x="1242.761719"/>
      <use xlink:href="#DejaVuSans-Bold-49" x="1292.761719"/>
      <use xlink:href="#DejaVuSans-Bold-51" x="1329.96875"/>
      <use xlink:href="#DejaVuSans-Bold-52" x="1414.978516"/>
     </g>
    </g>
    <g id="patch_6">
     <path d="M 1202.04 50.85 
L 1436.4 50.85 
L 1436.4 16.2 
L 1202.04 16.2 
z
" style="fill: #40466e; stroke: #ffffff; stroke-linejoin: miter"/>
    </g>
    <g id="text_5">
     <!-- FONTE_AIRBYTE_RAM_IQR -->
     <g style="fill: #ffffff" transform="translate(1217.865469 37.069844) scale(0.14 -0.14)">
      <use xlink:href="#DejaVuSans-Bold-46"/>
      <use xlink:href="#DejaVuSans-Bold-4f" x="68.310547"/>
      <use xlink:href="#DejaVuSans-Bold-4e" x="153.320312"/>
      <use xlink:href="#DejaVuSans-Bold-54" x="237.011719"/>
      <use xlink:href="#DejaVuSans-Bold-45" x="305.224609"/>
      <use xlink:href="#DejaVuSans-Bold-5f" x="373.535156"/>
      <use xlink:href="#DejaVuSans-Bold-41" x="423.535156"/>
      <use xlink:href="#DejaVuSans-Bold-49" x="500.927734"/>
      <use xlink:href="#DejaVuSans-Bold-52" x="538.134766"/>
      <use xlink:href="#DejaVuSans-Bold-42" x="615.136719"/>
      <use xlink:href="#DejaVuSans-Bold-59" x="685.857422"/>
      <use xlink:href="#DejaVuSans-Bold-54" x="758.269531"/>
      <use xlink:href="#DejaVuSans-Bold-45" x="826.482422"/>
      <use xlink:href="#DejaVuSans-Bold-5f" x="894.792969"/>
      <use xlink:href="#DejaVuSans-Bold-52" x="944.792969"/>
      <use xlink:href="#DejaVuSans-Bold-41" x="1021.794922"/>
      <use xlink:href="#DejaVuSans-Bold-4d" x="1099.1875"/>
      <use xlink:href="#DejaVuSans-Bold-5f" x="1198.699219"/>
      <use xlink:href="#DejaVuSans-Bold-49" x="1248.699219"/>
      <use xlink:href="#DejaVuSans-Bold-51" x="1285.90625"/>
      <use xlink:href="#DejaVuSans-Bold-52" x="1370.916016"/>
     </g>
    </g>
    <g id="patch_7">
     <path d="M 1436.4 50.85 
L 1670.76 50.85 
L 1670.76 16.2 
L 1436.4 16.2 
z
" style="fill: #40466e; stroke: #ffffff; stroke-linejoin: miter"/>
    </g>
    <g id="text_6">
     <!-- DESTINO_AIRFLOW_RAM_IQR -->
     <g style="fill: #ffffff" transform="translate(1440.466563 37.069844) scale(0.14 -0.14)">
      <use xlink:href="#DejaVuSans-Bold-44"/>
      <use xlink:href="#DejaVuSans-Bold-45" x="83.007812"/>
      <use xlink:href="#DejaVuSans-Bold-53" x="151.318359"/>
      <use xlink:href="#DejaVuSans-Bold-54" x="223.339844"/>
      <use xlink:href="#DejaVuSans-Bold-49" x="291.552734"/>
      <use xlink:href="#DejaVuSans-Bold-4e" x="328.759766"/>
      <use xlink:href="#DejaVuSans-Bold-4f" x="412.451172"/>
      <use xlink:href="#DejaVuSans-Bold-5f" x="497.460938"/>
      <use xlink:href="#DejaVuSans-Bold-41" x="547.460938"/>
      <use xlink:href="#DejaVuSans-Bold-49" x="624.853516"/>
      <use xlink:href="#DejaVuSans-Bold-52" x="662.060547"/>
      <use xlink:href="#DejaVuSans-Bold-46" x="739.0625"/>
      <use xlink:href="#DejaVuSans-Bold-4c" x="807.373047"/>
      <use xlink:href="#DejaVuSans-Bold-4f" x="867.46875"/>
      <use xlink:href="#DejaVuSans-Bold-57" x="952.478516"/>
      <use xlink:href="#DejaVuSans-Bold-5f" x="1062.78125"/>
      <use xlink:href="#DejaVuSans-Bold-52" x="1112.78125"/>
      <use xlink:href="#DejaVuSans-Bold-41" x="1189.783203"/>
      <use xlink:href="#DejaVuSans-Bold-4d" x="1267.175781"/>
      <use xlink:href="#DejaVuSans-Bold-5f" x="1366.6875"/>
      <use xlink:href="#DejaVuSans-Bold-49" x="1416.6875"/>
      <use xlink:href="#DejaVuSans-Bold-51" x="1453.894531"/>
      <use xlink:href="#DejaVuSans-Bold-52" x="1538.904297"/>
     </g>
    </g>
    <g id="patch_8">
     <path d="M 1670.76 50.85 
L 1905.12 50.85 
L 1905.12 16.2 
L 1670.76 16.2 
z
" style="fill: #40466e; stroke: #ffffff; stroke-linejoin: miter"/>
    </g>
    <g id="text_7">
     <!-- DESTINO_AIRBYTE_RAM_IQR -->
     <g style="fill: #ffffff" transform="translate(1677.910938 37.069844) scale(0.14 -0.14)">
      <use xlink:href="#DejaVuSans-Bold-44"/>
      <use xlink:href="#DejaVuSans-Bold-45" x="83.007812"/>
      <use xlink:href="#DejaVuSans-Bold-53" x="151.318359"/>
      <use xlink:href="#DejaVuSans-Bold-54" x="223.339844"/>
      <use xlink:href="#DejaVuSans-Bold-49" x="291.552734"/>
      <use xlink:href="#DejaVuSans-Bold-4e" x="328.759766"/>
      <use xlink:href="#DejaVuSans-Bold-4f" x="412.451172"/>
      <use xlink:href="#DejaVuSans-Bold-5f" x="497.460938"/>
      <use xlink:href="#DejaVuSans-Bold-41" x="547.460938"/>
      <use xlink:href="#DejaVuSans-Bold-49" x="624.853516"/>
      <use xlink:href="#DejaVuSans-Bold-52" x="662.060547"/>
      <use xlink:href="#DejaVuSans-Bold-42" x="739.0625"/>
      <use xlink:href="#DejaVuSans-Bold-59" x="809.783203"/>
      <use xlink:href="#DejaVuSans-Bold-54" x="882.195312"/>
      <use xlink:href="#DejaVuSans-Bold-45" x="950.408203"/>
      <use xlink:href="#DejaVuSans-Bold-5f" x="1018.71875"/>
      <use xlink:href="#DejaVuSans-Bold-52" x="1068.71875"/>
      <use xlink:href="#DejaVuSans-Bold-41" x="1145.720703"/>
      <use xlink:href="#DejaVuSans-Bold-4d" x="1223.113281"/>
      <use xlink:href="#DejaVuSans-Bold-5f" x="1322.625"/>
      <use xlink:href="#DejaVuSans-Bold-49" x="1372.625"/>
      <use xlink:href="#DejaVuSans-Bold-51" x="1409.832031"/>
      <use xlink:href="#DejaVuSans-Bold-52" x="1494.841797"/>
     </g>
    </g>
    <g id="patch_9">
     <path d="M 264.6 85.5 
L 498.96 85.5 
L 498.96 50.85 
L 264.6 50.85 
z
" style="fill: #ffffff; stroke: #ffffff; stroke-linejoin: miter"/>
    </g>
    <g id="text_8">
     <!-- Média -->
     <g transform="translate(433.473687 72.038125) scale(0.14 -0.14)">
      <defs>
       <path id="DejaVuSans-4d" d="M 628 4666 
L 1569 4666 
L 2759 1491 
L 3956 4666 
L 4897 4666 
L 4897 0 
L 4281 0 
L 4281 4097 
L 3078 897 
L 2444 897 
L 1241 4097 
L 1241 0 
L 628 0 
L 628 4666 
z
" transform="scale(0.015625)"/>
       <path id="DejaVuSans-e9" d="M 3597 1894 
L 3597 1613 
L 953 1613 
Q 991 1019 1311 708 
Q 1631 397 2203 397 
Q 2534 397 2845 478 
Q 3156 559 3463 722 
L 3463 178 
Q 3153 47 2828 -22 
Q 2503 -91 2169 -91 
Q 1331 -91 842 396 
Q 353 884 353 1716 
Q 353 2575 817 3079 
Q 1281 3584 2069 3584 
Q 2775 3584 3186 3129 
Q 3597 2675 3597 1894 
z
M 3022 2063 
Q 3016 2534 2758 2815 
Q 2500 3097 2075 3097 
Q 1594 3097 1305 2825 
Q 1016 2553 972 2059 
L 3022 2063 
z
M 2466 5119 
L 3088 5119 
L 2070 3944 
L 1591 3944 
L 2466 5119 
z
" transform="scale(0.015625)"/>
       <path id="DejaVuSans-64" d="M 2906 2969 
L 2906 4863 
L 3481 4863 
L 3481 0 
L 2906 0 
L 2906 525 
Q 2725 213 2448 61 
Q 2172 -91 1784 -91 
Q 1150 -91 751 415 
Q 353 922 353 1747 
Q 353 2572 751 3078 
Q 1150 3584 1784 3584 
Q 2172 3584 2448 3432 
Q 2725 3281 2906 2969 
z
M 947 1747 
Q 947 1113 1208 752 
Q 1469 391 1925 391 
Q 2381 391 2643 752 
Q 2906 1113 2906 1747 
Q 2906 2381 2643 2742 
Q 2381 3103 1925 3103 
Q 1469 3103 1208 2742 
Q 947 2381 947 1747 
z
" transform="scale(0.015625)"/>
       <path id="DejaVuSans-69" d="M 603 3500 
L 1178 3500 
L 1178 0 
L 603 0 
L 603 3500 
z
M 603 4863 
L 1178 4863 
L 1178 4134 
L 603 4134 
L 603 4863 
z
" transform="scale(0.015625)"/>
       <path id="DejaVuSans-61" d="M 2194 1759 
Q 1497 1759 1228 1600 
Q 959 1441 959 1056 
Q 959 750 1161 570 
Q 1363 391 1709 391 
Q 2188 391 2477 730 
Q 2766 1069 2766 1631 
L 2766 1759 
L 2194 1759 
z
M 3341 1997 
L 3341 0 
L 2766 0 
L 2766 531 
Q 2569 213 2275 61 
Q 1981 -91 1556 -91 
Q 1019 -91 701 211 
Q 384 513 384 1019 
Q 384 1609 779 1909 
Q 1175 2209 1959 2209 
L 2766 2209 
L 2766 2266 
Q 2766 2663 2505 2880 
Q 2244 3097 1772 3097 
Q 1472 3097 1187 3025 
Q 903 2953 641 2809 
L 641 3341 
Q 956 3463 1253 3523 
Q 1550 3584 1831 3584 
Q 2591 3584 2966 3190 
Q 3341 2797 3341 1997 
z
" transform="scale(0.015625)"/>
      </defs>
      <use xlink:href="#DejaVuSans-4d"/>
      <use xlink:href="#DejaVuSans-e9" x="86.279297"/>
      <use xlink:href="#DejaVuSans-64" x="147.802734"/>
      <use xlink:href="#DejaVuSans-69" x="211.279297"/>
      <use xlink:href="#DejaVuSans-61" x="239.0625"/>
     </g>
    </g>
    <g id="patch_10">
     <path d="M 498.96 85.5 
L 733.32 85.5 
L 733.32 50.85 
L 498.96 50.85 
z
" style="fill: #ffffff; stroke: #ffffff; stroke-linejoin: miter"/>
    </g>
    <g id="text_9">
     <!-- 2.748 -->
     <g transform="translate(669.804625 72.038125) scale(0.14 -0.14)">
      <defs>
       <path id="DejaVuSans-32" d="M 1228 531 
L 3431 531 
L 3431 0 
L 469 0 
L 469 531 
Q 828 903 1448 1529 
Q 2069 2156 2228 2338 
Q 2531 2678 2651 2914 
Q 2772 3150 2772 3378 
Q 2772 3750 2511 3984 
Q 2250 4219 1831 4219 
Q 1534 4219 1204 4116 
Q 875 4013 500 3803 
L 500 4441 
Q 881 4594 1212 4672 
Q 1544 4750 1819 4750 
Q 2544 4750 2975 4387 
Q 3406 4025 3406 3419 
Q 3406 3131 3298 2873 
Q 3191 2616 2906 2266 
Q 2828 2175 2409 1742 
Q 1991 1309 1228 531 
z
" transform="scale(0.015625)"/>
       <path id="DejaVuSans-2e" d="M 684 794 
L 1344 794 
L 1344 0 
L 684 0 
L 684 794 
z
" transform="scale(0.015625)"/>
       <path id="DejaVuSans-37" d="M 525 4666 
L 3525 4666 
L 3525 4397 
L 1831 0 
L 1172 0 
L 2766 4134 
L 525 4134 
L 525 4666 
z
" transform="scale(0.015625)"/>
       <path id="DejaVuSans-34" d="M 2419 4116 
L 825 1625 
L 2419 1625 
L 2419 4116 
z
M 2253 4666 
L 3047 4666 
L 3047 1625 
L 3713 1625 
L 3713 1100 
L 3047 1100 
L 3047 0 
L 2419 0 
L 2419 1100 
L 313 1100 
L 313 1709 
L 2253 4666 
z
" transform="scale(0.015625)"/>
       <path id="DejaVuSans-38" d="M 2034 2216 
Q 1584 2216 1326 1975 
Q 1069 1734 1069 1313 
Q 1069 891 1326 650 
Q 1584 409 2034 409 
Q 2484 409 2743 651 
Q 3003 894 3003 1313 
Q 3003 1734 2745 1975 
Q 2488 2216 2034 2216 
z
M 1403 2484 
Q 997 2584 770 2862 
Q 544 3141 544 3541 
Q 544 4100 942 4425 
Q 1341 4750 2034 4750 
Q 2731 4750 3128 4425 
Q 3525 4100 3525 3541 
Q 3525 3141 3298 2862 
Q 3072 2584 2669 2484 
Q 3125 2378 3379 2068 
Q 3634 1759 3634 1313 
Q 3634 634 3220 271 
Q 2806 -91 2034 -91 
Q 1263 -91 848 271 
Q 434 634 434 1313 
Q 434 1759 690 2068 
Q 947 2378 1403 2484 
z
M 1172 3481 
Q 1172 3119 1398 2916 
Q 1625 2713 2034 2713 
Q 2441 2713 2670 2916 
Q 2900 3119 2900 3481 
Q 2900 3844 2670 4047 
Q 2441 4250 2034 4250 
Q 1625 4250 1398 4047 
Q 1172 3844 1172 3481 
z
" transform="scale(0.015625)"/>
      </defs>
      <use xlink:href="#DejaVuSans-32"/>
      <use xlink:href="#DejaVuSans-2e" x="63.623047"/>
      <use xlink:href="#DejaVuSans-37" x="95.410156"/>
      <use xlink:href="#DejaVuSans-34" x="159.033203"/>
      <use xlink:href="#DejaVuSans-38" x="222.65625"/>
     </g>
    </g>
    <g id="patch_11">
     <path d="M 733.32 85.5 
L 967.68 85.5 
L 967.68 50.85 
L 733.32 50.85 
z
" style="fill: #ffffff; stroke: #ffffff; stroke-linejoin: miter"/>
    </g>
    <g id="text_10">
     <!-- 5.099 -->
     <g transform="translate(904.164625 72.038125) scale(0.14 -0.14)">
      <defs>
       <path id="DejaVuSans-35" d="M 691 4666 
L 3169 4666 
L 3169 4134 
L 1269 4134 
L 1269 2991 
Q 1406 3038 1543 3061 
Q 1681 3084 1819 3084 
Q 2600 3084 3056 2656 
Q 3513 2228 3513 1497 
Q 3513 744 3044 326 
Q 2575 -91 1722 -91 
Q 1428 -91 1123 -41 
Q 819 9 494 109 
L 494 744 
Q 775 591 1075 516 
Q 1375 441 1709 441 
Q 2250 441 2565 725 
Q 2881 1009 2881 1497 
Q 2881 1984 2565 2268 
Q 2250 2553 1709 2553 
Q 1456 2553 1204 2497 
Q 953 2441 691 2322 
L 691 4666 
z
" transform="scale(0.015625)"/>
       <path id="DejaVuSans-30" d="M 2034 4250 
Q 1547 4250 1301 3770 
Q 1056 3291 1056 2328 
Q 1056 1369 1301 889 
Q 1547 409 2034 409 
Q 2525 409 2770 889 
Q 3016 1369 3016 2328 
Q 3016 3291 2770 3770 
Q 2525 4250 2034 4250 
z
M 2034 4750 
Q 2819 4750 3233 4129 
Q 3647 3509 3647 2328 
Q 3647 1150 3233 529 
Q 2819 -91 2034 -91 
Q 1250 -91 836 529 
Q 422 1150 422 2328 
Q 422 3509 836 4129 
Q 1250 4750 2034 4750 
z
" transform="scale(0.015625)"/>
       <path id="DejaVuSans-39" d="M 703 97 
L 703 672 
Q 941 559 1184 500 
Q 1428 441 1663 441 
Q 2288 441 2617 861 
Q 2947 1281 2994 2138 
Q 2813 1869 2534 1725 
Q 2256 1581 1919 1581 
Q 1219 1581 811 2004 
Q 403 2428 403 3163 
Q 403 3881 828 4315 
Q 1253 4750 1959 4750 
Q 2769 4750 3195 4129 
Q 3622 3509 3622 2328 
Q 3622 1225 3098 567 
Q 2575 -91 1691 -91 
Q 1453 -91 1209 -44 
Q 966 3 703 97 
z
M 1959 2075 
Q 2384 2075 2632 2365 
Q 2881 2656 2881 3163 
Q 2881 3666 2632 3958 
Q 2384 4250 1959 4250 
Q 1534 4250 1286 3958 
Q 1038 3666 1038 3163 
Q 1038 2656 1286 2365 
Q 1534 2075 1959 2075 
z
" transform="scale(0.015625)"/>
      </defs>
      <use xlink:href="#DejaVuSans-35"/>
      <use xlink:href="#DejaVuSans-2e" x="63.623047"/>
      <use xlink:href="#DejaVuSans-30" x="95.410156"/>
      <use xlink:href="#DejaVuSans-39" x="159.033203"/>
      <use xlink:href="#DejaVuSans-39" x="222.65625"/>
     </g>
    </g>
    <g id="patch_12">
     <path d="M 967.68 85.5 
L 1202.04 85.5 
L 1202.04 50.85 
L 967.68 50.85 
z
" style="fill: #ffffff; stroke: #ffffff; stroke-linejoin: miter"/>
    </g>
    <g id="text_11">
     <!-- 0.006 -->
     <g transform="translate(1138.524625 72.038125) scale(0.14 -0.14)">
      <defs>
       <path id="DejaVuSans-36" d="M 2113 2584 
Q 1688 2584 1439 2293 
Q 1191 2003 1191 1497 
Q 1191 994 1439 701 
Q 1688 409 2113 409 
Q 2538 409 2786 701 
Q 3034 994 3034 1497 
Q 3034 2003 2786 2293 
Q 2538 2584 2113 2584 
z
M 3366 4563 
L 3366 3988 
Q 3128 4100 2886 4159 
Q 2644 4219 2406 4219 
Q 1781 4219 1451 3797 
Q 1122 3375 1075 2522 
Q 1259 2794 1537 2939 
Q 1816 3084 2150 3084 
Q 2853 3084 3261 2657 
Q 3669 2231 3669 1497 
Q 3669 778 3244 343 
Q 2819 -91 2113 -91 
Q 1303 -91 875 529 
Q 447 1150 447 2328 
Q 447 3434 972 4092 
Q 1497 4750 2381 4750 
Q 2619 4750 2861 4703 
Q 3103 4656 3366 4563 
z
" transform="scale(0.015625)"/>
      </defs>
      <use xlink:href="#DejaVuSans-30"/>
      <use xlink:href="#DejaVuSans-2e" x="63.623047"/>
      <use xlink:href="#DejaVuSans-30" x="95.410156"/>
      <use xlink:href="#DejaVuSans-30" x="159.033203"/>
      <use xlink:href="#DejaVuSans-36" x="222.65625"/>
     </g>
    </g>
    <g id="patch_13">
     <path d="M 1202.04 85.5 
L 1436.4 85.5 
L 1436.4 50.85 
L 1202.04 50.85 
z
" style="fill: #ffffff; stroke: #ffffff; stroke-linejoin: miter"/>
    </g>
    <g id="text_12">
     <!-- 0.040 -->
     <g transform="translate(1372.884625 72.038125) scale(0.14 -0.14)">
      <use xlink:href="#DejaVuSans-30"/>
      <use xlink:href="#DejaVuSans-2e" x="63.623047"/>
      <use xlink:href="#DejaVuSans-30" x="95.410156"/>
      <use xlink:href="#DejaVuSans-34" x="159.033203"/>
      <use xlink:href="#DejaVuSans-30" x="222.65625"/>
     </g>
    </g>
    <g id="patch_14">
     <path d="M 1436.4 85.5 
L 1670.76 85.5 
L 1670.76 50.85 
L 1436.4 50.85 
z
" style="fill: #ffffff; stroke: #ffffff; stroke-linejoin: miter"/>
    </g>
    <g id="text_13">
     <!-- 0.042 -->
     <g transform="translate(1607.244625 72.038125) scale(0.14 -0.14)">
      <use xlink:href="#DejaVuSans-30"/>
      <use xlink:href="#DejaVuSans-2e" x="63.623047"/>
      <use xlink:href="#DejaVuSans-30" x="95.410156"/>
      <use xlink:href="#DejaVuSans-34" x="159.033203"/>
      <use xlink:href="#DejaVuSans-32" x="222.65625"/>
     </g>
    </g>
    <g id="patch_15">
     <path d="M 1670.76 85.5 
L 1905.12 85.5 
L 1905.12 50.85 
L 1670.76 50.85 
z
" style="fill: #ffffff; stroke: #ffffff; stroke-linejoin: miter"/>
    </g>
    <g id="text_14">
     <!-- 0.063 -->
     <g transform="translate(1841.604625 72.038125) scale(0.14 -0.14)">
      <defs>
       <path id="DejaVuSans-33" d="M 2597 2516 
Q 3050 2419 3304 2112 
Q 3559 1806 3559 1356 
Q 3559 666 3084 287 
Q 2609 -91 1734 -91 
Q 1441 -91 1130 -33 
Q 819 25 488 141 
L 488 750 
Q 750 597 1062 519 
Q 1375 441 1716 441 
Q 2309 441 2620 675 
Q 2931 909 2931 1356 
Q 2931 1769 2642 2001 
Q 2353 2234 1838 2234 
L 1294 2234 
L 1294 2753 
L 1863 2753 
Q 2328 2753 2575 2939 
Q 2822 3125 2822 3475 
Q 2822 3834 2567 4026 
Q 2313 4219 1838 4219 
Q 1578 4219 1281 4162 
Q 984 4106 628 3988 
L 628 4550 
Q 988 4650 1302 4700 
Q 1616 4750 1894 4750 
Q 2613 4750 3031 4423 
Q 3450 4097 3450 3541 
Q 3450 3153 3228 2886 
Q 3006 2619 2597 2516 
z
" transform="scale(0.015625)"/>
      </defs>
      <use xlink:href="#DejaVuSans-30"/>
      <use xlink:href="#DejaVuSans-2e" x="63.623047"/>
      <use xlink:href="#DejaVuSans-30" x="95.410156"/>
      <use xlink:href="#DejaVuSans-36" x="159.033203"/>
      <use xlink:href="#DejaVuSans-33" x="222.65625"/>
     </g>
    </g>
    <g id="patch_16">
     <path d="M 264.6 120.15 
L 498.96 120.15 
L 498.96 85.5 
L 264.6 85.5 
z
" style="fill: #f1f1f2; stroke: #ffffff; stroke-linejoin: miter"/>
    </g>
    <g id="text_15">
     <!-- Std -->
     <g transform="translate(452.259937 106.688125) scale(0.14 -0.14)">
      <defs>
       <path id="DejaVuSans-53" d="M 3425 4513 
L 3425 3897 
Q 3066 4069 2747 4153 
Q 2428 4238 2131 4238 
Q 1616 4238 1336 4038 
Q 1056 3838 1056 3469 
Q 1056 3159 1242 3001 
Q 1428 2844 1947 2747 
L 2328 2669 
Q 3034 2534 3370 2195 
Q 3706 1856 3706 1288 
Q 3706 609 3251 259 
Q 2797 -91 1919 -91 
Q 1588 -91 1214 -16 
Q 841 59 441 206 
L 441 856 
Q 825 641 1194 531 
Q 1563 422 1919 422 
Q 2459 422 2753 634 
Q 3047 847 3047 1241 
Q 3047 1584 2836 1778 
Q 2625 1972 2144 2069 
L 1759 2144 
Q 1053 2284 737 2584 
Q 422 2884 422 3419 
Q 422 4038 858 4394 
Q 1294 4750 2059 4750 
Q 2388 4750 2728 4690 
Q 3069 4631 3425 4513 
z
" transform="scale(0.015625)"/>
       <path id="DejaVuSans-74" d="M 1172 4494 
L 1172 3500 
L 2356 3500 
L 2356 3053 
L 1172 3053 
L 1172 1153 
Q 1172 725 1289 603 
Q 1406 481 1766 481 
L 2356 481 
L 2356 0 
L 1766 0 
Q 1100 0 847 248 
Q 594 497 594 1153 
L 594 3053 
L 172 3053 
L 172 3500 
L 594 3500 
L 594 4494 
L 1172 4494 
z
" transform="scale(0.015625)"/>
      </defs>
      <use xlink:href="#DejaVuSans-53"/>
      <use xlink:href="#DejaVuSans-74" x="63.476562"/>
      <use xlink:href="#DejaVuSans-64" x="102.685547"/>
     </g>
    </g>
    <g id="patch_17">
     <path d="M 498.96 120.15 
L 733.32 120.15 
L 733.32 85.5 
L 498.96 85.5 
z
" style="fill: #f1f1f2; stroke: #ffffff; stroke-linejoin: miter"/>
    </g>
    <g id="text_16">
     <!-- 1.800 -->
     <g transform="translate(669.804625 106.688125) scale(0.14 -0.14)">
      <defs>
       <path id="DejaVuSans-31" d="M 794 531 
L 1825 531 
L 1825 4091 
L 703 3866 
L 703 4441 
L 1819 4666 
L 2450 4666 
L 2450 531 
L 3481 531 
L 3481 0 
L 794 0 
L 794 531 
z
" transform="scale(0.015625)"/>
      </defs>
      <use xlink:href="#DejaVuSans-31"/>
      <use xlink:href="#DejaVuSans-2e" x="63.623047"/>
      <use xlink:href="#DejaVuSans-38" x="95.410156"/>
      <use xlink:href="#DejaVuSans-30" x="159.033203"/>
      <use xlink:href="#DejaVuSans-30" x="222.65625"/>
     </g>
    </g>
    <g id="patch_18">
     <path d="M 733.32 120.15 
L 967.68 120.15 
L 967.68 85.5 
L 733.32 85.5 
z
" style="fill: #f1f1f2; stroke: #ffffff; stroke-linejoin: miter"/>
    </g>
    <g id="text_17">
     <!-- 3.962 -->
     <g transform="translate(904.164625 106.688125) scale(0.14 -0.14)">
      <use xlink:href="#DejaVuSans-33"/>
      <use xlink:href="#DejaVuSans-2e" x="63.623047"/>
      <use xlink:href="#DejaVuSans-39" x="95.410156"/>
      <use xlink:href="#DejaVuSans-36" x="159.033203"/>
      <use xlink:href="#DejaVuSans-32" x="222.65625"/>
     </g>
    </g>
    <g id="patch_19">
     <path d="M 967.68 120.15 
L 1202.04 120.15 
L 1202.04 85.5 
L 967.68 85.5 
z
" style="fill: #f1f1f2; stroke: #ffffff; stroke-linejoin: miter"/>
    </g>
    <g id="text_18">
     <!-- 0.012 -->
     <g transform="translate(1138.524625 106.688125) scale(0.14 -0.14)">
      <use xlink:href="#DejaVuSans-30"/>
      <use xlink:href="#DejaVuSans-2e" x="63.623047"/>
      <use xlink:href="#DejaVuSans-30" x="95.410156"/>
      <use xlink:href="#DejaVuSans-31" x="159.033203"/>
      <use xlink:href="#DejaVuSans-32" x="222.65625"/>
     </g>
    </g>
    <g id="patch_20">
     <path d="M 1202.04 120.15 
L 1436.4 120.15 
L 1436.4 85.5 
L 1202.04 85.5 
z
" style="fill: #f1f1f2; stroke: #ffffff; stroke-linejoin: miter"/>
    </g>
    <g id="text_19">
     <!-- 0.062 -->
     <g transform="translate(1372.884625 106.688125) scale(0.14 -0.14)">
      <use xlink:href="#DejaVuSans-30"/>
      <use xlink:href="#DejaVuSans-2e" x="63.623047"/>
      <use xlink:href="#DejaVuSans-30" x="95.410156"/>
      <use xlink:href="#DejaVuSans-36" x="159.033203"/>
      <use xlink:href="#DejaVuSans-32" x="222.65625"/>
     </g>
    </g>
    <g id="patch_21">
     <path d="M 1436.4 120.15 
L 1670.76 120.15 
L 1670.76 85.5 
L 1436.4 85.5 
z
" style="fill: #f1f1f2; stroke: #ffffff; stroke-linejoin: miter"/>
    </g>
    <g id="text_20">
     <!-- 0.027 -->
     <g transform="translate(1607.244625 106.688125) scale(0.14 -0.14)">
      <use xlink:href="#DejaVuSans-30"/>
      <use xlink:href="#DejaVuSans-2e" x="63.623047"/>
      <use xlink:href="#DejaVuSans-30" x="95.410156"/>
      <use xlink:href="#DejaVuSans-32" x="159.033203"/>
      <use xlink:href="#DejaVuSans-37" x="222.65625"/>
     </g>
    </g>
    <g id="patch_22">
     <path d="M 1670.76 120.15 
L 1905.12 120.15 
L 1905.12 85.5 
L 1670.76 85.5 
z
" style="fill: #f1f1f2; stroke: #ffffff; stroke-linejoin: miter"/>
    </g>
    <g id="text_21">
     <!-- 0.029 -->
     <g transform="translate(1841.604625 106.688125) scale(0.14 -0.14)">
      <use xlink:href="#DejaVuSans-30"/>
      <use xlink:href="#DejaVuSans-2e" x="63.623047"/>
      <use xlink:href="#DejaVuSans-30" x="95.410156"/>
      <use xlink:href="#DejaVuSans-32" x="159.033203"/>
      <use xlink:href="#DejaVuSans-39" x="222.65625"/>
     </g>
    </g>
   </g>
  </g>
 </g>
</svg>
