<?xml version="1.0" encoding="utf-8"?>
<!-- Generator: Adobe Illustrator 26.5.0, SVG Export Plug-In . SVG Version: 6.00 Build 0)  -->
<svg version="1.1" id="Layer_1" xmlns="http://www.w3.org/2000/svg" xmlns:xlink="http://www.w3.org/1999/xlink" x="0px" y="0px"
	 viewBox="0 0 2116.8 135" style="enable-background:new 0 0 2116.8 135;" xml:space="preserve">
<style type="text/css">
	.st0{fill:#40466E;stroke:#FFFFFF;}
	.st1{fill:#FFFFFF;}
	.st2{fill:#FFFFFF;stroke:#FFFFFF;}
	.st3{fill:#F1F1F2;stroke:#FFFFFF;}
</style>
<g id="axes_1">
	<g id="table_1">
		<g id="patch_2">
			<path class="st0" d="M264.6,50.8H499V16.2H264.6V50.8z"/>
		</g>
		<g id="text_1">
			<g transform="translate(334.388906 37.388125) scale(0.14 -0.14)">
				<g>
					<path id="DejaVuSans-Bold-44" class="st1" d="M28,58.7V14.2h6.7c7.7,0,13.5,1.9,17.6,5.7c4.1,3.8,6.1,9.3,6.1,16.6
						c0,7.2-2,12.7-6.1,16.5c-4,3.8-9.9,5.7-17.6,5.7H28z M9.2,72.9H29c11.1,0,19.3-0.8,24.7-2.4c5.4-1.6,10.1-4.2,13.9-8
						c3.4-3.3,6-7.1,7.6-11.4c1.7-4.3,2.5-9.2,2.5-14.6c0-5.5-0.8-10.4-2.5-14.7c-1.7-4.3-4.2-8.1-7.6-11.4c-3.9-3.8-8.6-6.5-14.1-8
						C48.1,0.8,39.9,0,29,0H9.2V72.9z"/>
				</g>
				<g>
					<path id="DejaVuSans-Bold-45" class="st1" d="M92.2,72.9h50.7V58.7H111V45.1h30V30.9h-30V14.2h33V0H92.2V72.9z"/>
				</g>
				<g>
					<path id="DejaVuSans-Bold-53" class="st1" d="M211.2,70.6V55.2c-4,1.8-7.9,3.1-11.7,4c-3.8,0.9-7.4,1.4-10.8,1.4
						c-4.5,0-7.8-0.6-10-1.9c-2.1-1.2-3.2-3.1-3.2-5.8c0-2,0.7-3.5,2.2-4.6c1.4-1.1,4.1-2,7.9-2.8l8-1.6c8.1-1.6,13.9-4.1,17.3-7.4
						c3.4-3.3,5.1-8,5.1-14.2c0-8-2.4-14-7.2-17.9S196.8-1.4,187-1.4c-4.6,0-9.2,0.4-13.9,1.3c-4.7,0.9-9.3,2.2-14,3.9v15.9
						c4.7-2.5,9.2-4.3,13.5-5.6c4.3-1.2,8.5-1.9,12.6-1.9c4.1,0,7.2,0.7,9.4,2c2.2,1.4,3.3,3.3,3.3,5.9c0,2.3-0.7,4-2.2,5.3
						s-4.4,2.3-8.9,3.3l-7.3,1.6c-7.3,1.6-12.6,4.1-16,7.5c-3.4,3.4-5,8-5,13.8c0,7.3,2.3,12.8,7,16.8s11.4,5.9,20.2,5.9
						c4,0,8.1-0.3,12.4-0.9S206.7,71.8,211.2,70.6z"/>
				</g>
				<g>
					<path id="DejaVuSans-Bold-43" class="st1" d="M290.3,4c-3.5-1.8-7.1-3.1-10.8-4c-3.7-0.9-7.6-1.4-11.7-1.4
						C255.7-1.4,246.1,2,239,8.8s-10.6,16-10.6,27.6c0,11.7,3.5,20.9,10.6,27.7c7.1,6.8,16.7,10.2,28.9,10.2c4.1,0,8-0.5,11.7-1.4
						c3.7-0.9,7.3-2.3,10.8-4V53.7c-3.5,2.4-6.9,4.1-10.3,5.2s-6.9,1.7-10.7,1.7c-6.7,0-12-2.2-15.8-6.5c-3.8-4.3-5.8-10.2-5.8-17.8
						c0-7.5,1.9-13.4,5.8-17.7c3.8-4.3,9.1-6.4,15.8-6.4c3.7,0,7.3,0.6,10.7,1.7c3.4,1.1,6.8,2.9,10.3,5.2V4z"/>
				</g>
				<g>
					<path id="DejaVuSans-Bold-52" class="st1" d="M332.6,40.6c3.9,0,6.8,0.7,8.5,2.2c1.7,1.5,2.6,3.9,2.6,7.2
						c0,3.3-0.9,5.7-2.6,7.1c-1.7,1.4-4.5,2.2-8.5,2.2h-7.9V40.6H332.6z M324.7,27.6V0h-18.8v72.9h28.7c9.6,0,16.6-1.6,21.1-4.8
						c4.5-3.2,6.7-8.3,6.7-15.3c0-4.8-1.2-8.8-3.5-11.9c-2.3-3.1-5.8-5.4-10.5-6.8c2.6-0.6,4.9-1.9,6.9-4c2-2.1,4.1-5.2,6.2-9.4
						L371.7,0h-20l-8.9,18.1c-1.8,3.6-3.6,6.1-5.5,7.5c-1.8,1.3-4.3,2-7.3,2H324.7z"/>
				</g>
				<g>
					<path id="DejaVuSans-Bold-49" class="st1" d="M382.9,72.9h18.8V0h-18.8V72.9z"/>
				</g>
				<g>
					<path id="DejaVuSans-Bold-54" class="st1" d="M411.4,72.9h67.2V58.7h-24.2V0h-18.8v58.7h-24.2V72.9z"/>
				</g>
				<g>
					<path id="DejaVuSans-Bold-49_00000170242647459949423710000007944956525440295818_" class="st1" d="M488.3,72.9h18.8V0h-18.8
						V72.9z"/>
				</g>
				<g>
					<path id="DejaVuSans-Bold-56" class="st1" d="M516.8,72.9h18.9l19.3-53.8l19.3,53.8h18.9L566.3,0h-22.4L516.8,72.9z"/>
				</g>
				<g>
					<path id="DejaVuSans-Bold-4f" class="st1" d="M634.5,60.6c-5.7,0-10.2-2.1-13.3-6.3s-4.7-10.2-4.7-17.9
						c0-7.6,1.6-13.6,4.7-17.8c3.2-4.2,7.6-6.3,13.3-6.3c5.8,0,10.2,2.1,13.4,6.3c3.2,4.2,4.7,10.2,4.7,17.8
						c0,7.7-1.6,13.6-4.7,17.9S640.2,60.6,634.5,60.6z M634.5,74.2c11.7,0,20.9-3.4,27.5-10.1c6.6-6.7,10-16,10-27.8
						c0-11.8-3.3-21-10-27.7c-6.6-6.7-15.8-10.1-27.5-10.1c-11.7,0-20.9,3.4-27.5,10.1s-10,16-10,27.7c0,11.8,3.3,21.1,10,27.8
						C613.6,70.9,622.8,74.2,634.5,74.2z"/>
				</g>
			</g>
		</g>
		<g id="patch_3">
			<path class="st0" d="M499,50.8h234.4V16.2H499V50.8z"/>
		</g>
		<g id="text_2">
			<g transform="translate(523.831875 37.069844) scale(0.14 -0.14)">
				<g>
					<path id="DejaVuSans-Bold-45_00000154386305195574331420000003154426313605654148_" class="st1" d="M9.2,72.9h50.7V58.7H28
						V45.1h30V30.9H28V14.2h33V0H9.2V72.9z"/>
				</g>
				<g>
					<path id="DejaVuSans-Bold-54_00000128483727665871188000000003813920810668273843_" class="st1" d="M68.8,72.9H136V58.7h-24.2
						V0H93v58.7H68.8V72.9z"/>
				</g>
				<g>
					<path id="DejaVuSans-Bold-4c" class="st1" d="M145.7,72.9h18.8V14.2h33V0h-51.8V72.9z"/>
				</g>
				<g>
					<path id="DejaVuSans-Bold-5f" class="st1" d="M250.2-14.3v-9.3h-50v9.3H250.2z"/>
				</g>
				<g>
					<path id="DejaVuSans-Bold-41" class="st1" d="M303.7,13.3h-29.4L269.6,0h-18.9l27,72.9h22.4l27-72.9h-18.9L303.7,13.3z
						 M279,26.8h20l-10,29L279,26.8z"/>
				</g>
				<g>
					<path id="DejaVuSans-Bold-49_00000005972381070828879690000002301319701400277434_" class="st1" d="M336.8,72.9h18.8V0h-18.8
						V72.9z"/>
				</g>
				<g>
					<path id="DejaVuSans-Bold-52_00000044859500147898246560000007417488597235590541_" class="st1" d="M400.7,40.6
						c3.9,0,6.8,0.7,8.5,2.2c1.7,1.5,2.6,3.9,2.6,7.2c0,3.3-0.9,5.7-2.6,7.1c-1.7,1.4-4.5,2.2-8.5,2.2h-7.9V40.6H400.7z M392.8,27.6
						V0H374v72.9h28.7c9.6,0,16.6-1.6,21.1-4.8c4.5-3.2,6.7-8.3,6.7-15.3c0-4.8-1.2-8.8-3.5-11.9c-2.3-3.1-5.8-5.4-10.5-6.8
						c2.6-0.6,4.9-1.9,6.9-4c2-2.1,4.1-5.2,6.2-9.4L439.8,0h-20l-8.9,18.1c-1.8,3.6-3.6,6.1-5.5,7.5c-1.8,1.3-4.3,2-7.3,2H392.8z"/>
				</g>
				<g>
					<path id="DejaVuSans-Bold-46" class="st1" d="M451,72.9h50.7V58.7h-31.9V45.1h30V30.9h-30V0H451V72.9z"/>
				</g>
				<g>
					<path id="DejaVuSans-Bold-4c_00000016796130080495447630000013294704441470526857_" class="st1" d="M519.3,72.9h18.8V14.2h33V0
						h-51.8V72.9z"/>
				</g>
				<g>
					<path id="DejaVuSans-Bold-4f_00000031173760255304677160000008515372767016811453_" class="st1" d="M612.7,60.6
						c-5.7,0-10.2-2.1-13.3-6.3s-4.7-10.2-4.7-17.9c0-7.6,1.6-13.6,4.7-17.8c3.2-4.2,7.6-6.3,13.3-6.3c5.8,0,10.2,2.1,13.4,6.3
						c3.2,4.2,4.7,10.2,4.7,17.8c0,7.7-1.6,13.6-4.7,17.9S618.5,60.6,612.7,60.6z M612.7,74.2c11.7,0,20.9-3.4,27.5-10.1
						c6.6-6.7,10-16,10-27.8c0-11.8-3.3-21-10-27.7c-6.6-6.7-15.8-10.1-27.5-10.1c-11.7,0-20.9,3.4-27.5,10.1s-10,16-10,27.7
						c0,11.8,3.3,21.1,10,27.8C591.9,70.9,601,74.2,612.7,74.2z"/>
				</g>
				<g>
					<path id="DejaVuSans-Bold-57" class="st1" d="M658.2,72.9h18l12.6-53l12.5,53h18.1l12.5-53l12.6,53h17.9L745.2,0h-21.7
						l-13.2,55.4L697.3,0h-21.7L658.2,72.9z"/>
				</g>
				<g>
					<path id="DejaVuSans-Bold-5f_00000007425650612924804080000017349322091777694627_" class="st1" d="M815.6-14.3v-9.3h-50v9.3
						H815.6z"/>
				</g>
				<g>
					<path id="DejaVuSans-Bold-52_00000157274019525607274010000008626660161777689746_" class="st1" d="M851.5,40.6
						c3.9,0,6.8,0.7,8.5,2.2c1.7,1.5,2.6,3.9,2.6,7.2c0,3.3-0.9,5.7-2.6,7.1c-1.7,1.4-4.5,2.2-8.5,2.2h-7.9V40.6H851.5z M843.5,27.6
						V0h-18.8v72.9h28.7c9.6,0,16.6-1.6,21.1-4.8c4.5-3.2,6.7-8.3,6.7-15.3c0-4.8-1.2-8.8-3.5-11.9c-2.3-3.1-5.8-5.4-10.5-6.8
						c2.6-0.6,4.9-1.9,6.9-4c2-2.1,4.1-5.2,6.2-9.4L890.6,0h-20l-8.9,18.1c-1.8,3.6-3.6,6.1-5.5,7.5c-1.8,1.3-4.3,2-7.3,2H843.5z"/>
				</g>
				<g>
					<path id="DejaVuSans-Bold-41_00000070837513984858994680000008429734460802080173_" class="st1" d="M946,13.3h-29.4L912,0
						h-18.9l27,72.9h22.4l27-72.9h-18.9L946,13.3z M921.3,26.8h20l-10,29L921.3,26.8z"/>
				</g>
				<g>
					<path id="DejaVuSans-Bold-4d" class="st1" d="M979.1,72.9h23.9l16.6-39l16.7,39h23.9V0h-17.8v53.3L1025.7,14h-11.9L997,53.3V0
						h-17.8V72.9z"/>
				</g>
				<g>
					<path id="DejaVuSans-Bold-5f_00000052100086369738788050000013901392733627408807_" class="st1" d="M1119.5-14.3v-9.3h-50v9.3
						H1119.5z"/>
				</g>
				<g>
					<path id="DejaVuSans-Bold-49_00000011717659720611194760000018125589050640594585_" class="st1" d="M1128.7,72.9h18.8V0h-18.8
						V72.9z"/>
				</g>
				<g>
					<path id="DejaVuSans-Bold-51" class="st1" d="M1201.2-1.3h-1.5c-12,0-21.4,3.3-28,10c-6.7,6.6-10,15.9-10,27.7
						c0,11.8,3.3,21.1,10,27.8c6.7,6.7,15.8,10.1,27.5,10.1c11.8,0,21-3.3,27.6-10c6.6-6.6,9.9-15.9,9.9-27.9
						c0-8.2-1.8-15.3-5.2-21.2s-8.5-10.4-15.1-13.4l14.7-16.4h-17.9L1201.2-1.3z M1199.2,60.6c-5.7,0-10.2-2.1-13.3-6.3
						s-4.7-10.2-4.7-17.9c0-7.8,1.5-13.8,4.6-18c3.1-4.1,7.6-6.2,13.4-6.2c5.8,0,10.2,2.1,13.4,6.3c3.2,4.2,4.7,10.2,4.7,17.8
						c0,7.7-1.6,13.6-4.7,17.9S1204.9,60.6,1199.2,60.6z"/>
				</g>
				<g>
					<path id="DejaVuSans-Bold-52_00000045598498488886449650000008156503251755232678_" class="st1" d="M1277.6,40.6
						c3.9,0,6.8,0.7,8.5,2.2c1.7,1.5,2.6,3.9,2.6,7.2c0,3.3-0.9,5.7-2.6,7.1c-1.7,1.4-4.5,2.2-8.5,2.2h-7.9V40.6H1277.6z
						 M1269.7,27.6V0h-18.8v72.9h28.7c9.6,0,16.6-1.6,21.1-4.8c4.5-3.2,6.7-8.3,6.7-15.3c0-4.8-1.2-8.8-3.5-11.9
						c-2.3-3.1-5.8-5.4-10.5-6.8c2.6-0.6,4.9-1.9,6.9-4c2-2.1,4.1-5.2,6.2-9.4L1316.7,0h-20l-8.9,18.1c-1.8,3.6-3.6,6.1-5.5,7.5
						c-1.8,1.3-4.3,2-7.3,2H1269.7z"/>
				</g>
			</g>
		</g>
		<g id="patch_4">
			<path class="st0" d="M733.3,50.8h234.4V16.2H733.3V50.8z"/>
		</g>
		<g id="text_3">
			<g transform="translate(761.27625 37.069844) scale(0.14 -0.14)">
				<g>
					<path id="DejaVuSans-Bold-45_00000089566788935794185810000012019929957343027341_" class="st1" d="M9.2,72.9h50.7V58.7H28
						V45.1h30V30.9H28V14.2h33V0H9.2V72.9z"/>
				</g>
				<g>
					<path id="DejaVuSans-Bold-54_00000120521576047942533080000004920470513723570341_" class="st1" d="M68.8,72.9H136V58.7h-24.2
						V0H93v58.7H68.8V72.9z"/>
				</g>
				<g>
					<path id="DejaVuSans-Bold-4c_00000175286304067370276450000000950776644625809075_" class="st1" d="M145.7,72.9h18.8V14.2h33V0
						h-51.8V72.9z"/>
				</g>
				<g>
					<path id="DejaVuSans-Bold-5f_00000164512477988292254490000007758821429041450658_" class="st1" d="M250.2-14.3v-9.3h-50v9.3
						H250.2z"/>
				</g>
				<g>
					<path id="DejaVuSans-Bold-41_00000160166180704598325710000010725032791563251852_" class="st1" d="M303.7,13.3h-29.4L269.6,0
						h-18.9l27,72.9h22.4l27-72.9h-18.9L303.7,13.3z M279,26.8h20l-10,29L279,26.8z"/>
				</g>
				<g>
					<path id="DejaVuSans-Bold-49_00000085929367157377177940000011165821153369248386_" class="st1" d="M336.8,72.9h18.8V0h-18.8
						V72.9z"/>
				</g>
				<g>
					<path id="DejaVuSans-Bold-52_00000157268485534642346410000007768723674812233883_" class="st1" d="M400.7,40.6
						c3.9,0,6.8,0.7,8.5,2.2c1.7,1.5,2.6,3.9,2.6,7.2c0,3.3-0.9,5.7-2.6,7.1c-1.7,1.4-4.5,2.2-8.5,2.2h-7.9V40.6H400.7z M392.8,27.6
						V0H374v72.9h28.7c9.6,0,16.6-1.6,21.1-4.8c4.5-3.2,6.7-8.3,6.7-15.3c0-4.8-1.2-8.8-3.5-11.9c-2.3-3.1-5.8-5.4-10.5-6.8
						c2.6-0.6,4.9-1.9,6.9-4c2-2.1,4.1-5.2,6.2-9.4L439.8,0h-20l-8.9,18.1c-1.8,3.6-3.6,6.1-5.5,7.5c-1.8,1.3-4.3,2-7.3,2H392.8z"/>
				</g>
				<g>
					<path id="DejaVuSans-Bold-42" class="st1" d="M480.2,44.7c3,0,5.2,0.7,6.7,2c1.5,1.3,2.3,3.2,2.3,5.8c0,2.5-0.8,4.4-2.3,5.7
						c-1.5,1.3-3.8,2-6.7,2h-10.4V44.7H480.2z M480.9,12.8c3.8,0,6.6,0.8,8.5,2.4s2.9,4,2.9,7.2c0,3.2-0.9,5.5-2.8,7.1
						c-1.9,1.6-4.7,2.4-8.5,2.4h-11V12.8H480.9z M498.3,39c4-1.2,7.2-3.3,9.4-6.5c2.2-3.2,3.3-7,3.3-11.6c0-7-2.4-12.3-7.1-15.7
						c-4.8-3.4-12-5.2-21.7-5.2H451v72.9h28.2c10.1,0,17.5-1.5,22-4.6s6.8-8,6.8-14.7c0-3.5-0.8-6.6-2.5-9
						C503.9,42.1,501.5,40.2,498.3,39z"/>
				</g>
				<g>
					<path id="DejaVuSans-Bold-59" class="st1" d="M511.6,72.9h20.6l16.6-26l16.6,26H586l-27.8-42.2V0h-18.8v30.7L511.6,72.9z"/>
				</g>
				<g>
					<path id="DejaVuSans-Bold-54_00000138559190436002889050000001900993032441423757_" class="st1" d="M585.5,72.9h67.2V58.7
						h-24.2V0h-18.8v58.7h-24.2V72.9z"/>
				</g>
				<g>
					<path id="DejaVuSans-Bold-45_00000116924887340886681970000018370217289560947117_" class="st1" d="M662.4,72.9h50.7V58.7
						h-31.9V45.1h30V30.9h-30V14.2h33V0h-51.8V72.9z"/>
				</g>
				<g>
					<path id="DejaVuSans-Bold-5f_00000069366034913291847010000009440445724377533056_" class="st1" d="M771.5-14.3v-9.3h-50v9.3
						H771.5z"/>
				</g>
				<g>
					<path id="DejaVuSans-Bold-52_00000077304151461750158900000009775585191565268881_" class="st1" d="M807.4,40.6
						c3.9,0,6.8,0.7,8.5,2.2c1.7,1.5,2.6,3.9,2.6,7.2c0,3.3-0.9,5.7-2.6,7.1c-1.7,1.4-4.5,2.2-8.5,2.2h-7.9V40.6H807.4z M799.5,27.6
						V0h-18.8v72.9h28.7c9.6,0,16.6-1.6,21.1-4.8c4.5-3.2,6.7-8.3,6.7-15.3c0-4.8-1.2-8.8-3.5-11.9c-2.3-3.1-5.8-5.4-10.5-6.8
						c2.6-0.6,4.9-1.9,6.9-4c2-2.1,4.1-5.2,6.2-9.4L846.5,0h-20l-8.9,18.1c-1.8,3.6-3.6,6.1-5.5,7.5c-1.8,1.3-4.3,2-7.3,2H799.5z"/>
				</g>
				<g>
					<path id="DejaVuSans-Bold-41_00000054227605466555257560000014682355995906281638_" class="st1" d="M901.9,13.3h-29.4L867.9,0
						H849l27,72.9h22.4l27-72.9h-18.9L901.9,13.3z M877.2,26.8h20l-10,29L877.2,26.8z"/>
				</g>
				<g>
					<path id="DejaVuSans-Bold-4d_00000132810940674817947390000009828544383061049516_" class="st1" d="M935.1,72.9H959l16.6-39
						l16.7,39h23.9V0h-17.8v53.3L981.6,14h-11.9l-16.8,39.3V0h-17.8V72.9z"/>
				</g>
				<g>
					<path id="DejaVuSans-Bold-5f_00000020362423259384904310000008264838014249949077_" class="st1" d="M1075.4-14.3v-9.3h-50v9.3
						H1075.4z"/>
				</g>
				<g>
					<path id="DejaVuSans-Bold-49_00000082332952156069175280000015836890185245289885_" class="st1" d="M1084.6,72.9h18.8V0h-18.8
						V72.9z"/>
				</g>
				<g>
					<path id="DejaVuSans-Bold-51_00000114046150126097286840000004609709639226603412_" class="st1" d="M1157.1-1.3h-1.5
						c-12,0-21.4,3.3-28,10c-6.7,6.6-10,15.9-10,27.7c0,11.8,3.3,21.1,10,27.8c6.7,6.7,15.8,10.1,27.5,10.1c11.8,0,21-3.3,27.6-10
						c6.6-6.6,9.9-15.9,9.9-27.9c0-8.2-1.8-15.3-5.2-21.2s-8.5-10.4-15.1-13.4l14.7-16.4H1169L1157.1-1.3z M1155.1,60.6
						c-5.7,0-10.2-2.1-13.3-6.3s-4.7-10.2-4.7-17.9c0-7.8,1.5-13.8,4.6-18c3.1-4.1,7.6-6.2,13.4-6.2c5.8,0,10.2,2.1,13.4,6.3
						c3.2,4.2,4.7,10.2,4.7,17.8c0,7.7-1.6,13.6-4.7,17.9S1160.9,60.6,1155.1,60.6z"/>
				</g>
				<g>
					<path id="DejaVuSans-Bold-52_00000125569842682361974490000005316874785047978405_" class="st1" d="M1233.5,40.6
						c3.9,0,6.8,0.7,8.5,2.2c1.7,1.5,2.6,3.9,2.6,7.2c0,3.3-0.9,5.7-2.6,7.1c-1.7,1.4-4.5,2.2-8.5,2.2h-7.9V40.6H1233.5z
						 M1225.6,27.6V0h-18.8v72.9h28.7c9.6,0,16.6-1.6,21.1-4.8c4.5-3.2,6.7-8.3,6.7-15.3c0-4.8-1.2-8.8-3.5-11.9
						c-2.3-3.1-5.8-5.4-10.5-6.8c2.6-0.6,4.9-1.9,6.9-4c2-2.1,4.1-5.2,6.2-9.4L1272.6,0h-20l-8.9,18.1c-1.8,3.6-3.6,6.1-5.5,7.5
						c-1.8,1.3-4.3,2-7.3,2H1225.6z"/>
				</g>
			</g>
		</g>
		<g id="patch_5">
			<path class="st0" d="M967.7,50.8H1202V16.2H967.7V50.8z"/>
		</g>
		<g id="text_4">
			<g transform="translate(980.421094 37.069844) scale(0.14 -0.14)">
				<g>
					<path id="DejaVuSans-Bold-46_00000174601109455134372540000017462973235335037098_" class="st1" d="M9.2,72.9h50.7V58.7H28
						V45.1h30V30.9H28V0H9.2V72.9z"/>
				</g>
				<g>
					<path id="DejaVuSans-Bold-4f_00000075142352737090220480000014042810847153629599_" class="st1" d="M110.8,60.6
						c-5.7,0-10.2-2.1-13.3-6.3s-4.7-10.2-4.7-17.9c0-7.6,1.6-13.6,4.7-17.8c3.2-4.2,7.6-6.3,13.3-6.3c5.8,0,10.2,2.1,13.4,6.3
						c3.2,4.2,4.7,10.2,4.7,17.8c0,7.7-1.6,13.6-4.7,17.9S116.6,60.6,110.8,60.6z M110.8,74.2c11.7,0,20.9-3.4,27.5-10.1
						c6.6-6.7,10-16,10-27.8c0-11.8-3.3-21-10-27.7c-6.6-6.7-15.8-10.1-27.5-10.1c-11.7,0-20.9,3.4-27.5,10.1s-10,16-10,27.7
						c0,11.8,3.3,21.1,10,27.8C89.9,70.9,99.1,74.2,110.8,74.2z"/>
				</g>
				<g>
					<path id="DejaVuSans-Bold-4e" class="st1" d="M162.5,72.9h21l26.5-50v50h17.8V0h-21l-26.5,50V0h-17.8V72.9z"/>
				</g>
				<g>
					<path id="DejaVuSans-Bold-54_00000067203298059324914650000005363718804995107974_" class="st1" d="M237.5,72.9h67.2V58.7
						h-24.2V0h-18.8v58.7h-24.2V72.9z"/>
				</g>
				<g>
					<path id="DejaVuSans-Bold-45_00000103231052119371138210000002960008104914740631_" class="st1" d="M314.4,72.9h50.7V58.7
						h-31.9V45.1h30V30.9h-30V14.2h33V0h-51.8V72.9z"/>
				</g>
				<g>
					<path id="DejaVuSans-Bold-5f_00000021819245287840657330000014084636639299324844_" class="st1" d="M423.5-14.3v-9.3h-50v9.3
						H423.5z"/>
				</g>
				<g>
					<path id="DejaVuSans-Bold-41_00000044893604549227986240000002890421722356585880_" class="st1" d="M477,13.3h-29.4L442.9,0
						H424l27,72.9h22.4l27-72.9h-18.9L477,13.3z M452.3,26.8h20l-10,29L452.3,26.8z"/>
				</g>
				<g>
					<path id="DejaVuSans-Bold-49_00000030444527008982178490000015794999887919549337_" class="st1" d="M510.1,72.9h18.8V0h-18.8
						V72.9z"/>
				</g>
				<g>
					<path id="DejaVuSans-Bold-52_00000101099095781190486690000004610306823896912318_" class="st1" d="M574,40.6
						c3.9,0,6.8,0.7,8.5,2.2c1.7,1.5,2.6,3.9,2.6,7.2c0,3.3-0.9,5.7-2.6,7.1c-1.7,1.4-4.5,2.2-8.5,2.2h-7.9V40.6H574z M566.1,27.6V0
						h-18.8v72.9H576c9.6,0,16.6-1.6,21.1-4.8c4.5-3.2,6.7-8.3,6.7-15.3c0-4.8-1.2-8.8-3.5-11.9c-2.3-3.1-5.8-5.4-10.5-6.8
						c2.6-0.6,4.9-1.9,6.9-4c2-2.1,4.1-5.2,6.2-9.4L613.1,0h-20l-8.9,18.1c-1.8,3.6-3.6,6.1-5.5,7.5c-1.8,1.3-4.3,2-7.3,2H566.1z"/>
				</g>
				<g>
					<path id="DejaVuSans-Bold-46_00000090990326815525914010000010335696539837452934_" class="st1" d="M624.3,72.9H675V58.7h-31.9
						V45.1h30V30.9h-30V0h-18.8V72.9z"/>
				</g>
				<g>
					<path id="DejaVuSans-Bold-4c_00000014631817601107629820000013178046892529433252_" class="st1" d="M692.6,72.9h18.8V14.2h33V0
						h-51.8V72.9z"/>
				</g>
				<g>
					<path id="DejaVuSans-Bold-4f_00000160890860996353838700000010239072809724288936_" class="st1" d="M786,60.6
						c-5.7,0-10.2-2.1-13.3-6.3S768,44.1,768,36.4c0-7.6,1.6-13.6,4.7-17.8c3.2-4.2,7.6-6.3,13.3-6.3c5.8,0,10.2,2.1,13.4,6.3
						c3.2,4.2,4.7,10.2,4.7,17.8c0,7.7-1.6,13.6-4.7,17.9S791.8,60.6,786,60.6z M786,74.2c11.7,0,20.9-3.4,27.5-10.1
						c6.6-6.7,10-16,10-27.8c0-11.8-3.3-21-10-27.7C806.9,1.9,797.7-1.4,786-1.4c-11.7,0-20.9,3.4-27.5,10.1s-10,16-10,27.7
						c0,11.8,3.3,21.1,10,27.8C765.2,70.9,774.3,74.2,786,74.2z"/>
				</g>
				<g>
					<path id="DejaVuSans-Bold-57_00000031887177781041730760000015921157557909619081_" class="st1" d="M831.5,72.9h18l12.6-53
						l12.5,53h18.1l12.5-53l12.6,53h17.9L918.5,0h-21.7l-13.2,55.4L870.6,0h-21.7L831.5,72.9z"/>
				</g>
				<g>
					<path id="DejaVuSans-Bold-5f_00000132800611799849517910000009849785704683821199_" class="st1" d="M988.9-14.3v-9.3h-50v9.3
						H988.9z"/>
				</g>
				<g>
					<path id="DejaVuSans-Bold-52_00000085208332945132459870000003694975849911331756_" class="st1" d="M1024.7,40.6
						c3.9,0,6.8,0.7,8.5,2.2c1.7,1.5,2.6,3.9,2.6,7.2c0,3.3-0.9,5.7-2.6,7.1c-1.7,1.4-4.5,2.2-8.5,2.2h-7.9V40.6H1024.7z
						 M1016.8,27.6V0H998v72.9h28.7c9.6,0,16.6-1.6,21.1-4.8c4.5-3.2,6.7-8.3,6.7-15.3c0-4.8-1.2-8.8-3.5-11.9
						c-2.3-3.1-5.8-5.4-10.5-6.8c2.6-0.6,4.9-1.9,6.9-4c2-2.1,4.1-5.2,6.2-9.4L1063.9,0h-20l-8.9,18.1c-1.8,3.6-3.6,6.1-5.5,7.5
						c-1.8,1.3-4.3,2-7.3,2H1016.8z"/>
				</g>
				<g>
					<path id="DejaVuSans-Bold-41_00000070807779700356261420000001836410921355492028_" class="st1" d="M1119.3,13.3h-29.4
						L1085.2,0h-18.9l27,72.9h22.4l27-72.9h-18.9L1119.3,13.3z M1094.6,26.8h20l-10,29L1094.6,26.8z"/>
				</g>
				<g>
					<path id="DejaVuSans-Bold-4d_00000025416870208131845120000004432078025240961159_" class="st1" d="M1152.4,72.9h23.9l16.6-39
						l16.7,39h23.9V0h-17.8v53.3L1199,14H1187l-16.8,39.3V0h-17.8V72.9z"/>
				</g>
				<g>
					<path id="DejaVuSans-Bold-5f_00000130611276889248805990000011749772093114685587_" class="st1" d="M1292.8-14.3v-9.3h-50v9.3
						H1292.8z"/>
				</g>
				<g>
					<path id="DejaVuSans-Bold-49_00000003093205302799098700000005410475193994523276_" class="st1" d="M1301.9,72.9h18.8V0h-18.8
						V72.9z"/>
				</g>
				<g>
					<path id="DejaVuSans-Bold-51_00000088848348906988828750000005315830185907062426_" class="st1" d="M1374.5-1.3h-1.5
						c-12,0-21.4,3.3-28,10c-6.7,6.6-10,15.9-10,27.7c0,11.8,3.3,21.1,10,27.8c6.7,6.7,15.8,10.1,27.5,10.1c11.8,0,21-3.3,27.6-10
						c6.6-6.6,9.9-15.9,9.9-27.9c0-8.2-1.8-15.3-5.2-21.2s-8.5-10.4-15.1-13.4l14.7-16.4h-17.9L1374.5-1.3z M1372.5,60.6
						c-5.7,0-10.2-2.1-13.3-6.3s-4.7-10.2-4.7-17.9c0-7.8,1.5-13.8,4.6-18c3.1-4.1,7.6-6.2,13.4-6.2c5.8,0,10.2,2.1,13.4,6.3
						c3.2,4.2,4.7,10.2,4.7,17.8c0,7.7-1.6,13.6-4.7,17.9S1378.2,60.6,1372.5,60.6z"/>
				</g>
				<g>
					<path id="DejaVuSans-Bold-52_00000078043051720304202270000014298386065782781103_" class="st1" d="M1450.9,40.6
						c3.9,0,6.8,0.7,8.5,2.2c1.7,1.5,2.6,3.9,2.6,7.2c0,3.3-0.9,5.7-2.6,7.1c-1.7,1.4-4.5,2.2-8.5,2.2h-7.9V40.6H1450.9z M1443,27.6
						V0h-18.8v72.9h28.7c9.6,0,16.6-1.6,21.1-4.8c4.5-3.2,6.7-8.3,6.7-15.3c0-4.8-1.2-8.8-3.5-11.9c-2.3-3.1-5.8-5.4-10.5-6.8
						c2.6-0.6,4.9-1.9,6.9-4c2-2.1,4.1-5.2,6.2-9.4L1490,0h-20l-8.9,18.1c-1.8,3.6-3.6,6.1-5.5,7.5c-1.8,1.3-4.3,2-7.3,2H1443z"/>
				</g>
			</g>
		</g>
		<g id="patch_6">
			<path class="st0" d="M1202,50.8h234.4V16.2H1202V50.8z"/>
		</g>
		<g id="text_5">
			<g transform="translate(1217.865469 37.069844) scale(0.14 -0.14)">
				<g>
					<path id="DejaVuSans-Bold-46_00000155139075329661417770000010207495861549262485_" class="st1" d="M9.2,72.9h50.7V58.7H28
						V45.1h30V30.9H28V0H9.2V72.9z"/>
				</g>
				<g>
					<path id="DejaVuSans-Bold-4f_00000069386109014059141180000006380686180528520634_" class="st1" d="M110.8,60.6
						c-5.7,0-10.2-2.1-13.3-6.3s-4.7-10.2-4.7-17.9c0-7.6,1.6-13.6,4.7-17.8c3.2-4.2,7.6-6.3,13.3-6.3c5.8,0,10.2,2.1,13.4,6.3
						c3.2,4.2,4.7,10.2,4.7,17.8c0,7.7-1.6,13.6-4.7,17.9S116.6,60.6,110.8,60.6z M110.8,74.2c11.7,0,20.9-3.4,27.5-10.1
						c6.6-6.7,10-16,10-27.8c0-11.8-3.3-21-10-27.7c-6.6-6.7-15.8-10.1-27.5-10.1c-11.7,0-20.9,3.4-27.5,10.1s-10,16-10,27.7
						c0,11.8,3.3,21.1,10,27.8C89.9,70.9,99.1,74.2,110.8,74.2z"/>
				</g>
				<g>
					<path id="DejaVuSans-Bold-4e_00000132075902358734118310000012941775736863867798_" class="st1" d="M162.5,72.9h21l26.5-50v50
						h17.8V0h-21l-26.5,50V0h-17.8V72.9z"/>
				</g>
				<g>
					<path id="DejaVuSans-Bold-54_00000097458338991183541120000014811101381575091590_" class="st1" d="M237.5,72.9h67.2V58.7
						h-24.2V0h-18.8v58.7h-24.2V72.9z"/>
				</g>
				<g>
					<path id="DejaVuSans-Bold-45_00000029017837029449467100000004268213877099219353_" class="st1" d="M314.4,72.9h50.7V58.7
						h-31.9V45.1h30V30.9h-30V14.2h33V0h-51.8V72.9z"/>
				</g>
				<g>
					<path id="DejaVuSans-Bold-5f_00000095341164440184511070000003413957746836663739_" class="st1" d="M423.5-14.3v-9.3h-50v9.3
						H423.5z"/>
				</g>
				<g>
					<path id="DejaVuSans-Bold-41_00000059288565002474420650000009120995235390975134_" class="st1" d="M477,13.3h-29.4L442.9,0
						H424l27,72.9h22.4l27-72.9h-18.9L477,13.3z M452.3,26.8h20l-10,29L452.3,26.8z"/>
				</g>
				<g>
					<path id="DejaVuSans-Bold-49_00000052822667393430984390000001157866284880357772_" class="st1" d="M510.1,72.9h18.8V0h-18.8
						V72.9z"/>
				</g>
				<g>
					<path id="DejaVuSans-Bold-52_00000026855559777954805780000003667311428962060683_" class="st1" d="M574,40.6
						c3.9,0,6.8,0.7,8.5,2.2c1.7,1.5,2.6,3.9,2.6,7.2c0,3.3-0.9,5.7-2.6,7.1c-1.7,1.4-4.5,2.2-8.5,2.2h-7.9V40.6H574z M566.1,27.6V0
						h-18.8v72.9H576c9.6,0,16.6-1.6,21.1-4.8c4.5-3.2,6.7-8.3,6.7-15.3c0-4.8-1.2-8.8-3.5-11.9c-2.3-3.1-5.8-5.4-10.5-6.8
						c2.6-0.6,4.9-1.9,6.9-4c2-2.1,4.1-5.2,6.2-9.4L613.1,0h-20l-8.9,18.1c-1.8,3.6-3.6,6.1-5.5,7.5c-1.8,1.3-4.3,2-7.3,2H566.1z"/>
				</g>
				<g>
					<path id="DejaVuSans-Bold-42_00000040543669637485068390000011351266964441417893_" class="st1" d="M653.5,44.7
						c3,0,5.2,0.7,6.7,2c1.5,1.3,2.3,3.2,2.3,5.8c0,2.5-0.8,4.4-2.3,5.7c-1.5,1.3-3.8,2-6.7,2h-10.4V44.7H653.5z M654.2,12.8
						c3.8,0,6.6,0.8,8.5,2.4s2.9,4,2.9,7.2c0,3.2-0.9,5.5-2.8,7.1c-1.9,1.6-4.7,2.4-8.5,2.4h-11V12.8H654.2z M671.6,39
						c4-1.2,7.2-3.3,9.4-6.5c2.2-3.2,3.3-7,3.3-11.6c0-7-2.4-12.3-7.1-15.7c-4.8-3.4-12-5.2-21.7-5.2h-31.2v72.9h28.2
						c10.1,0,17.5-1.5,22-4.6s6.8-8,6.8-14.7c0-3.5-0.8-6.6-2.5-9C677.2,42.1,674.8,40.2,671.6,39z"/>
				</g>
				<g>
					<path id="DejaVuSans-Bold-59_00000112596314790670779330000008893051838902105223_" class="st1" d="M684.9,72.9h20.6l16.6-26
						l16.6,26h20.6l-27.8-42.2V0h-18.8v30.7L684.9,72.9z"/>
				</g>
				<g>
					<path id="DejaVuSans-Bold-54_00000136413781999120621550000013149576818148214694_" class="st1" d="M758.8,72.9h67.2V58.7
						h-24.2V0H783v58.7h-24.2V72.9z"/>
				</g>
				<g>
					<path id="DejaVuSans-Bold-45_00000035513801950049731490000017006636834973634482_" class="st1" d="M835.7,72.9h50.7V58.7
						h-31.9V45.1h30V30.9h-30V14.2h33V0h-51.8V72.9z"/>
				</g>
				<g>
					<path id="DejaVuSans-Bold-5f_00000170988204113971698350000005130569116174087845_" class="st1" d="M944.8-14.3v-9.3h-50v9.3
						H944.8z"/>
				</g>
				<g>
					<path id="DejaVuSans-Bold-52_00000088113601347187463150000004318979140927500694_" class="st1" d="M980.7,40.6
						c3.9,0,6.8,0.7,8.5,2.2c1.7,1.5,2.6,3.9,2.6,7.2c0,3.3-0.9,5.7-2.6,7.1c-1.7,1.4-4.5,2.2-8.5,2.2h-7.9V40.6H980.7z M972.8,27.6
						V0H954v72.9h28.7c9.6,0,16.6-1.6,21.1-4.8c4.5-3.2,6.7-8.3,6.7-15.3c0-4.8-1.2-8.8-3.5-11.9c-2.3-3.1-5.8-5.4-10.5-6.8
						c2.6-0.6,4.9-1.9,6.9-4c2-2.1,4.1-5.2,6.2-9.4L1019.8,0h-20l-8.9,18.1c-1.8,3.6-3.6,6.1-5.5,7.5c-1.8,1.3-4.3,2-7.3,2H972.8z"
						/>
				</g>
				<g>
					<path id="DejaVuSans-Bold-41_00000075141955278819196870000017086606924151085191_" class="st1" d="M1075.2,13.3h-29.4
						L1041.2,0h-18.9l27,72.9h22.4l27-72.9h-18.9L1075.2,13.3z M1050.5,26.8h20l-10,29L1050.5,26.8z"/>
				</g>
				<g>
					<path id="DejaVuSans-Bold-4d_00000111902394981766939140000016827071010448656830_" class="st1" d="M1108.4,72.9h23.9l16.6-39
						l16.7,39h23.9V0h-17.8v53.3L1154.9,14H1143l-16.8,39.3V0h-17.8V72.9z"/>
				</g>
				<g>
					<path id="DejaVuSans-Bold-5f_00000145042626674442439780000009869330122281905541_" class="st1" d="M1248.7-14.3v-9.3h-50v9.3
						H1248.7z"/>
				</g>
				<g>
					<path id="DejaVuSans-Bold-49_00000059272591765096491910000003699394299947164560_" class="st1" d="M1257.9,72.9h18.8V0h-18.8
						V72.9z"/>
				</g>
				<g>
					<path id="DejaVuSans-Bold-51_00000123426488101811093600000009326742739109297844_" class="st1" d="M1330.4-1.3h-1.5
						c-12,0-21.4,3.3-28,10c-6.7,6.6-10,15.9-10,27.7c0,11.8,3.3,21.1,10,27.8c6.7,6.7,15.8,10.1,27.5,10.1c11.8,0,21-3.3,27.6-10
						c6.6-6.6,9.9-15.9,9.9-27.9c0-8.2-1.8-15.3-5.2-21.2s-8.5-10.4-15.1-13.4l14.7-16.4h-17.9L1330.4-1.3z M1328.4,60.6
						c-5.7,0-10.2-2.1-13.3-6.3s-4.7-10.2-4.7-17.9c0-7.8,1.5-13.8,4.6-18c3.1-4.1,7.6-6.2,13.4-6.2c5.8,0,10.2,2.1,13.4,6.3
						c3.2,4.2,4.7,10.2,4.7,17.8c0,7.7-1.6,13.6-4.7,17.9S1334.2,60.6,1328.4,60.6z"/>
				</g>
				<g>
					<path id="DejaVuSans-Bold-52_00000055698184406880271080000010222857825728671895_" class="st1" d="M1406.8,40.6
						c3.9,0,6.8,0.7,8.5,2.2c1.7,1.5,2.6,3.9,2.6,7.2c0,3.3-0.9,5.7-2.6,7.1c-1.7,1.4-4.5,2.2-8.5,2.2h-7.9V40.6H1406.8z
						 M1398.9,27.6V0h-18.8v72.9h28.7c9.6,0,16.6-1.6,21.1-4.8c4.5-3.2,6.7-8.3,6.7-15.3c0-4.8-1.2-8.8-3.5-11.9
						c-2.3-3.1-5.8-5.4-10.5-6.8c2.6-0.6,4.9-1.9,6.9-4c2-2.1,4.1-5.2,6.2-9.4L1445.9,0h-20l-8.9,18.1c-1.8,3.6-3.6,6.1-5.5,7.5
						c-1.8,1.3-4.3,2-7.3,2H1398.9z"/>
				</g>
			</g>
		</g>
		<g id="patch_7">
			<path class="st0" d="M1436.4,50.8h234.4V16.2h-234.4V50.8z"/>
		</g>
		<g id="text_6">
			<g transform="translate(1440.466563 37.069844) scale(0.14 -0.14)">
				<g>
					<path id="DejaVuSans-Bold-44_00000057846063693706455630000010091447683381499022_" class="st1" d="M28,58.7V14.2h6.7
						c7.7,0,13.5,1.9,17.6,5.7c4.1,3.8,6.1,9.3,6.1,16.6c0,7.2-2,12.7-6.1,16.5c-4,3.8-9.9,5.7-17.6,5.7H28z M9.2,72.9H29
						c11.1,0,19.3-0.8,24.7-2.4c5.4-1.6,10.1-4.2,13.9-8c3.4-3.3,6-7.1,7.6-11.4c1.7-4.3,2.5-9.2,2.5-14.6c0-5.5-0.8-10.4-2.5-14.7
						c-1.7-4.3-4.2-8.1-7.6-11.4c-3.9-3.8-8.6-6.5-14.1-8C48.1,0.8,39.9,0,29,0H9.2V72.9z"/>
				</g>
				<g>
					<path id="DejaVuSans-Bold-45_00000052089419387126742610000008688893228974520225_" class="st1" d="M92.2,72.9h50.7V58.7H111
						V45.1h30V30.9h-30V14.2h33V0H92.2V72.9z"/>
				</g>
				<g>
					<path id="DejaVuSans-Bold-53_00000103229391589050850730000000129965105858453939_" class="st1" d="M211.2,70.6V55.2
						c-4,1.8-7.9,3.1-11.7,4c-3.8,0.9-7.4,1.4-10.8,1.4c-4.5,0-7.8-0.6-10-1.9c-2.1-1.2-3.2-3.1-3.2-5.8c0-2,0.7-3.5,2.2-4.6
						c1.4-1.1,4.1-2,7.9-2.8l8-1.6c8.1-1.6,13.9-4.1,17.3-7.4c3.4-3.3,5.1-8,5.1-14.2c0-8-2.4-14-7.2-17.9S196.8-1.4,187-1.4
						c-4.6,0-9.2,0.4-13.9,1.3c-4.7,0.9-9.3,2.2-14,3.9v15.9c4.7-2.5,9.2-4.3,13.5-5.6c4.3-1.2,8.5-1.9,12.6-1.9
						c4.1,0,7.2,0.7,9.4,2c2.2,1.4,3.3,3.3,3.3,5.9c0,2.3-0.7,4-2.2,5.3s-4.4,2.3-8.9,3.3l-7.3,1.6c-7.3,1.6-12.6,4.1-16,7.5
						c-3.4,3.4-5,8-5,13.8c0,7.3,2.3,12.8,7,16.8s11.4,5.9,20.2,5.9c4,0,8.1-0.3,12.4-0.9S206.7,71.8,211.2,70.6z"/>
				</g>
				<g>
					<path id="DejaVuSans-Bold-54_00000039119467558426698600000016133995805993140873_" class="st1" d="M223.8,72.9H291V58.7h-24.2
						V0H248v58.7h-24.2V72.9z"/>
				</g>
				<g>
					<path id="DejaVuSans-Bold-49_00000062900646003818141140000014468448709879900080_" class="st1" d="M300.7,72.9h18.8V0h-18.8
						V72.9z"/>
				</g>
				<g>
					<path id="DejaVuSans-Bold-4e_00000173142691445903601970000008338712188282692787_" class="st1" d="M337.9,72.9h21l26.5-50v50
						h17.8V0h-21l-26.5,50V0h-17.8V72.9z"/>
				</g>
				<g>
					<path id="DejaVuSans-Bold-4f_00000138556250299367723520000006998174558740423819_" class="st1" d="M454.9,60.6
						c-5.7,0-10.2-2.1-13.3-6.3s-4.7-10.2-4.7-17.9c0-7.6,1.6-13.6,4.7-17.8c3.2-4.2,7.6-6.3,13.3-6.3c5.8,0,10.2,2.1,13.4,6.3
						c3.2,4.2,4.7,10.2,4.7,17.8c0,7.7-1.6,13.6-4.7,17.9S460.7,60.6,454.9,60.6z M454.9,74.2c11.7,0,20.9-3.4,27.5-10.1
						c6.6-6.7,10-16,10-27.8c0-11.8-3.3-21-10-27.7c-6.6-6.7-15.8-10.1-27.5-10.1c-11.7,0-20.9,3.4-27.5,10.1s-10,16-10,27.7
						c0,11.8,3.3,21.1,10,27.8C434.1,70.9,443.2,74.2,454.9,74.2z"/>
				</g>
				<g>
					<path id="DejaVuSans-Bold-5f_00000067207240426425281900000007400573380867582110_" class="st1" d="M547.5-14.3v-9.3h-50v9.3
						H547.5z"/>
				</g>
				<g>
					<path id="DejaVuSans-Bold-41_00000035506271177648751350000017774361726154084999_" class="st1" d="M600.9,13.3h-29.4L566.9,0
						h-18.9l27,72.9h22.4l27-72.9h-18.9L600.9,13.3z M576.2,26.8h20l-10,29L576.2,26.8z"/>
				</g>
				<g>
					<path id="DejaVuSans-Bold-49_00000160875358976176190260000005051172554109379205_" class="st1" d="M634,72.9h18.8V0H634V72.9z
						"/>
				</g>
				<g>
					<path id="DejaVuSans-Bold-52_00000107555734839044178810000002802897658650897340_" class="st1" d="M698,40.6
						c3.9,0,6.8,0.7,8.5,2.2c1.7,1.5,2.6,3.9,2.6,7.2c0,3.3-0.9,5.7-2.6,7.1c-1.7,1.4-4.5,2.2-8.5,2.2H690V40.6H698z M690,27.6V0
						h-18.8v72.9H700c9.6,0,16.6-1.6,21.1-4.8c4.5-3.2,6.7-8.3,6.7-15.3c0-4.8-1.2-8.8-3.5-11.9c-2.3-3.1-5.8-5.4-10.5-6.8
						c2.6-0.6,4.9-1.9,6.9-4c2-2.1,4.1-5.2,6.2-9.4L737.1,0h-20l-8.9,18.1c-1.8,3.6-3.6,6.1-5.5,7.5c-1.8,1.3-4.3,2-7.3,2H690z"/>
				</g>
				<g>
					<path id="DejaVuSans-Bold-46_00000137118643544873408500000006125800105965258647_" class="st1" d="M748.2,72.9H799V58.7H767
						V45.1h30V30.9h-30V0h-18.8V72.9z"/>
				</g>
				<g>
					<path id="DejaVuSans-Bold-4c_00000084487822584413049850000008107044142922734756_" class="st1" d="M816.6,72.9h18.8V14.2h33V0
						h-51.8V72.9z"/>
				</g>
				<g>
					<path id="DejaVuSans-Bold-4f_00000156562693665516255710000013333997462578107064_" class="st1" d="M910,60.6
						c-5.7,0-10.2-2.1-13.3-6.3s-4.7-10.2-4.7-17.9c0-7.6,1.6-13.6,4.7-17.8c3.2-4.2,7.6-6.3,13.3-6.3c5.8,0,10.2,2.1,13.4,6.3
						c3.2,4.2,4.7,10.2,4.7,17.8c0,7.7-1.6,13.6-4.7,17.9S915.7,60.6,910,60.6z M910,74.2c11.7,0,20.9-3.4,27.5-10.1
						c6.6-6.7,10-16,10-27.8c0-11.8-3.3-21-10-27.7C930.8,1.9,921.7-1.4,910-1.4c-11.7,0-20.9,3.4-27.5,10.1s-10,16-10,27.7
						c0,11.8,3.3,21.1,10,27.8C889.1,70.9,898.3,74.2,910,74.2z"/>
				</g>
				<g>
					<path id="DejaVuSans-Bold-57_00000054230939116506091700000011836032023221713855_" class="st1" d="M955.5,72.9h18l12.6-53
						l12.5,53h18.1l12.5-53l12.6,53h17.9L1042.5,0h-21.7l-13.2,55.4L994.5,0h-21.7L955.5,72.9z"/>
				</g>
				<g>
					<path id="DejaVuSans-Bold-5f_00000045595243134043979020000011341013929903314319_" class="st1" d="M1112.8-14.3v-9.3h-50v9.3
						H1112.8z"/>
				</g>
				<g>
					<path id="DejaVuSans-Bold-52_00000127014584499763106820000016728709598625998211_" class="st1" d="M1148.7,40.6
						c3.9,0,6.8,0.7,8.5,2.2c1.7,1.5,2.6,3.9,2.6,7.2c0,3.3-0.9,5.7-2.6,7.1c-1.7,1.4-4.5,2.2-8.5,2.2h-7.9V40.6H1148.7z
						 M1140.8,27.6V0H1122v72.9h28.7c9.6,0,16.6-1.6,21.1-4.8c4.5-3.2,6.7-8.3,6.7-15.3c0-4.8-1.2-8.8-3.5-11.9
						c-2.3-3.1-5.8-5.4-10.5-6.8c2.6-0.6,4.9-1.9,6.9-4c2-2.1,4.1-5.2,6.2-9.4L1187.8,0h-20l-8.9,18.1c-1.8,3.6-3.6,6.1-5.5,7.5
						c-1.8,1.3-4.3,2-7.3,2H1140.8z"/>
				</g>
				<g>
					<path id="DejaVuSans-Bold-41_00000052821281711462197340000013552091538920037814_" class="st1" d="M1243.2,13.3h-29.4
						L1209.2,0h-18.9l27,72.9h22.4l27-72.9h-18.9L1243.2,13.3z M1218.5,26.8h20l-10,29L1218.5,26.8z"/>
				</g>
				<g>
					<path id="DejaVuSans-Bold-4d_00000057137759828472829190000000392785199084183967_" class="st1" d="M1276.4,72.9h23.9l16.6-39
						l16.7,39h23.9V0h-17.8v53.3L1322.9,14H1311l-16.8,39.3V0h-17.8V72.9z"/>
				</g>
				<g>
					<path id="DejaVuSans-Bold-5f_00000018211430892127314640000001895915844257348270_" class="st1" d="M1416.7-14.3v-9.3h-50v9.3
						H1416.7z"/>
				</g>
				<g>
					<path id="DejaVuSans-Bold-49_00000085246784881976377940000010224732969617048960_" class="st1" d="M1425.9,72.9h18.8V0h-18.8
						V72.9z"/>
				</g>
				<g>
					<path id="DejaVuSans-Bold-51_00000057138823025900276480000006036281081061566110_" class="st1" d="M1498.4-1.3h-1.5
						c-12,0-21.4,3.3-28,10c-6.7,6.6-10,15.9-10,27.7c0,11.8,3.3,21.1,10,27.8c6.7,6.7,15.8,10.1,27.5,10.1c11.8,0,21-3.3,27.6-10
						c6.6-6.6,9.9-15.9,9.9-27.9c0-8.2-1.8-15.3-5.2-21.2s-8.5-10.4-15.1-13.4l14.7-16.4h-17.9L1498.4-1.3z M1496.4,60.6
						c-5.7,0-10.2-2.1-13.3-6.3s-4.7-10.2-4.7-17.9c0-7.8,1.5-13.8,4.6-18c3.1-4.1,7.6-6.2,13.4-6.2c5.8,0,10.2,2.1,13.4,6.3
						c3.2,4.2,4.7,10.2,4.7,17.8c0,7.7-1.6,13.6-4.7,17.9S1502.1,60.6,1496.4,60.6z"/>
				</g>
				<g>
					<path id="DejaVuSans-Bold-52_00000163073818251391266400000017436982988393417862_" class="st1" d="M1574.8,40.6
						c3.9,0,6.8,0.7,8.5,2.2c1.7,1.5,2.6,3.9,2.6,7.2c0,3.3-0.9,5.7-2.6,7.1c-1.7,1.4-4.5,2.2-8.5,2.2h-7.9V40.6H1574.8z
						 M1566.9,27.6V0h-18.8v72.9h28.7c9.6,0,16.6-1.6,21.1-4.8c4.5-3.2,6.7-8.3,6.7-15.3c0-4.8-1.2-8.8-3.5-11.9
						c-2.3-3.1-5.8-5.4-10.5-6.8c2.6-0.6,4.9-1.9,6.9-4c2-2.1,4.1-5.2,6.2-9.4L1613.9,0h-20l-8.9,18.1c-1.8,3.6-3.6,6.1-5.5,7.5
						c-1.8,1.3-4.3,2-7.3,2H1566.9z"/>
				</g>
			</g>
		</g>
		<g id="patch_8">
			<path class="st0" d="M1670.8,50.8h234.4V16.2h-234.4V50.8z"/>
		</g>
		<g id="text_7">
			<g transform="translate(1677.910938 37.069844) scale(0.14 -0.14)">
				<g>
					<path id="DejaVuSans-Bold-44_00000121997631462109748820000000776539677209420444_" class="st1" d="M28,58.7V14.2h6.7
						c7.7,0,13.5,1.9,17.6,5.7c4.1,3.8,6.1,9.3,6.1,16.6c0,7.2-2,12.7-6.1,16.5c-4,3.8-9.9,5.7-17.6,5.7H28z M9.2,72.9H29
						c11.1,0,19.3-0.8,24.7-2.4c5.4-1.6,10.1-4.2,13.9-8c3.4-3.3,6-7.1,7.6-11.4c1.7-4.3,2.5-9.2,2.5-14.6c0-5.5-0.8-10.4-2.5-14.7
						c-1.7-4.3-4.2-8.1-7.6-11.4c-3.9-3.8-8.6-6.5-14.1-8C48.1,0.8,39.9,0,29,0H9.2V72.9z"/>
				</g>
				<g>
					<path id="DejaVuSans-Bold-45_00000123428331155737506720000009456131621452815538_" class="st1" d="M92.2,72.9h50.7V58.7H111
						V45.1h30V30.9h-30V14.2h33V0H92.2V72.9z"/>
				</g>
				<g>
					<path id="DejaVuSans-Bold-53_00000054235387129832597300000013800079326409273751_" class="st1" d="M211.2,70.6V55.2
						c-4,1.8-7.9,3.1-11.7,4c-3.8,0.9-7.4,1.4-10.8,1.4c-4.5,0-7.8-0.6-10-1.9c-2.1-1.2-3.2-3.1-3.2-5.8c0-2,0.7-3.5,2.2-4.6
						c1.4-1.1,4.1-2,7.9-2.8l8-1.6c8.1-1.6,13.9-4.1,17.3-7.4c3.4-3.3,5.1-8,5.1-14.2c0-8-2.4-14-7.2-17.9S196.8-1.4,187-1.4
						c-4.6,0-9.2,0.4-13.9,1.3c-4.7,0.9-9.3,2.2-14,3.9v15.9c4.7-2.5,9.2-4.3,13.5-5.6c4.3-1.2,8.5-1.9,12.6-1.9
						c4.1,0,7.2,0.7,9.4,2c2.2,1.4,3.3,3.3,3.3,5.9c0,2.3-0.7,4-2.2,5.3s-4.4,2.3-8.9,3.3l-7.3,1.6c-7.3,1.6-12.6,4.1-16,7.5
						c-3.4,3.4-5,8-5,13.8c0,7.3,2.3,12.8,7,16.8s11.4,5.9,20.2,5.9c4,0,8.1-0.3,12.4-0.9S206.7,71.8,211.2,70.6z"/>
				</g>
				<g>
					<path id="DejaVuSans-Bold-54_00000049192342252679822450000010602499295810302911_" class="st1" d="M223.8,72.9H291V58.7h-24.2
						V0H248v58.7h-24.2V72.9z"/>
				</g>
				<g>
					<path id="DejaVuSans-Bold-49_00000178194423994425902840000017083908196353954739_" class="st1" d="M300.7,72.9h18.8V0h-18.8
						V72.9z"/>
				</g>
				<g>
					<path id="DejaVuSans-Bold-4e_00000156580590693911363080000011930204666422626488_" class="st1" d="M337.9,72.9h21l26.5-50v50
						h17.8V0h-21l-26.5,50V0h-17.8V72.9z"/>
				</g>
				<g>
					<path id="DejaVuSans-Bold-4f_00000099622734983068969780000005238888833796557219_" class="st1" d="M454.9,60.6
						c-5.7,0-10.2-2.1-13.3-6.3s-4.7-10.2-4.7-17.9c0-7.6,1.6-13.6,4.7-17.8c3.2-4.2,7.6-6.3,13.3-6.3c5.8,0,10.2,2.1,13.4,6.3
						c3.2,4.2,4.7,10.2,4.7,17.8c0,7.7-1.6,13.6-4.7,17.9S460.7,60.6,454.9,60.6z M454.9,74.2c11.7,0,20.9-3.4,27.5-10.1
						c6.6-6.7,10-16,10-27.8c0-11.8-3.3-21-10-27.7c-6.6-6.7-15.8-10.1-27.5-10.1c-11.7,0-20.9,3.4-27.5,10.1s-10,16-10,27.7
						c0,11.8,3.3,21.1,10,27.8C434.1,70.9,443.2,74.2,454.9,74.2z"/>
				</g>
				<g>
					<path id="DejaVuSans-Bold-5f_00000072967989184238838470000015688725350716064393_" class="st1" d="M547.5-14.3v-9.3h-50v9.3
						H547.5z"/>
				</g>
				<g>
					<path id="DejaVuSans-Bold-41_00000106865513747958407810000002717500723702683579_" class="st1" d="M600.9,13.3h-29.4L566.9,0
						h-18.9l27,72.9h22.4l27-72.9h-18.9L600.9,13.3z M576.2,26.8h20l-10,29L576.2,26.8z"/>
				</g>
				<g>
					<path id="DejaVuSans-Bold-49_00000009566295753628994000000008049540655616429238_" class="st1" d="M634,72.9h18.8V0H634V72.9z
						"/>
				</g>
				<g>
					<path id="DejaVuSans-Bold-52_00000168102831907053959300000013732881746072575667_" class="st1" d="M698,40.6
						c3.9,0,6.8,0.7,8.5,2.2c1.7,1.5,2.6,3.9,2.6,7.2c0,3.3-0.9,5.7-2.6,7.1c-1.7,1.4-4.5,2.2-8.5,2.2H690V40.6H698z M690,27.6V0
						h-18.8v72.9H700c9.6,0,16.6-1.6,21.1-4.8c4.5-3.2,6.7-8.3,6.7-15.3c0-4.8-1.2-8.8-3.5-11.9c-2.3-3.1-5.8-5.4-10.5-6.8
						c2.6-0.6,4.9-1.9,6.9-4c2-2.1,4.1-5.2,6.2-9.4L737.1,0h-20l-8.9,18.1c-1.8,3.6-3.6,6.1-5.5,7.5c-1.8,1.3-4.3,2-7.3,2H690z"/>
				</g>
				<g>
					<path id="DejaVuSans-Bold-42_00000042698393369160358570000002487561686855117740_" class="st1" d="M777.4,44.7
						c3,0,5.2,0.7,6.7,2c1.5,1.3,2.3,3.2,2.3,5.8c0,2.5-0.8,4.4-2.3,5.7c-1.5,1.3-3.8,2-6.7,2H767V44.7H777.4z M778.1,12.8
						c3.8,0,6.6,0.8,8.5,2.4s2.9,4,2.9,7.2c0,3.2-0.9,5.5-2.8,7.1c-1.9,1.6-4.7,2.4-8.5,2.4h-11V12.8H778.1z M795.6,39
						c4-1.2,7.2-3.3,9.4-6.5c2.2-3.2,3.3-7,3.3-11.6c0-7-2.4-12.3-7.1-15.7c-4.8-3.4-12-5.2-21.7-5.2h-31.2v72.9h28.2
						c10.1,0,17.5-1.5,22-4.6s6.8-8,6.8-14.7c0-3.5-0.8-6.6-2.5-9C801.1,42.1,798.7,40.2,795.6,39z"/>
				</g>
				<g>
					<path id="DejaVuSans-Bold-59_00000107579385307648079030000012122726299207300282_" class="st1" d="M808.8,72.9h20.6l16.6-26
						l16.6,26h20.6l-27.8-42.2V0h-18.8v30.7L808.8,72.9z"/>
				</g>
				<g>
					<path id="DejaVuSans-Bold-54_00000087414738409117860280000015291264728932793742_" class="st1" d="M882.7,72.9h67.2V58.7
						h-24.2V0h-18.8v58.7h-24.2V72.9z"/>
				</g>
				<g>
					<path id="DejaVuSans-Bold-45_00000116220637657300529740000012174049225089012889_" class="st1" d="M959.6,72.9h50.7V58.7
						h-31.9V45.1h30V30.9h-30V14.2h33V0h-51.8V72.9z"/>
				</g>
				<g>
					<path id="DejaVuSans-Bold-5f_00000084520819932348960230000004496571732786663302_" class="st1" d="M1068.7-14.3v-9.3h-50v9.3
						H1068.7z"/>
				</g>
				<g>
					<path id="DejaVuSans-Bold-52_00000021799194314114825680000013701874484993796238_" class="st1" d="M1104.6,40.6
						c3.9,0,6.8,0.7,8.5,2.2c1.7,1.5,2.6,3.9,2.6,7.2c0,3.3-0.9,5.7-2.6,7.1c-1.7,1.4-4.5,2.2-8.5,2.2h-7.9V40.6H1104.6z
						 M1096.7,27.6V0h-18.8v72.9h28.7c9.6,0,16.6-1.6,21.1-4.8c4.5-3.2,6.7-8.3,6.7-15.3c0-4.8-1.2-8.8-3.5-11.9
						c-2.3-3.1-5.8-5.4-10.5-6.8c2.6-0.6,4.9-1.9,6.9-4c2-2.1,4.1-5.2,6.2-9.4L1143.7,0h-20l-8.9,18.1c-1.8,3.6-3.6,6.1-5.5,7.5
						c-1.8,1.3-4.3,2-7.3,2H1096.7z"/>
				</g>
				<g>
					<path id="DejaVuSans-Bold-41_00000148637632176472214820000017817179412201031813_" class="st1" d="M1199.1,13.3h-29.4
						L1165.1,0h-18.9l27,72.9h22.4l27-72.9h-18.9L1199.1,13.3z M1174.4,26.8h20l-10,29L1174.4,26.8z"/>
				</g>
				<g>
					<path id="DejaVuSans-Bold-4d_00000155136389314319916650000010513122900859877266_" class="st1" d="M1232.3,72.9h23.9l16.6-39
						l16.7,39h23.9V0h-17.8v53.3L1278.8,14h-11.9l-16.8,39.3V0h-17.8V72.9z"/>
				</g>
				<g>
					<path id="DejaVuSans-Bold-5f_00000126321004921264548940000000333382318127214519_" class="st1" d="M1372.6-14.3v-9.3h-50v9.3
						H1372.6z"/>
				</g>
				<g>
					<path id="DejaVuSans-Bold-49_00000034786662057800862960000001738446677432731023_" class="st1" d="M1381.8,72.9h18.8V0h-18.8
						V72.9z"/>
				</g>
				<g>
					<path id="DejaVuSans-Bold-51_00000131335715772595308480000001208061424006941325_" class="st1" d="M1454.3-1.3h-1.5
						c-12,0-21.4,3.3-28,10c-6.7,6.6-10,15.9-10,27.7c0,11.8,3.3,21.1,10,27.8c6.7,6.7,15.8,10.1,27.5,10.1c11.8,0,21-3.3,27.6-10
						c6.6-6.6,9.9-15.9,9.9-27.9c0-8.2-1.8-15.3-5.2-21.2s-8.5-10.4-15.1-13.4l14.7-16.4h-17.9L1454.3-1.3z M1452.3,60.6
						c-5.7,0-10.2-2.1-13.3-6.3s-4.7-10.2-4.7-17.9c0-7.8,1.5-13.8,4.6-18c3.1-4.1,7.6-6.2,13.4-6.2c5.8,0,10.2,2.1,13.4,6.3
						c3.2,4.2,4.7,10.2,4.7,17.8c0,7.7-1.6,13.6-4.7,17.9S1458.1,60.6,1452.3,60.6z"/>
				</g>
				<g>
					<path id="DejaVuSans-Bold-52_00000095328662608301500730000008825025014360572606_" class="st1" d="M1530.7,40.6
						c3.9,0,6.8,0.7,8.5,2.2c1.7,1.5,2.6,3.9,2.6,7.2c0,3.3-0.9,5.7-2.6,7.1c-1.7,1.4-4.5,2.2-8.5,2.2h-7.9V40.6H1530.7z
						 M1522.8,27.6V0H1504v72.9h28.7c9.6,0,16.6-1.6,21.1-4.8c4.5-3.2,6.7-8.3,6.7-15.3c0-4.8-1.2-8.8-3.5-11.9
						c-2.3-3.1-5.8-5.4-10.5-6.8c2.6-0.6,4.9-1.9,6.9-4c2-2.1,4.1-5.2,6.2-9.4L1569.8,0h-20l-8.9,18.1c-1.8,3.6-3.6,6.1-5.5,7.5
						c-1.8,1.3-4.3,2-7.3,2H1522.8z"/>
				</g>
			</g>
		</g>
		<g id="patch_9">
			<path class="st2" d="M264.6,85.5H499V50.8H264.6V85.5z"/>
		</g>
		<g id="text_8">
			<g transform="translate(433.473687 72.038125) scale(0.14 -0.14)">
				<g>
					<path id="DejaVuSans-4d" d="M9.8,72.9h14.7l18.6-49.6l18.7,49.6h14.7V0h-9.6v64L48.1,14h-9.9L19.4,64V0H9.8V72.9z"/>
				</g>
				<g>
					<path id="DejaVuSans-e9" d="M142.5,29.6v-4.4h-41.3c0.4-6.2,2.3-10.9,5.6-14.1s8-4.9,13.9-4.9c3.4,0,6.8,0.4,10,1.3
						c3.2,0.8,6.5,2.1,9.7,3.8V2.8c-3.2-1.4-6.5-2.4-9.9-3.1s-6.8-1.1-10.3-1.1c-8.7,0-15.6,2.5-20.7,7.6c-5.1,5.1-7.6,12-7.6,20.6
						c0,8.9,2.4,16,7.2,21.3c4.8,5.3,11.4,7.9,19.6,7.9c7.4,0,13.2-2.4,17.5-7.1C140.3,44.2,142.5,37.7,142.5,29.6z M133.5,32.2
						c-0.1,4.9-1.4,8.8-4.1,11.8c-2.7,2.9-6.2,4.4-10.7,4.4c-5,0-9-1.4-12-4.2s-4.7-6.8-5.2-12L133.5,32.2z M124.8,80h9.7
						l-15.9-18.4h-7.5L124.8,80z"/>
				</g>
				<g>
					<path id="DejaVuSans-64" d="M193.2,46.4V76h9V0h-9v8.2c-1.9-3.2-4.3-5.7-7.2-7.2c-2.9-1.6-6.3-2.4-10.4-2.4
						c-6.6,0-12,2.6-16.1,7.9c-4.1,5.3-6.2,12.2-6.2,20.8s2.1,15.5,6.2,20.8c4.2,5.3,9.5,7.9,16.1,7.9c4,0,7.5-0.8,10.4-2.4
						C188.9,52.1,191.3,49.6,193.2,46.4z M162.6,27.3c0-6.6,1.4-11.8,4.1-15.5s6.5-5.6,11.2-5.6s8.5,1.9,11.2,5.6
						c2.7,3.8,4.1,8.9,4.1,15.5s-1.4,11.8-4.1,15.5c-2.7,3.8-6.5,5.6-11.2,5.6s-8.5-1.9-11.2-5.6S162.6,33.9,162.6,27.3z"/>
				</g>
				<g>
					<path id="DejaVuSans-69" d="M220.7,54.7h9V0h-9V54.7z M220.7,76h9V64.6h-9V76z"/>
				</g>
				<g>
					<path id="DejaVuSans-61" d="M273.3,27.5c-7.3,0-12.3-0.8-15.1-2.5c-2.8-1.7-4.2-4.5-4.2-8.5c0-3.2,1.1-5.7,3.2-7.6
						c2.1-1.9,5-2.8,8.6-2.8c5,0,9,1.8,12,5.3s4.5,8.2,4.5,14.1v2H273.3z M291.3,31.2V0h-9v8.3c-2.1-3.3-4.6-5.8-7.7-7.3
						s-6.8-2.4-11.2-2.4c-5.6,0-10,1.6-13.4,4.7c-3.3,3.1-5,7.4-5,12.6c0,6.1,2.1,10.8,6.2,13.9c4.1,3.1,10.3,4.7,18.4,4.7h12.6v0.9
						c0,4.1-1.4,7.3-4.1,9.6s-6.5,3.4-11.5,3.4c-3.1,0-6.2-0.4-9.1-1.1c-3-0.8-5.8-1.9-8.5-3.4v8.3c3.3,1.3,6.5,2.2,9.6,2.8
						c3.1,0.6,6.1,1,9,1c7.9,0,13.8-2.1,17.7-6.2C289.3,45.8,291.3,39.5,291.3,31.2z"/>
				</g>
			</g>
		</g>
		<g id="patch_10">
			<path class="st2" d="M499,85.5h234.4V50.8H499V85.5z"/>
		</g>
		<g id="text_9">
			<g transform="translate(669.804625 72.038125) scale(0.14 -0.14)">
				<g>
					<path id="DejaVuSans-32" d="M19.2,8.3h34.4V0H7.3v8.3c3.7,3.9,8.8,9.1,15.3,15.6c6.5,6.5,10.5,10.7,12.2,12.6
						c3.2,3.5,5.4,6.5,6.6,9c1.3,2.5,1.9,4.9,1.9,7.2c0,3.9-1.4,7-4.1,9.5c-2.7,2.4-6.3,3.7-10.6,3.7c-3.1,0-6.4-0.5-9.8-1.6
						c-3.4-1.1-7.1-2.7-11-4.9v10c4,1.6,7.7,2.8,11.1,3.6c3.5,0.8,6.6,1.2,9.5,1.2c7.6,0,13.6-1.9,18.1-5.7
						c4.5-3.8,6.7-8.8,6.7-15.1c0-3-0.6-5.8-1.7-8.5c-1.1-2.7-3.2-5.8-6.1-9.5c-0.8-0.9-3.4-3.7-7.8-8.2
						C33.3,22.7,27.1,16.4,19.2,8.3z"/>
				</g>
				<g>
					<path id="DejaVuSans-2e" d="M74.3,12.4h10.3V0H74.3V12.4z"/>
				</g>
				<g>
					<path id="DejaVuSans-37" d="M103.6,72.9h46.9v-4.2L124,0h-10.3l24.9,64.6h-35V72.9z"/>
				</g>
				<g>
					<path id="DejaVuSans-34" d="M196.8,64.3l-24.9-38.9h24.9V64.3z M194.2,72.9h12.4V25.4H217v-8.2h-10.4V0h-9.8v17.2h-32.9v9.5
						L194.2,72.9z"/>
				</g>
				<g>
					<path id="DejaVuSans-38" d="M254.4,34.6c-4.7,0-8.4-1.3-11.1-3.8c-2.7-2.5-4-6-4-10.3c0-4.4,1.3-7.8,4-10.4
						c2.7-2.5,6.4-3.8,11.1-3.8s8.4,1.3,11.1,3.8c2.7,2.5,4.1,6,4.1,10.3c0,4.4-1.3,7.8-4,10.3C262.9,33.4,259.2,34.6,254.4,34.6z
						 M244.6,38.8c-4.2,1-7.5,3-9.9,5.9c-2.4,2.9-3.5,6.4-3.5,10.6c0,5.8,2.1,10.4,6.2,13.8c4.2,3.4,9.8,5.1,17.1,5.1
						c7.3,0,13-1.7,17.1-5.1c4.1-3.4,6.2-8,6.2-13.8c0-4.2-1.2-7.7-3.5-10.6c-2.4-2.9-5.6-4.9-9.8-5.9c4.8-1.1,8.4-3.3,11.1-6.5
						c2.7-3.2,4-7.2,4-11.8c0-7.1-2.2-12.5-6.5-16.3c-4.3-3.8-10.5-5.7-18.5-5.7c-8,0-14.2,1.9-18.5,5.7c-4.3,3.8-6.5,9.2-6.5,16.3
						c0,4.6,1.3,8.6,4,11.8C236.1,35.5,239.8,37.7,244.6,38.8z M241,54.4c0-3.8,1.2-6.7,3.5-8.8c2.4-2.1,5.7-3.2,9.9-3.2
						c4.2,0,7.6,1.1,9.9,3.2c2.4,2.1,3.6,5.1,3.6,8.8c0,3.8-1.2,6.7-3.6,8.8c-2.4,2.1-5.7,3.2-9.9,3.2c-4.3,0-7.6-1.1-9.9-3.2
						C242.1,61.1,241,58.2,241,54.4z"/>
				</g>
			</g>
		</g>
		<g id="patch_11">
			<path class="st2" d="M733.3,85.5h234.4V50.8H733.3V85.5z"/>
		</g>
		<g id="text_10">
			<g transform="translate(904.164625 72.038125) scale(0.14 -0.14)">
				<g>
					<path id="DejaVuSans-35" d="M10.8,72.9h38.7v-8.3H19.8V46.7c1.4,0.5,2.9,0.9,4.3,1.1c1.4,0.2,2.9,0.4,4.3,0.4
						c8.1,0,14.6-2.2,19.3-6.7c4.8-4.5,7.1-10.5,7.1-18.1c0-7.8-2.4-13.9-7.3-18.3c-4.9-4.3-11.8-6.5-20.7-6.5
						c-3.1,0-6.2,0.3-9.4,0.8c-3.2,0.5-6.4,1.3-9.8,2.3v9.9c2.9-1.6,6-2.8,9.1-3.6s6.4-1.2,9.9-1.2c5.6,0,10.1,1.5,13.4,4.4
						c3.3,3,4.9,7,4.9,12.1c0,5.1-1.6,9.1-4.9,12c-3.3,3-7.7,4.5-13.4,4.5c-2.6,0-5.3-0.3-7.9-0.9c-2.6-0.6-5.3-1.5-8-2.7V72.9z"/>
				</g>
				<g>
					<path id="DejaVuSans-2e_00000078761661879523205120000012841439744664563584_" d="M74.3,12.4h10.3V0H74.3V12.4z"/>
				</g>
				<g>
					<path id="DejaVuSans-30" d="M127.2,66.4c-5.1,0-8.9-2.5-11.5-7.5c-2.6-5-3.8-12.5-3.8-22.5c0-10,1.3-17.5,3.8-22.5
						c2.6-5,6.4-7.5,11.5-7.5c5.1,0,8.9,2.5,11.5,7.5c2.6,5,3.8,12.5,3.8,22.5c0,10-1.3,17.5-3.8,22.5
						C136.1,63.9,132.3,66.4,127.2,66.4z M127.2,74.2c8.2,0,14.4-3.2,18.7-9.7c4.3-6.5,6.5-15.8,6.5-28.1c0-12.3-2.2-21.6-6.5-28.1
						c-4.3-6.5-10.6-9.7-18.7-9.7c-8.2,0-14.4,3.2-18.7,9.7c-4.3,6.5-6.5,15.8-6.5,28.1c0,12.3,2.2,21.7,6.5,28.1
						C112.8,71,119,74.2,127.2,74.2z"/>
				</g>
				<g>
					<path id="DejaVuSans-39" d="M170,1.5v9c2.5-1.2,5-2.1,7.5-2.7c2.5-0.6,5-0.9,7.5-0.9c6.5,0,11.5,2.2,14.9,6.6
						c3.4,4.4,5.4,11,5.9,20c-1.9-2.8-4.3-5-7.2-6.5c-2.9-1.5-6.1-2.2-9.6-2.2c-7.3,0-13.1,2.2-17.3,6.6c-4.2,4.4-6.4,10.5-6.4,18.1
						c0,7.5,2.2,13.5,6.6,18c4.4,4.5,10.3,6.8,17.7,6.8c8.4,0,14.9-3.2,19.3-9.7c4.4-6.5,6.7-15.8,6.7-28.1
						c0-11.5-2.7-20.7-8.2-27.5C202,2,194.7-1.4,185.5-1.4c-2.5,0-5,0.2-7.5,0.7C175.4-0.2,172.8,0.5,170,1.5z M189.6,32.4
						c4.4,0,7.9,1.5,10.5,4.5c2.6,3,3.9,7.2,3.9,12.5c0,5.2-1.3,9.4-3.9,12.4c-2.6,3-6.1,4.6-10.5,4.6s-7.9-1.5-10.5-4.6
						c-2.6-3-3.9-7.2-3.9-12.4c0-5.3,1.3-9.4,3.9-12.5C181.7,33.9,185.2,32.4,189.6,32.4z"/>
				</g>
				<g>
					<path id="DejaVuSans-39_00000010299237928611402840000010083123869556106175_" d="M233.6,1.5v9c2.5-1.2,5-2.1,7.5-2.7
						c2.5-0.6,5-0.9,7.5-0.9c6.5,0,11.5,2.2,14.9,6.6c3.4,4.4,5.4,11,5.9,20c-1.9-2.8-4.3-5-7.2-6.5c-2.9-1.5-6.1-2.2-9.6-2.2
						c-7.3,0-13.1,2.2-17.3,6.6c-4.2,4.4-6.4,10.5-6.4,18.1c0,7.5,2.2,13.5,6.6,18c4.4,4.5,10.3,6.8,17.7,6.8
						c8.4,0,14.9-3.2,19.3-9.7c4.4-6.5,6.7-15.8,6.7-28.1c0-11.5-2.7-20.7-8.2-27.5c-5.4-6.9-12.8-10.3-22-10.3
						c-2.5,0-5,0.2-7.5,0.7C239-0.2,236.4,0.5,233.6,1.5z M253.3,32.4c4.4,0,7.9,1.5,10.5,4.5c2.6,3,3.9,7.2,3.9,12.5
						c0,5.2-1.3,9.4-3.9,12.4c-2.6,3-6.1,4.6-10.5,4.6c-4.4,0-7.9-1.5-10.5-4.6c-2.6-3-3.9-7.2-3.9-12.4c0-5.3,1.3-9.4,3.9-12.5
						C245.3,33.9,248.8,32.4,253.3,32.4z"/>
				</g>
			</g>
		</g>
		<g id="patch_12">
			<path class="st2" d="M967.7,85.5H1202V50.8H967.7V85.5z"/>
		</g>
		<g id="text_11">
			<g transform="translate(1138.524625 72.038125) scale(0.14 -0.14)">
				<g>
					<path id="DejaVuSans-30_00000119826088279399805720000014321375970988916617_" d="M31.8,66.4c-5.1,0-8.9-2.5-11.5-7.5
						c-2.6-5-3.8-12.5-3.8-22.5c0-10,1.3-17.5,3.8-22.5c2.6-5,6.4-7.5,11.5-7.5c5.1,0,8.9,2.5,11.5,7.5c2.6,5,3.8,12.5,3.8,22.5
						c0,10-1.3,17.5-3.8,22.5C40.7,63.9,36.9,66.4,31.8,66.4z M31.8,74.2c8.2,0,14.4-3.2,18.7-9.7c4.3-6.5,6.5-15.8,6.5-28.1
						c0-12.3-2.2-21.6-6.5-28.1C46.2,1.8,40-1.4,31.8-1.4c-8.2,0-14.4,3.2-18.7,9.7c-4.3,6.5-6.5,15.8-6.5,28.1
						c0,12.3,2.2,21.7,6.5,28.1C17.4,71,23.6,74.2,31.8,74.2z"/>
				</g>
				<g>
					<path id="DejaVuSans-2e_00000125586297166784435980000000748786414584806049_" d="M74.3,12.4h10.3V0H74.3V12.4z"/>
				</g>
				<g>
					<path id="DejaVuSans-30_00000053527595946273887340000016211689798172647575_" d="M127.2,66.4c-5.1,0-8.9-2.5-11.5-7.5
						c-2.6-5-3.8-12.5-3.8-22.5c0-10,1.3-17.5,3.8-22.5c2.6-5,6.4-7.5,11.5-7.5c5.1,0,8.9,2.5,11.5,7.5c2.6,5,3.8,12.5,3.8,22.5
						c0,10-1.3,17.5-3.8,22.5C136.1,63.9,132.3,66.4,127.2,66.4z M127.2,74.2c8.2,0,14.4-3.2,18.7-9.7c4.3-6.5,6.5-15.8,6.5-28.1
						c0-12.3-2.2-21.6-6.5-28.1c-4.3-6.5-10.6-9.7-18.7-9.7c-8.2,0-14.4,3.2-18.7,9.7c-4.3,6.5-6.5,15.8-6.5,28.1
						c0,12.3,2.2,21.7,6.5,28.1C112.8,71,119,74.2,127.2,74.2z"/>
				</g>
				<g>
					<path id="DejaVuSans-30_00000167383196568067209450000011089727518661869704_" d="M190.8,66.4c-5.1,0-8.9-2.5-11.5-7.5
						c-2.6-5-3.8-12.5-3.8-22.5c0-10,1.3-17.5,3.8-22.5c2.6-5,6.4-7.5,11.5-7.5c5.1,0,8.9,2.5,11.5,7.5c2.6,5,3.8,12.5,3.8,22.5
						c0,10-1.3,17.5-3.8,22.5C199.8,63.9,195.9,66.4,190.8,66.4z M190.8,74.2c8.2,0,14.4-3.2,18.7-9.7c4.3-6.5,6.5-15.8,6.5-28.1
						c0-12.3-2.2-21.6-6.5-28.1c-4.3-6.5-10.6-9.7-18.7-9.7c-8.2,0-14.4,3.2-18.7,9.7c-4.3,6.5-6.5,15.8-6.5,28.1
						c0,12.3,2.2,21.7,6.5,28.1C176.4,71,182.6,74.2,190.8,74.2z"/>
				</g>
				<g>
					<path id="DejaVuSans-36" d="M255.7,40.4c-4.4,0-7.9-1.5-10.5-4.5c-2.6-3-3.9-7.2-3.9-12.4c0-5.2,1.3-9.4,3.9-12.4
						c2.6-3,6.1-4.6,10.5-4.6c4.4,0,7.9,1.5,10.5,4.6c2.6,3.1,3.9,7.2,3.9,12.4c0,5.3-1.3,9.4-3.9,12.4
						C263.6,38.9,260.1,40.4,255.7,40.4z M275.2,71.3v-9c-2.5,1.2-5,2.1-7.5,2.7c-2.5,0.6-5,0.9-7.5,0.9c-6.5,0-11.5-2.2-14.9-6.6
						c-3.4-4.4-5.4-11-5.9-19.9c1.9,2.8,4.3,5,7.2,6.5c2.9,1.5,6.1,2.3,9.6,2.3c7.3,0,13.1-2.2,17.4-6.7c4.2-4.4,6.4-10.5,6.4-18.1
						c0-7.5-2.2-13.5-6.6-18c-4.4-4.5-10.3-6.8-17.7-6.8c-8.4,0-14.9,3.2-19.3,9.7c-4.5,6.5-6.7,15.8-6.7,28.1
						c0,11.5,2.7,20.7,8.2,27.6s12.8,10.3,22,10.3c2.5,0,5-0.2,7.5-0.7S272.5,72.3,275.2,71.3z"/>
				</g>
			</g>
		</g>
		<g id="patch_13">
			<path class="st2" d="M1202,85.5h234.4V50.8H1202V85.5z"/>
		</g>
		<g id="text_12">
			<g transform="translate(1372.884625 72.038125) scale(0.14 -0.14)">
				<g>
					<path id="DejaVuSans-30_00000132784790408864654340000014313433544666317228_" d="M31.8,66.4c-5.1,0-8.9-2.5-11.5-7.5
						c-2.6-5-3.8-12.5-3.8-22.5c0-10,1.3-17.5,3.8-22.5c2.6-5,6.4-7.5,11.5-7.5c5.1,0,8.9,2.5,11.5,7.5c2.6,5,3.8,12.5,3.8,22.5
						c0,10-1.3,17.5-3.8,22.5C40.7,63.9,36.9,66.4,31.8,66.4z M31.8,74.2c8.2,0,14.4-3.2,18.7-9.7c4.3-6.5,6.5-15.8,6.5-28.1
						c0-12.3-2.2-21.6-6.5-28.1C46.2,1.8,40-1.4,31.8-1.4c-8.2,0-14.4,3.2-18.7,9.7c-4.3,6.5-6.5,15.8-6.5,28.1
						c0,12.3,2.2,21.7,6.5,28.1C17.4,71,23.6,74.2,31.8,74.2z"/>
				</g>
				<g>
					<path id="DejaVuSans-2e_00000005979545571456488460000018098536081501535120_" d="M74.3,12.4h10.3V0H74.3V12.4z"/>
				</g>
				<g>
					<path id="DejaVuSans-30_00000017518184350418743960000008015334835812483467_" d="M127.2,66.4c-5.1,0-8.9-2.5-11.5-7.5
						c-2.6-5-3.8-12.5-3.8-22.5c0-10,1.3-17.5,3.8-22.5c2.6-5,6.4-7.5,11.5-7.5c5.1,0,8.9,2.5,11.5,7.5c2.6,5,3.8,12.5,3.8,22.5
						c0,10-1.3,17.5-3.8,22.5C136.1,63.9,132.3,66.4,127.2,66.4z M127.2,74.2c8.2,0,14.4-3.2,18.7-9.7c4.3-6.5,6.5-15.8,6.5-28.1
						c0-12.3-2.2-21.6-6.5-28.1c-4.3-6.5-10.6-9.7-18.7-9.7c-8.2,0-14.4,3.2-18.7,9.7c-4.3,6.5-6.5,15.8-6.5,28.1
						c0,12.3,2.2,21.7,6.5,28.1C112.8,71,119,74.2,127.2,74.2z"/>
				</g>
				<g>
					<path id="DejaVuSans-34_00000034778387840351201040000013056569915024801467_" d="M196.8,64.3l-24.9-38.9h24.9V64.3z
						 M194.2,72.9h12.4V25.4H217v-8.2h-10.4V0h-9.8v17.2h-32.9v9.5L194.2,72.9z"/>
				</g>
				<g>
					<path id="DejaVuSans-30_00000055676433434485308850000011955637463767502756_" d="M254.4,66.4c-5.1,0-8.9-2.5-11.5-7.5
						c-2.6-5-3.8-12.5-3.8-22.5c0-10,1.3-17.5,3.8-22.5c2.6-5,6.4-7.5,11.5-7.5c5.1,0,8.9,2.5,11.5,7.5c2.6,5,3.8,12.5,3.8,22.5
						c0,10-1.3,17.5-3.8,22.5C263.4,63.9,259.6,66.4,254.4,66.4z M254.4,74.2c8.2,0,14.4-3.2,18.7-9.7c4.3-6.5,6.5-15.8,6.5-28.1
						c0-12.3-2.2-21.6-6.5-28.1c-4.3-6.5-10.6-9.7-18.7-9.7c-8.2,0-14.4,3.2-18.7,9.7c-4.3,6.5-6.5,15.8-6.5,28.1
						c0,12.3,2.2,21.7,6.5,28.1C240,71,246.3,74.2,254.4,74.2z"/>
				</g>
			</g>
		</g>
		<g id="patch_14">
			<path class="st2" d="M1436.4,85.5h234.4V50.8h-234.4V85.5z"/>
		</g>
		<g id="text_13">
			<g transform="translate(1607.244625 72.038125) scale(0.14 -0.14)">
				<g>
					<path id="DejaVuSans-30_00000161617675218023127540000010905124089928172700_" d="M31.8,66.4c-5.1,0-8.9-2.5-11.5-7.5
						c-2.6-5-3.8-12.5-3.8-22.5c0-10,1.3-17.5,3.8-22.5c2.6-5,6.4-7.5,11.5-7.5c5.1,0,8.9,2.5,11.5,7.5c2.6,5,3.8,12.5,3.8,22.5
						c0,10-1.3,17.5-3.8,22.5C40.7,63.9,36.9,66.4,31.8,66.4z M31.8,74.2c8.2,0,14.4-3.2,18.7-9.7c4.3-6.5,6.5-15.8,6.5-28.1
						c0-12.3-2.2-21.6-6.5-28.1C46.2,1.8,40-1.4,31.8-1.4c-8.2,0-14.4,3.2-18.7,9.7c-4.3,6.5-6.5,15.8-6.5,28.1
						c0,12.3,2.2,21.7,6.5,28.1C17.4,71,23.6,74.2,31.8,74.2z"/>
				</g>
				<g>
					<path id="DejaVuSans-2e_00000110463336636567767270000000106391750215450289_" d="M74.3,12.4h10.3V0H74.3V12.4z"/>
				</g>
				<g>
					<path id="DejaVuSans-30_00000183219767900555352480000015421891512025710508_" d="M127.2,66.4c-5.1,0-8.9-2.5-11.5-7.5
						c-2.6-5-3.8-12.5-3.8-22.5c0-10,1.3-17.5,3.8-22.5c2.6-5,6.4-7.5,11.5-7.5c5.1,0,8.9,2.5,11.5,7.5c2.6,5,3.8,12.5,3.8,22.5
						c0,10-1.3,17.5-3.8,22.5C136.1,63.9,132.3,66.4,127.2,66.4z M127.2,74.2c8.2,0,14.4-3.2,18.7-9.7c4.3-6.5,6.5-15.8,6.5-28.1
						c0-12.3-2.2-21.6-6.5-28.1c-4.3-6.5-10.6-9.7-18.7-9.7c-8.2,0-14.4,3.2-18.7,9.7c-4.3,6.5-6.5,15.8-6.5,28.1
						c0,12.3,2.2,21.7,6.5,28.1C112.8,71,119,74.2,127.2,74.2z"/>
				</g>
				<g>
					<path id="DejaVuSans-34_00000075853416794003282790000017059237752120271235_" d="M196.8,64.3l-24.9-38.9h24.9V64.3z
						 M194.2,72.9h12.4V25.4H217v-8.2h-10.4V0h-9.8v17.2h-32.9v9.5L194.2,72.9z"/>
				</g>
				<g>
					<path id="DejaVuSans-32_00000061440210458498160780000012722596985953130405_" d="M241.8,8.3h34.4V0H230v8.3
						c3.7,3.9,8.8,9.1,15.3,15.6c6.5,6.5,10.5,10.7,12.2,12.6c3.2,3.5,5.4,6.5,6.6,9c1.3,2.5,1.9,4.9,1.9,7.2c0,3.9-1.4,7-4.1,9.5
						c-2.7,2.4-6.3,3.7-10.6,3.7c-3.1,0-6.4-0.5-9.8-1.6c-3.4-1.1-7.1-2.7-11-4.9v10c4,1.6,7.7,2.8,11.1,3.6
						c3.5,0.8,6.6,1.2,9.5,1.2c7.6,0,13.6-1.9,18.1-5.7c4.5-3.8,6.7-8.8,6.7-15.1c0-3-0.6-5.8-1.7-8.5c-1.1-2.7-3.2-5.8-6.1-9.5
						c-0.8-0.9-3.4-3.7-7.8-8.2C255.9,22.7,249.8,16.4,241.8,8.3z"/>
				</g>
			</g>
		</g>
		<g id="patch_15">
			<path class="st2" d="M1670.8,85.5h234.4V50.8h-234.4V85.5z"/>
		</g>
		<g id="text_14">
			<g transform="translate(1841.604625 72.038125) scale(0.14 -0.14)">
				<g>
					<path id="DejaVuSans-30_00000145741847111198370420000009401049572874727353_" d="M31.8,66.4c-5.1,0-8.9-2.5-11.5-7.5
						c-2.6-5-3.8-12.5-3.8-22.5c0-10,1.3-17.5,3.8-22.5c2.6-5,6.4-7.5,11.5-7.5c5.1,0,8.9,2.5,11.5,7.5c2.6,5,3.8,12.5,3.8,22.5
						c0,10-1.3,17.5-3.8,22.5C40.7,63.9,36.9,66.4,31.8,66.4z M31.8,74.2c8.2,0,14.4-3.2,18.7-9.7c4.3-6.5,6.5-15.8,6.5-28.1
						c0-12.3-2.2-21.6-6.5-28.1C46.2,1.8,40-1.4,31.8-1.4c-8.2,0-14.4,3.2-18.7,9.7c-4.3,6.5-6.5,15.8-6.5,28.1
						c0,12.3,2.2,21.7,6.5,28.1C17.4,71,23.6,74.2,31.8,74.2z"/>
				</g>
				<g>
					<path id="DejaVuSans-2e_00000011004761803102842950000003339600217490192522_" d="M74.3,12.4h10.3V0H74.3V12.4z"/>
				</g>
				<g>
					<path id="DejaVuSans-30_00000070082168512273241510000015389931442317096623_" d="M127.2,66.4c-5.1,0-8.9-2.5-11.5-7.5
						c-2.6-5-3.8-12.5-3.8-22.5c0-10,1.3-17.5,3.8-22.5c2.6-5,6.4-7.5,11.5-7.5c5.1,0,8.9,2.5,11.5,7.5c2.6,5,3.8,12.5,3.8,22.5
						c0,10-1.3,17.5-3.8,22.5C136.1,63.9,132.3,66.4,127.2,66.4z M127.2,74.2c8.2,0,14.4-3.2,18.7-9.7c4.3-6.5,6.5-15.8,6.5-28.1
						c0-12.3-2.2-21.6-6.5-28.1c-4.3-6.5-10.6-9.7-18.7-9.7c-8.2,0-14.4,3.2-18.7,9.7c-4.3,6.5-6.5,15.8-6.5,28.1
						c0,12.3,2.2,21.7,6.5,28.1C112.8,71,119,74.2,127.2,74.2z"/>
				</g>
				<g>
					<path id="DejaVuSans-36_00000103968434475990669460000004805388301463248824_" d="M192,40.4c-4.4,0-7.9-1.5-10.5-4.5
						c-2.6-3-3.9-7.2-3.9-12.4c0-5.2,1.3-9.4,3.9-12.4c2.6-3,6.1-4.6,10.5-4.6s7.9,1.5,10.5,4.6c2.6,3.1,3.9,7.2,3.9,12.4
						c0,5.3-1.3,9.4-3.9,12.4C200,38.9,196.5,40.4,192,40.4z M211.6,71.3v-9c-2.5,1.2-5,2.1-7.5,2.7c-2.5,0.6-5,0.9-7.5,0.9
						c-6.5,0-11.5-2.2-14.9-6.6c-3.4-4.4-5.4-11-5.9-19.9c1.9,2.8,4.3,5,7.2,6.5c2.9,1.5,6.1,2.3,9.6,2.3c7.3,0,13.1-2.2,17.4-6.7
						c4.2-4.4,6.4-10.5,6.4-18.1c0-7.5-2.2-13.5-6.6-18c-4.4-4.5-10.3-6.8-17.7-6.8c-8.4,0-14.9,3.2-19.3,9.7
						c-4.5,6.5-6.7,15.8-6.7,28.1c0,11.5,2.7,20.7,8.2,27.6s12.8,10.3,22,10.3c2.5,0,5-0.2,7.5-0.7S208.9,72.3,211.6,71.3z"/>
				</g>
				<g>
					<path id="DejaVuSans-33" d="M263.2,39.3c4.7-1,8.4-3.1,11-6.3c2.7-3.2,4-7.1,4-11.8c0-7.2-2.5-12.8-7.4-16.7
						c-4.9-3.9-12-5.9-21.1-5.9c-3.1,0-6.2,0.3-9.4,0.9c-3.2,0.6-6.6,1.5-10,2.7v9.5c2.7-1.6,5.7-2.8,9-3.6
						c3.3-0.8,6.7-1.2,10.2-1.2c6.2,0,10.9,1.2,14.1,3.7s4.9,6,4.9,10.6c0,4.3-1.5,7.7-4.5,10.1c-3,2.4-7.2,3.6-12.6,3.6h-8.5V43
						h8.9c4.8,0,8.6,1,11.1,2.9s3.9,4.7,3.9,8.4c0,3.7-1.3,6.6-4,8.6c-2.6,2-6.4,3-11.4,3c-2.7,0-5.6-0.3-8.7-0.9
						c-3.1-0.6-6.5-1.5-10.2-2.7v8.8c3.8,1,7.3,1.8,10.5,2.3c3.3,0.5,6.4,0.8,9.2,0.8c7.5,0,13.4-1.7,17.8-5.1
						c4.4-3.4,6.5-8,6.5-13.8c0-4-1.2-7.5-3.5-10.2S267.5,40.4,263.2,39.3z"/>
				</g>
			</g>
		</g>
		<g id="patch_16">
			<path class="st3" d="M264.6,120.2H499V85.5H264.6V120.2z"/>
		</g>
		<g id="text_15">
			<g transform="translate(452.259937 106.688125) scale(0.14 -0.14)">
				<g>
					<path id="DejaVuSans-53" d="M53.5,70.5v-9.6c-3.7,1.8-7.3,3.1-10.6,4c-3.3,0.9-6.5,1.3-9.6,1.3c-5.4,0-9.5-1-12.4-3.1
						s-4.4-5-4.4-8.9c0-3.2,1-5.7,2.9-7.3c1.9-1.6,5.6-3,11-4l6-1.2c7.4-1.4,12.8-3.9,16.3-7.4s5.2-8.3,5.2-14.2
						c0-7.1-2.4-12.4-7.1-16.1C46.1,0.4,39.1-1.4,30-1.4c-3.4,0-7.1,0.4-11,1.2c-3.9,0.8-7.9,1.9-12.1,3.5v10.2
						c4-2.2,7.9-3.9,11.8-5.1c3.8-1.1,7.6-1.7,11.3-1.7c5.6,0,10,1.1,13,3.3c3.1,2.2,4.6,5.4,4.6,9.5c0,3.6-1.1,6.4-3.3,8.4
						s-5.8,3.5-10.8,4.5l-6,1.2c-7.4,1.5-12.7,3.8-16,6.9c-3.3,3.1-4.9,7.5-4.9,13c0,6.4,2.3,11.5,6.8,15.2s10.8,5.6,18.8,5.6
						c3.4,0,6.9-0.3,10.5-0.9C46.2,72.7,49.8,71.7,53.5,70.5z"/>
				</g>
				<g>
					<path id="DejaVuSans-74" d="M81.8,70.2V54.7h18.5v-7H81.8V18c0-4.5,0.6-7.3,1.8-8.6s3.7-1.9,7.5-1.9h9.2V0h-9.2
						c-6.9,0-11.7,1.3-14.4,3.9c-2.6,2.6-4,7.3-4,14.1v29.7h-6.6v7h6.6v15.5H81.8z"/>
				</g>
				<g>
					<path id="DejaVuSans-64_00000071544751413386461630000009831954964458870165_" d="M148.1,46.4V76h9V0h-9v8.2
						c-1.9-3.2-4.3-5.7-7.2-7.2c-2.9-1.6-6.3-2.4-10.4-2.4c-6.6,0-12,2.6-16.1,7.9c-4.1,5.3-6.2,12.2-6.2,20.8s2.1,15.5,6.2,20.8
						c4.2,5.3,9.5,7.9,16.1,7.9c4,0,7.5-0.8,10.4-2.4C143.8,52.1,146.2,49.6,148.1,46.4z M117.5,27.3c0-6.6,1.4-11.8,4.1-15.5
						s6.5-5.6,11.2-5.6s8.5,1.9,11.2,5.6c2.7,3.8,4.1,8.9,4.1,15.5s-1.4,11.8-4.1,15.5c-2.7,3.8-6.5,5.6-11.2,5.6s-8.5-1.9-11.2-5.6
						S117.5,33.9,117.5,27.3z"/>
				</g>
			</g>
		</g>
		<g id="patch_17">
			<path class="st3" d="M499,120.2h234.4V85.5H499V120.2z"/>
		</g>
		<g id="text_16">
			<g transform="translate(669.804625 106.688125) scale(0.14 -0.14)">
				<g>
					<path id="DejaVuSans-31" d="M12.4,8.3h16.1v55.6L11,60.4v9l17.4,3.5h9.9V8.3h16.1V0h-42V8.3z"/>
				</g>
				<g>
					<path id="DejaVuSans-2e_00000178187100307830056780000017401226287743624330_" d="M74.3,12.4h10.3V0H74.3V12.4z"/>
				</g>
				<g>
					<path id="DejaVuSans-38_00000152974260734728284270000011496935115992876697_" d="M127.2,34.6c-4.7,0-8.4-1.3-11.1-3.8
						c-2.7-2.5-4-6-4-10.3c0-4.4,1.3-7.8,4-10.4c2.7-2.5,6.4-3.8,11.1-3.8c4.7,0,8.4,1.3,11.1,3.8c2.7,2.5,4.1,6,4.1,10.3
						c0,4.4-1.3,7.8-4,10.3C135.6,33.4,131.9,34.6,127.2,34.6z M117.3,38.8c-4.2,1-7.5,3-9.9,5.9c-2.4,2.9-3.5,6.4-3.5,10.6
						c0,5.8,2.1,10.4,6.2,13.8c4.2,3.4,9.8,5.1,17.1,5.1c7.3,0,13-1.7,17.1-5.1c4.1-3.4,6.2-8,6.2-13.8c0-4.2-1.2-7.7-3.5-10.6
						c-2.4-2.9-5.6-4.9-9.8-5.9c4.8-1.1,8.4-3.3,11.1-6.5c2.7-3.2,4-7.2,4-11.8c0-7.1-2.2-12.5-6.5-16.3c-4.3-3.8-10.5-5.7-18.5-5.7
						c-8,0-14.2,1.9-18.5,5.7c-4.3,3.8-6.5,9.2-6.5,16.3c0,4.6,1.3,8.6,4,11.8C108.9,35.5,112.6,37.7,117.3,38.8z M113.7,54.4
						c0-3.8,1.2-6.7,3.5-8.8c2.4-2.1,5.7-3.2,9.9-3.2c4.2,0,7.6,1.1,9.9,3.2c2.4,2.1,3.6,5.1,3.6,8.8c0,3.8-1.2,6.7-3.6,8.8
						c-2.4,2.1-5.7,3.2-9.9,3.2c-4.3,0-7.6-1.1-9.9-3.2C114.9,61.1,113.7,58.2,113.7,54.4z"/>
				</g>
				<g>
					<path id="DejaVuSans-30_00000165205194848290393010000017137782431747742893_" d="M190.8,66.4c-5.1,0-8.9-2.5-11.5-7.5
						c-2.6-5-3.8-12.5-3.8-22.5c0-10,1.3-17.5,3.8-22.5c2.6-5,6.4-7.5,11.5-7.5c5.1,0,8.9,2.5,11.5,7.5c2.6,5,3.8,12.5,3.8,22.5
						c0,10-1.3,17.5-3.8,22.5C199.8,63.9,195.9,66.4,190.8,66.4z M190.8,74.2c8.2,0,14.4-3.2,18.7-9.7c4.3-6.5,6.5-15.8,6.5-28.1
						c0-12.3-2.2-21.6-6.5-28.1c-4.3-6.5-10.6-9.7-18.7-9.7c-8.2,0-14.4,3.2-18.7,9.7c-4.3,6.5-6.5,15.8-6.5,28.1
						c0,12.3,2.2,21.7,6.5,28.1C176.4,71,182.6,74.2,190.8,74.2z"/>
				</g>
				<g>
					<path id="DejaVuSans-30_00000114784781188704635220000007660585827851871653_" d="M254.4,66.4c-5.1,0-8.9-2.5-11.5-7.5
						c-2.6-5-3.8-12.5-3.8-22.5c0-10,1.3-17.5,3.8-22.5c2.6-5,6.4-7.5,11.5-7.5c5.1,0,8.9,2.5,11.5,7.5c2.6,5,3.8,12.5,3.8,22.5
						c0,10-1.3,17.5-3.8,22.5C263.4,63.9,259.6,66.4,254.4,66.4z M254.4,74.2c8.2,0,14.4-3.2,18.7-9.7c4.3-6.5,6.5-15.8,6.5-28.1
						c0-12.3-2.2-21.6-6.5-28.1c-4.3-6.5-10.6-9.7-18.7-9.7c-8.2,0-14.4,3.2-18.7,9.7c-4.3,6.5-6.5,15.8-6.5,28.1
						c0,12.3,2.2,21.7,6.5,28.1C240,71,246.3,74.2,254.4,74.2z"/>
				</g>
			</g>
		</g>
		<g id="patch_18">
			<path class="st3" d="M733.3,120.2h234.4V85.5H733.3V120.2z"/>
		</g>
		<g id="text_17">
			<g transform="translate(904.164625 106.688125) scale(0.14 -0.14)">
				<g>
					<path id="DejaVuSans-33_00000114051391684311203900000003190223052006328749_" d="M40.6,39.3c4.7-1,8.4-3.1,11-6.3
						c2.7-3.2,4-7.1,4-11.8c0-7.2-2.5-12.8-7.4-16.7c-4.9-3.9-12-5.9-21.1-5.9c-3.1,0-6.2,0.3-9.4,0.9S11.1,1,7.6,2.2v9.5
						c2.7-1.6,5.7-2.8,9-3.6c3.3-0.8,6.7-1.2,10.2-1.2c6.2,0,10.9,1.2,14.1,3.7s4.9,6,4.9,10.6c0,4.3-1.5,7.7-4.5,10.1
						c-3,2.4-7.2,3.6-12.6,3.6h-8.5V43h8.9c4.8,0,8.6,1,11.1,2.9s3.9,4.7,3.9,8.4c0,3.7-1.3,6.6-4,8.6c-2.6,2-6.4,3-11.4,3
						c-2.7,0-5.6-0.3-8.7-0.9c-3.1-0.6-6.5-1.5-10.2-2.7v8.8c3.8,1,7.3,1.8,10.5,2.3s6.4,0.8,9.2,0.8c7.5,0,13.4-1.7,17.8-5.1
						c4.4-3.4,6.5-8,6.5-13.8c0-4-1.2-7.5-3.5-10.2S44.8,40.4,40.6,39.3z"/>
				</g>
				<g>
					<path id="DejaVuSans-2e_00000084516083032079496060000011497057543989230490_" d="M74.3,12.4h10.3V0H74.3V12.4z"/>
				</g>
				<g>
					<path id="DejaVuSans-39_00000028302561780270174180000006684493994637705656_" d="M106.4,1.5v9c2.5-1.2,5-2.1,7.5-2.7
						c2.5-0.6,5-0.9,7.5-0.9c6.5,0,11.5,2.2,14.9,6.6c3.4,4.4,5.4,11,5.9,20c-1.9-2.8-4.3-5-7.2-6.5c-2.9-1.5-6.1-2.2-9.6-2.2
						c-7.3,0-13.1,2.2-17.3,6.6c-4.2,4.4-6.4,10.5-6.4,18.1c0,7.5,2.2,13.5,6.6,18c4.4,4.5,10.3,6.8,17.7,6.8
						c8.4,0,14.9-3.2,19.3-9.7c4.4-6.5,6.7-15.8,6.7-28.1c0-11.5-2.7-20.7-8.2-27.5C138.4,2,131-1.4,121.8-1.4c-2.5,0-5,0.2-7.5,0.7
						C111.8-0.2,109.1,0.5,106.4,1.5z M126,32.4c4.4,0,7.9,1.5,10.5,4.5c2.6,3,3.9,7.2,3.9,12.5c0,5.2-1.3,9.4-3.9,12.4
						c-2.6,3-6.1,4.6-10.5,4.6c-4.4,0-7.9-1.5-10.5-4.6c-2.6-3-3.9-7.2-3.9-12.4c0-5.3,1.3-9.4,3.9-12.5
						C118.1,33.9,121.6,32.4,126,32.4z"/>
				</g>
				<g>
					<path id="DejaVuSans-36_00000026133342267444936950000010747402460477930112_" d="M192,40.4c-4.4,0-7.9-1.5-10.5-4.5
						c-2.6-3-3.9-7.2-3.9-12.4c0-5.2,1.3-9.4,3.9-12.4c2.6-3,6.1-4.6,10.5-4.6s7.9,1.5,10.5,4.6c2.6,3.1,3.9,7.2,3.9,12.4
						c0,5.3-1.3,9.4-3.9,12.4C200,38.9,196.5,40.4,192,40.4z M211.6,71.3v-9c-2.5,1.2-5,2.1-7.5,2.7c-2.5,0.6-5,0.9-7.5,0.9
						c-6.5,0-11.5-2.2-14.9-6.6c-3.4-4.4-5.4-11-5.9-19.9c1.9,2.8,4.3,5,7.2,6.5c2.9,1.5,6.1,2.3,9.6,2.3c7.3,0,13.1-2.2,17.4-6.7
						c4.2-4.4,6.4-10.5,6.4-18.1c0-7.5-2.2-13.5-6.6-18c-4.4-4.5-10.3-6.8-17.7-6.8c-8.4,0-14.9,3.2-19.3,9.7
						c-4.5,6.5-6.7,15.8-6.7,28.1c0,11.5,2.7,20.7,8.2,27.6c5.5,6.9,12.8,10.3,22,10.3c2.5,0,5-0.2,7.5-0.7S208.9,72.3,211.6,71.3z"
						/>
				</g>
				<g>
					<path id="DejaVuSans-32_00000073713080344157082840000015014083136040478619_" d="M241.8,8.3h34.4V0H230v8.3
						c3.7,3.9,8.8,9.1,15.3,15.6c6.5,6.5,10.5,10.7,12.2,12.6c3.2,3.5,5.4,6.5,6.6,9c1.3,2.5,1.9,4.9,1.9,7.2c0,3.9-1.4,7-4.1,9.5
						c-2.7,2.4-6.3,3.7-10.6,3.7c-3.1,0-6.4-0.5-9.8-1.6c-3.4-1.1-7.1-2.7-11-4.9v10c4,1.6,7.7,2.8,11.1,3.6
						c3.5,0.8,6.6,1.2,9.5,1.2c7.6,0,13.6-1.9,18.1-5.7c4.5-3.8,6.7-8.8,6.7-15.1c0-3-0.6-5.8-1.7-8.5c-1.1-2.7-3.2-5.8-6.1-9.5
						c-0.8-0.9-3.4-3.7-7.8-8.2C255.9,22.7,249.8,16.4,241.8,8.3z"/>
				</g>
			</g>
		</g>
		<g id="patch_19">
			<path class="st3" d="M967.7,120.2H1202V85.5H967.7V120.2z"/>
		</g>
		<g id="text_18">
			<g transform="translate(1138.524625 106.688125) scale(0.14 -0.14)">
				<g>
					<path id="DejaVuSans-30_00000098939865817706826030000003342501745508302240_" d="M31.8,66.4c-5.1,0-8.9-2.5-11.5-7.5
						c-2.6-5-3.8-12.5-3.8-22.5c0-10,1.3-17.5,3.8-22.5c2.6-5,6.4-7.5,11.5-7.5c5.1,0,8.9,2.5,11.5,7.5c2.6,5,3.8,12.5,3.8,22.5
						c0,10-1.3,17.5-3.8,22.5C40.7,63.9,36.9,66.4,31.8,66.4z M31.8,74.2c8.2,0,14.4-3.2,18.7-9.7c4.3-6.5,6.5-15.8,6.5-28.1
						c0-12.3-2.2-21.6-6.5-28.1C46.2,1.8,40-1.4,31.8-1.4c-8.2,0-14.4,3.2-18.7,9.7c-4.3,6.5-6.5,15.8-6.5,28.1
						c0,12.3,2.2,21.7,6.5,28.1C17.4,71,23.6,74.2,31.8,74.2z"/>
				</g>
				<g>
					<path id="DejaVuSans-2e_00000139985667164667907230000012993695351214533562_" d="M74.3,12.4h10.3V0H74.3V12.4z"/>
				</g>
				<g>
					<path id="DejaVuSans-30_00000141452866047108060620000011530671831919550375_" d="M127.2,66.4c-5.1,0-8.9-2.5-11.5-7.5
						c-2.6-5-3.8-12.5-3.8-22.5c0-10,1.3-17.5,3.8-22.5c2.6-5,6.4-7.5,11.5-7.5c5.1,0,8.9,2.5,11.5,7.5c2.6,5,3.8,12.5,3.8,22.5
						c0,10-1.3,17.5-3.8,22.5C136.1,63.9,132.3,66.4,127.2,66.4z M127.2,74.2c8.2,0,14.4-3.2,18.7-9.7c4.3-6.5,6.5-15.8,6.5-28.1
						c0-12.3-2.2-21.6-6.5-28.1c-4.3-6.5-10.6-9.7-18.7-9.7c-8.2,0-14.4,3.2-18.7,9.7c-4.3,6.5-6.5,15.8-6.5,28.1
						c0,12.3,2.2,21.7,6.5,28.1C112.8,71,119,74.2,127.2,74.2z"/>
				</g>
				<g>
					<path id="DejaVuSans-31_00000021828007923115752150000007892973349092801670_" d="M171.4,8.3h16.1v55.6L170,60.4v9l17.4,3.5
						h9.9V8.3h16.1V0h-42V8.3z"/>
				</g>
				<g>
					<path id="DejaVuSans-32_00000139291220273831504910000001755067076929037229_" d="M241.8,8.3h34.4V0H230v8.3
						c3.7,3.9,8.8,9.1,15.3,15.6c6.5,6.5,10.5,10.7,12.2,12.6c3.2,3.5,5.4,6.5,6.6,9c1.3,2.5,1.9,4.9,1.9,7.2c0,3.9-1.4,7-4.1,9.5
						c-2.7,2.4-6.3,3.7-10.6,3.7c-3.1,0-6.4-0.5-9.8-1.6c-3.4-1.1-7.1-2.7-11-4.9v10c4,1.6,7.7,2.8,11.1,3.6
						c3.5,0.8,6.6,1.2,9.5,1.2c7.6,0,13.6-1.9,18.1-5.7c4.5-3.8,6.7-8.8,6.7-15.1c0-3-0.6-5.8-1.7-8.5c-1.1-2.7-3.2-5.8-6.1-9.5
						c-0.8-0.9-3.4-3.7-7.8-8.2C255.9,22.7,249.8,16.4,241.8,8.3z"/>
				</g>
			</g>
		</g>
		<g id="patch_20">
			<path class="st3" d="M1202,120.2h234.4V85.5H1202V120.2z"/>
		</g>
		<g id="text_19">
			<g transform="translate(1372.884625 106.688125) scale(0.14 -0.14)">
				<g>
					<path id="DejaVuSans-30_00000037687021169714513380000009197172422749124799_" d="M31.8,66.4c-5.1,0-8.9-2.5-11.5-7.5
						c-2.6-5-3.8-12.5-3.8-22.5c0-10,1.3-17.5,3.8-22.5c2.6-5,6.4-7.5,11.5-7.5c5.1,0,8.9,2.5,11.5,7.5c2.6,5,3.8,12.5,3.8,22.5
						c0,10-1.3,17.5-3.8,22.5C40.7,63.9,36.9,66.4,31.8,66.4z M31.8,74.2c8.2,0,14.4-3.2,18.7-9.7c4.3-6.5,6.5-15.8,6.5-28.1
						c0-12.3-2.2-21.6-6.5-28.1C46.2,1.8,40-1.4,31.8-1.4c-8.2,0-14.4,3.2-18.7,9.7c-4.3,6.5-6.5,15.8-6.5,28.1
						c0,12.3,2.2,21.7,6.5,28.1C17.4,71,23.6,74.2,31.8,74.2z"/>
				</g>
				<g>
					<path id="DejaVuSans-2e_00000116217682773189873040000009644274048178589070_" d="M74.3,12.4h10.3V0H74.3V12.4z"/>
				</g>
				<g>
					<path id="DejaVuSans-30_00000145047601574252351050000016070175787099547316_" d="M127.2,66.4c-5.1,0-8.9-2.5-11.5-7.5
						c-2.6-5-3.8-12.5-3.8-22.5c0-10,1.3-17.5,3.8-22.5c2.6-5,6.4-7.5,11.5-7.5c5.1,0,8.9,2.5,11.5,7.5c2.6,5,3.8,12.5,3.8,22.5
						c0,10-1.3,17.5-3.8,22.5C136.1,63.9,132.3,66.4,127.2,66.4z M127.2,74.2c8.2,0,14.4-3.2,18.7-9.7c4.3-6.5,6.5-15.8,6.5-28.1
						c0-12.3-2.2-21.6-6.5-28.1c-4.3-6.5-10.6-9.7-18.7-9.7c-8.2,0-14.4,3.2-18.7,9.7c-4.3,6.5-6.5,15.8-6.5,28.1
						c0,12.3,2.2,21.7,6.5,28.1C112.8,71,119,74.2,127.2,74.2z"/>
				</g>
				<g>
					<path id="DejaVuSans-36_00000145056284198571835380000005410065483098638269_" d="M192,40.4c-4.4,0-7.9-1.5-10.5-4.5
						c-2.6-3-3.9-7.2-3.9-12.4c0-5.2,1.3-9.4,3.9-12.4c2.6-3,6.1-4.6,10.5-4.6c4.4,0,7.9,1.5,10.5,4.6c2.6,3.1,3.9,7.2,3.9,12.4
						c0,5.3-1.3,9.4-3.9,12.4C200,38.9,196.5,40.4,192,40.4z M211.6,71.3v-9c-2.5,1.2-5,2.1-7.5,2.7c-2.5,0.6-5,0.9-7.5,0.9
						c-6.5,0-11.5-2.2-14.9-6.6c-3.4-4.4-5.4-11-5.9-19.9c1.9,2.8,4.3,5,7.2,6.5c2.9,1.5,6.1,2.3,9.6,2.3c7.3,0,13.1-2.2,17.4-6.7
						c4.2-4.4,6.4-10.5,6.4-18.1c0-7.5-2.2-13.5-6.6-18c-4.4-4.5-10.3-6.8-17.7-6.8c-8.4,0-14.9,3.2-19.3,9.7
						c-4.5,6.5-6.7,15.8-6.7,28.1c0,11.5,2.7,20.7,8.2,27.6c5.5,6.9,12.8,10.3,22,10.3c2.5,0,5-0.2,7.5-0.7S208.9,72.3,211.6,71.3z"
						/>
				</g>
				<g>
					<path id="DejaVuSans-32_00000077310313754854661020000015727023098632264587_" d="M241.8,8.3h34.4V0H230v8.3
						c3.7,3.9,8.8,9.1,15.3,15.6c6.5,6.5,10.5,10.7,12.2,12.6c3.2,3.5,5.4,6.5,6.6,9c1.3,2.5,1.9,4.9,1.9,7.2c0,3.9-1.4,7-4.1,9.5
						c-2.7,2.4-6.3,3.7-10.6,3.7c-3.1,0-6.4-0.5-9.8-1.6c-3.4-1.1-7.1-2.7-11-4.9v10c4,1.6,7.7,2.8,11.1,3.6
						c3.5,0.8,6.6,1.2,9.5,1.2c7.6,0,13.6-1.9,18.1-5.7c4.5-3.8,6.7-8.8,6.7-15.1c0-3-0.6-5.8-1.7-8.5c-1.1-2.7-3.2-5.8-6.1-9.5
						c-0.8-0.9-3.4-3.7-7.8-8.2C255.9,22.7,249.8,16.4,241.8,8.3z"/>
				</g>
			</g>
		</g>
		<g id="patch_21">
			<path class="st3" d="M1436.4,120.2h234.4V85.5h-234.4V120.2z"/>
		</g>
		<g id="text_20">
			<g transform="translate(1607.244625 106.688125) scale(0.14 -0.14)">
				<g>
					<path id="DejaVuSans-30_00000023248960079672000880000001478918764736081574_" d="M31.8,66.4c-5.1,0-8.9-2.5-11.5-7.5
						c-2.6-5-3.8-12.5-3.8-22.5c0-10,1.3-17.5,3.8-22.5c2.6-5,6.4-7.5,11.5-7.5c5.1,0,8.9,2.5,11.5,7.5c2.6,5,3.8,12.5,3.8,22.5
						c0,10-1.3,17.5-3.8,22.5C40.7,63.9,36.9,66.4,31.8,66.4z M31.8,74.2c8.2,0,14.4-3.2,18.7-9.7c4.3-6.5,6.5-15.8,6.5-28.1
						c0-12.3-2.2-21.6-6.5-28.1C46.2,1.8,40-1.4,31.8-1.4c-8.2,0-14.4,3.2-18.7,9.7c-4.3,6.5-6.5,15.8-6.5,28.1
						c0,12.3,2.2,21.7,6.5,28.1C17.4,71,23.6,74.2,31.8,74.2z"/>
				</g>
				<g>
					<path id="DejaVuSans-2e_00000029021305374921264220000001201402913115086509_" d="M74.3,12.4h10.3V0H74.3V12.4z"/>
				</g>
				<g>
					<path id="DejaVuSans-30_00000100351380058412715320000005973162823981002910_" d="M127.2,66.4c-5.1,0-8.9-2.5-11.5-7.5
						c-2.6-5-3.8-12.5-3.8-22.5c0-10,1.3-17.5,3.8-22.5c2.6-5,6.4-7.5,11.5-7.5c5.1,0,8.9,2.5,11.5,7.5c2.6,5,3.8,12.5,3.8,22.5
						c0,10-1.3,17.5-3.8,22.5C136.1,63.9,132.3,66.4,127.2,66.4z M127.2,74.2c8.2,0,14.4-3.2,18.7-9.7c4.3-6.5,6.5-15.8,6.5-28.1
						c0-12.3-2.2-21.6-6.5-28.1c-4.3-6.5-10.6-9.7-18.7-9.7c-8.2,0-14.4,3.2-18.7,9.7c-4.3,6.5-6.5,15.8-6.5,28.1
						c0,12.3,2.2,21.7,6.5,28.1C112.8,71,119,74.2,127.2,74.2z"/>
				</g>
				<g>
					<path id="DejaVuSans-32_00000034066352441651681190000006214473151717704622_" d="M178.2,8.3h34.4V0h-46.3v8.3
						c3.7,3.9,8.8,9.1,15.3,15.6c6.5,6.5,10.5,10.7,12.2,12.6c3.2,3.5,5.4,6.5,6.6,9c1.3,2.5,1.9,4.9,1.9,7.2c0,3.9-1.4,7-4.1,9.5
						c-2.7,2.4-6.3,3.7-10.6,3.7c-3.1,0-6.4-0.5-9.8-1.6c-3.4-1.1-7.1-2.7-11-4.9v10c4,1.6,7.7,2.8,11.1,3.6
						c3.5,0.8,6.6,1.2,9.5,1.2c7.6,0,13.6-1.9,18.1-5.7c4.5-3.8,6.7-8.8,6.7-15.1c0-3-0.6-5.8-1.7-8.5c-1.1-2.7-3.2-5.8-6.1-9.5
						c-0.8-0.9-3.4-3.7-7.8-8.2C192.3,22.7,186.2,16.4,178.2,8.3z"/>
				</g>
				<g>
					<path id="DejaVuSans-37_00000034087379753749649360000018265261505458515370_" d="M230.9,72.9h46.9v-4.2L251.3,0H241l24.9,64.6
						h-35V72.9z"/>
				</g>
			</g>
		</g>
		<g id="patch_22">
			<path class="st3" d="M1670.8,120.2h234.4V85.5h-234.4V120.2z"/>
		</g>
		<g id="text_21">
			<g transform="translate(1841.604625 106.688125) scale(0.14 -0.14)">
				<g>
					<path id="DejaVuSans-30_00000150076197979602227380000006826932573239945115_" d="M31.8,66.4c-5.1,0-8.9-2.5-11.5-7.5
						c-2.6-5-3.8-12.5-3.8-22.5c0-10,1.3-17.5,3.8-22.5c2.6-5,6.4-7.5,11.5-7.5c5.1,0,8.9,2.5,11.5,7.5c2.6,5,3.8,12.5,3.8,22.5
						c0,10-1.3,17.5-3.8,22.5C40.7,63.9,36.9,66.4,31.8,66.4z M31.8,74.2c8.2,0,14.4-3.2,18.7-9.7c4.3-6.5,6.5-15.8,6.5-28.1
						c0-12.3-2.2-21.6-6.5-28.1C46.2,1.8,40-1.4,31.8-1.4c-8.2,0-14.4,3.2-18.7,9.7c-4.3,6.5-6.5,15.8-6.5,28.1
						c0,12.3,2.2,21.7,6.5,28.1C17.4,71,23.6,74.2,31.8,74.2z"/>
				</g>
				<g>
					<path id="DejaVuSans-2e_00000096744025438956232120000016442108158699706249_" d="M74.3,12.4h10.3V0H74.3V12.4z"/>
				</g>
				<g>
					<path id="DejaVuSans-30_00000103259535419811091770000014039184468373881476_" d="M127.2,66.4c-5.1,0-8.9-2.5-11.5-7.5
						c-2.6-5-3.8-12.5-3.8-22.5c0-10,1.3-17.5,3.8-22.5c2.6-5,6.4-7.5,11.5-7.5c5.1,0,8.9,2.5,11.5,7.5c2.6,5,3.8,12.5,3.8,22.5
						c0,10-1.3,17.5-3.8,22.5C136.1,63.9,132.3,66.4,127.2,66.4z M127.2,74.2c8.2,0,14.4-3.2,18.7-9.7c4.3-6.5,6.5-15.8,6.5-28.1
						c0-12.3-2.2-21.6-6.5-28.1c-4.3-6.5-10.6-9.7-18.7-9.7c-8.2,0-14.4,3.2-18.7,9.7c-4.3,6.5-6.5,15.8-6.5,28.1
						c0,12.3,2.2,21.7,6.5,28.1C112.8,71,119,74.2,127.2,74.2z"/>
				</g>
				<g>
					<path id="DejaVuSans-32_00000081639333729191385560000013056596846783158430_" d="M178.2,8.3h34.4V0h-46.3v8.3
						c3.7,3.9,8.8,9.1,15.3,15.6c6.5,6.5,10.5,10.7,12.2,12.6c3.2,3.5,5.4,6.5,6.6,9c1.3,2.5,1.9,4.9,1.9,7.2c0,3.9-1.4,7-4.1,9.5
						c-2.7,2.4-6.3,3.7-10.6,3.7c-3.1,0-6.4-0.5-9.8-1.6c-3.4-1.1-7.1-2.7-11-4.9v10c4,1.6,7.7,2.8,11.1,3.6
						c3.5,0.8,6.6,1.2,9.5,1.2c7.6,0,13.6-1.9,18.1-5.7c4.5-3.8,6.7-8.8,6.7-15.1c0-3-0.6-5.8-1.7-8.5c-1.1-2.7-3.2-5.8-6.1-9.5
						c-0.8-0.9-3.4-3.7-7.8-8.2C192.3,22.7,186.2,16.4,178.2,8.3z"/>
				</g>
				<g>
					<path id="DejaVuSans-39_00000066497722915776262110000012935568686912664712_" d="M233.6,1.5v9c2.5-1.2,5-2.1,7.5-2.7
						c2.5-0.6,5-0.9,7.5-0.9c6.5,0,11.5,2.2,14.9,6.6c3.4,4.4,5.4,11,5.9,20c-1.9-2.8-4.3-5-7.2-6.5c-2.9-1.5-6.1-2.2-9.6-2.2
						c-7.3,0-13.1,2.2-17.3,6.6c-4.2,4.4-6.4,10.5-6.4,18.1c0,7.5,2.2,13.5,6.6,18c4.4,4.5,10.3,6.8,17.7,6.8
						c8.4,0,14.9-3.2,19.3-9.7c4.4-6.5,6.7-15.8,6.7-28.1c0-11.5-2.7-20.7-8.2-27.5c-5.4-6.9-12.8-10.3-22-10.3
						c-2.5,0-5,0.2-7.5,0.7C239-0.2,236.4,0.5,233.6,1.5z M253.3,32.4c4.4,0,7.9,1.5,10.5,4.5c2.6,3,3.9,7.2,3.9,12.5
						c0,5.2-1.3,9.4-3.9,12.4c-2.6,3-6.1,4.6-10.5,4.6c-4.4,0-7.9-1.5-10.5-4.6c-2.6-3-3.9-7.2-3.9-12.4c0-5.3,1.3-9.4,3.9-12.5
						C245.3,33.9,248.8,32.4,253.3,32.4z"/>
				</g>
			</g>
		</g>
	</g>
</g>
</svg>
